<?xml version="1.0" encoding="UTF-8" standalone="no"?>
<svg
   xmlns:dc="http://purl.org/dc/elements/1.1/"
   xmlns:cc="http://creativecommons.org/ns#"
   xmlns:rdf="http://www.w3.org/1999/02/22-rdf-syntax-ns#"
   xmlns:svg="http://www.w3.org/2000/svg"
   xmlns="http://www.w3.org/2000/svg"
   xmlns:xlink="http://www.w3.org/1999/xlink"
   xmlns:sodipodi="http://sodipodi.sourceforge.net/DTD/sodipodi-0.dtd"
   xmlns:inkscape="http://www.inkscape.org/namespaces/inkscape"
   width="50mm"
   height="50mm"
   viewBox="0 0 50 50"
   version="1.1"
   id="svg8"
   inkscape:version="1.0beta2 (2b71d25, 2019-12-03)"
   sodipodi:docname="btn_add.svg">
  <defs
     id="defs2">
    <linearGradient
       inkscape:collect="always"
       id="linearGradient1082">
      <stop
         style="stop-color:#0689fd;stop-opacity:1;"
         offset="0"
         id="stop1078" />
      <stop
         style="stop-color:#0689fd;stop-opacity:0;"
         offset="1"
         id="stop1080" />
    </linearGradient>
    <linearGradient
       inkscape:collect="always"
       xlink:href="#linearGradient1082"
       id="linearGradient1084"
       x1="188.90216"
       y1="36.480976"
       x2="168.05728"
       y2="73.056168"
       gradientUnits="userSpaceOnUse"
       gradientTransform="translate(6.3241608,-1.4353502)" />
    <filter
       inkscape:collect="always"
       style="color-interpolation-filters:sRGB"
       id="filter1098"
       x="-0.024"
       width="1.048"
       y="-0.023999998"
       height="1.048">
      <feGaussianBlur
         inkscape:collect="always"
         stdDeviation="1.1945898"
         id="feGaussianBlur1100" />
    </filter>
  </defs>
  <sodipodi:namedview
     id="base"
     pagecolor="#ffffff"
     bordercolor="#666666"
     borderopacity="1.0"
     inkscape:pageopacity="0.0"
     inkscape:pageshadow="2"
     inkscape:zoom="0.7"
     inkscape:cx="227.66691"
     inkscape:cy="255.31187"
     inkscape:document-units="mm"
     inkscape:current-layer="layer1"
     inkscape:document-rotation="0"
     showgrid="false"
     inkscape:window-width="1920"
     inkscape:window-height="1012"
     inkscape:window-x="0"
     inkscape:window-y="36"
     inkscape:window-maximized="1" />
  <metadata
     id="metadata5">
    <rdf:RDF>
      <cc:Work
         rdf:about="">
        <dc:format>image/svg+xml</dc:format>
        <dc:type
           rdf:resource="http://purl.org/dc/dcmitype/StillImage" />
        <dc:title />
      </cc:Work>
    </rdf:RDF>
  </metadata>
  <g
     inkscape:label="Layer 1"
     inkscape:groupmode="layer"
     id="layer1">
    <ellipse
       style="opacity:1;fill:#ffffff;stroke-width:0.501891;stroke-linecap:round"
       id="path848"
       cx="24.912952"
       cy="25.229033"
       rx="18.718527"
       ry="16.9172" />
    <g
       id="g1116"
       transform="matrix(-0.91382325,0,0,0.91382325,198.88286,-12.270581)">
      <g
         id="g1133">
        <path
           id="path1093"
           style="opacity:1;fill:#999999;fill-opacity:1;stroke-width:1.86959;stroke-linecap:round;filter:url(#filter1098)"
           d="m 354.20117,-22.464844 c -2.15546,0 -3.89062,1.735164 -3.89062,3.890625 v 36.146485 h -36.14649 c -2.15546,0 -3.89062,1.735164 -3.89062,3.890625 v 31.603515 c 0,2.155457 1.73516,3.890625 3.89062,3.890625 h 0.10938 v -31.49414 c 0,-2.155461 1.73516,-3.890625 3.89062,-3.890625 h 36.14649 v -36.146485 c 0,-2.155461 1.73516,-3.890625 3.89062,-3.890625 h 31.49414 v -0.109375 c 0,-2.155461 -1.73516,-3.890625 -3.89062,-3.890625 z m 39.49414,40.03711 v 4 h 36.03711 v -0.109375 c 0,-2.155461 -1.73516,-3.890625 -3.89062,-3.890625 z m -43.38476,43.384765 v 32.146485 c 0,2.15546 1.73516,3.890625 3.89062,3.890625 h 0.10938 v -36.03711 z"
           transform="matrix(0.26458333,0,0,0.26458333,91.944534,30.22818)"
           inkscape:connector-curvature="0" />
        <path
           inkscape:connector-curvature="0"
           id="path937"
           style="fill:#011872;fill-opacity:1;stroke-width:0.551725;stroke-linecap:round"
           d="m 190.19666,14.888718 c -14.12279,0.04901 -25.54587,11.630587 -25.54573,25.899711 -5e-5,14.303711 11.47647,25.899081 25.63358,25.899195 14.15711,-1.14e-4 25.63362,-11.595484 25.63357,-25.899195 6e-5,-14.303716 -11.47646,-25.899599 -25.63357,-25.899711 -0.0293,-5.1e-5 -0.0586,-5.1e-5 -0.0879,0 z m -4.36149,9.563757 h 8.36176 c 0.5703,0 1.02939,0.459095 1.02939,1.029396 v 9.563756 h 9.56376 c 0.5703,0 1.0294,0.459094 1.0294,1.029393 v 8.361765 c 0,0.570298 -0.4591,1.029393 -1.0294,1.029393 h -9.56376 v 9.563759 c 0,0.570298 -0.45909,1.029393 -1.02939,1.029393 h -8.36176 c -0.57031,0 -1.0294,-0.459095 -1.0294,-1.029393 v -9.563759 h -9.56376 c -0.5703,2e-6 -1.02939,-0.459095 -1.02939,-1.029393 V 36.07502 c 0,-0.570299 0.45909,-1.029393 1.02939,-1.029393 h 9.56376 v -9.563756 c 0,-0.570301 0.45909,-1.029396 1.0294,-1.029396 z" />
        <path
           inkscape:connector-curvature="0"
           id="path939"
           style="fill:url(#linearGradient1084);fill-opacity:1;stroke-width:0.543306;stroke-linecap:round"
           d="m 190.0163,14.883033 c -14.01321,-5.6e-5 -25.37318,11.359912 -25.37312,25.373129 -5e-5,14.013211 11.35992,25.373184 25.37312,25.373128 14.01302,-2.33e-4 25.37267,-11.360118 25.37262,-25.373128 6e-5,-14.013013 -11.3596,-25.372898 -25.37262,-25.373129 z m -4.18113,9.569442 h 8.36176 c 0.5703,0 1.02939,0.459095 1.02939,1.029396 v 9.563756 h 9.56376 c 0.5703,0 1.0294,0.459094 1.0294,1.029393 v 8.361765 c 0,0.570298 -0.4591,1.029393 -1.0294,1.029393 h -9.56376 v 9.563759 c 0,0.570298 -0.45909,1.029393 -1.02939,1.029393 h -8.36176 c -0.57031,0 -1.0294,-0.459095 -1.0294,-1.029393 v -9.563759 h -9.56376 c -0.5703,2e-6 -1.02939,-0.459095 -1.02939,-1.029393 V 36.07502 c 0,-0.570299 0.45909,-1.029393 1.02939,-1.029393 h 9.56376 v -9.563756 c 0,-0.570301 0.45909,-1.029396 1.0294,-1.029396 z" />
      </g>
    </g>
  </g>
</svg>
