<?xml version="1.0" encoding="UTF-8" standalone="no"?>
<svg
   xmlns:dc="http://purl.org/dc/elements/1.1/"
   xmlns:cc="http://creativecommons.org/ns#"
   xmlns:rdf="http://www.w3.org/1999/02/22-rdf-syntax-ns#"
   xmlns:svg="http://www.w3.org/2000/svg"
   xmlns="http://www.w3.org/2000/svg"
   xmlns:xlink="http://www.w3.org/1999/xlink"
   xmlns:sodipodi="http://sodipodi.sourceforge.net/DTD/sodipodi-0.dtd"
   xmlns:inkscape="http://www.inkscape.org/namespaces/inkscape"
   width="50mm"
   height="50mm"
   viewBox="0 0 50 50"
   version="1.1"
   id="svg8"
   inkscape:version="1.0beta2 (2b71d25, 2019-12-03)"
   sodipodi:docname="btn_save.svg">
  <defs
     id="defs2">
    <linearGradient
       inkscape:collect="always"
       id="linearGradient873">
      <stop
         style="stop-color:#1cd052;stop-opacity:1;"
         offset="0"
         id="stop869" />
      <stop
         style="stop-color:#1cd052;stop-opacity:0;"
         offset="1"
         id="stop871" />
    </linearGradient>
    <linearGradient
       gradientTransform="translate(39.8865,31.473013)"
       gradientUnits="userSpaceOnUse"
       y2="66.039398"
       x2="104.90633"
       y1="31.893452"
       x1="118.34452"
       id="linearGradient875-3"
       xlink:href="#linearGradient873"
       inkscape:collect="always" />
    <filter
       inkscape:collect="always"
       style="color-interpolation-filters:sRGB"
       id="filter926"
       x="-0.05202442"
       width="1.1040488"
       y="-0.11687655"
       height="1.2337531">
      <feGaussianBlur
         inkscape:collect="always"
         stdDeviation="3.0464186"
         id="feGaussianBlur928" />
    </filter>
  </defs>
  <sodipodi:namedview
     id="base"
     pagecolor="#ffffff"
     bordercolor="#666666"
     borderopacity="1.0"
     inkscape:pageopacity="0.0"
     inkscape:pageshadow="2"
     inkscape:zoom="0.98994949"
     inkscape:cx="45.365385"
     inkscape:cy="235.05884"
     inkscape:document-units="mm"
     inkscape:current-layer="layer1"
     inkscape:document-rotation="0"
     showgrid="false"
     inkscape:window-width="1920"
     inkscape:window-height="1012"
     inkscape:window-x="0"
     inkscape:window-y="36"
     inkscape:window-maximized="1" />
  <metadata
     id="metadata5">
    <rdf:RDF>
      <cc:Work
         rdf:about="">
        <dc:format>image/svg+xml</dc:format>
        <dc:type
           rdf:resource="http://purl.org/dc/dcmitype/StillImage" />
        <dc:title />
      </cc:Work>
    </rdf:RDF>
  </metadata>
  <g
     inkscape:label="Layer 1"
     inkscape:groupmode="layer"
     id="layer1">
    <ellipse
       ry="16.9172"
       rx="18.718525"
       cy="23.876362"
       cx="25.671251"
       id="path848"
       style="opacity:1;fill:#ffffff;stroke-width:0.50189;stroke-linecap:round" />
    <g
       id="g933"
       transform="matrix(0.90618551,0,0,0.90618551,-114.91801,-39.221917)">
      <path
         transform="scale(0.26458333)"
         d="m 625.35156,209.50195 c -0.50918,-5.8e-4 -1.01759,0.19428 -1.4082,0.58399 l -56.09961,55.97265 -27.03125,-26.20898 c -0.39613,-0.38409 -0.90883,-0.57036 -1.41797,-0.5625 -0.5091,0.008 -1.01436,0.21127 -1.39844,0.60742 l -25.1289,25.91602 c -0.76819,0.79227 -0.74945,2.04822 0.043,2.8164 l 2.59961,2.52149 24.48632,-25.25391 c 0.38408,-0.39615 0.88934,-0.59948 1.39844,-0.60742 0.50914,-0.008 1.02184,0.17841 1.41797,0.5625 l 27.03125,26.20898 56.09961,-55.97265 c 0.39061,-0.38971 0.89902,-0.58457 1.4082,-0.58399 0.50918,5.8e-4 1.01846,0.19729 1.40821,0.58789 l 22.90625,22.95704 0.58789,-0.58594 c 0.78119,-0.77943 0.78347,-2.03521 0.004,-2.81641 L 626.7599,210.08984 c -0.38975,-0.3906 -0.89903,-0.58731 -1.40821,-0.58789 z"
         style="opacity:1;fill:#999999;fill-opacity:1;stroke-width:1.84441;stroke-linecap:round;filter:url(#filter926)"
         id="path890"
         inkscape:connector-curvature="0" />
      <path
         inkscape:connector-curvature="0"
         id="path847-5"
         style="opacity:1;fill:#022107;fill-opacity:1;stroke-width:0.546092;stroke-linecap:round"
         d="m 154.3193,46.026647 a 25.63378,25.373028 0 0 0 -25.54573,25.373129 25.63378,25.373028 0 0 0 25.63358,25.373124 25.63378,25.373028 0 0 0 25.63358,-25.373124 25.63378,25.373028 0 0 0 -25.63358,-25.373129 25.63378,25.373028 0 0 0 -0.0879,0 z m 11.13834,9.404077 c 0.13472,1.52e-4 0.26946,0.0522 0.37258,0.155546 l 6.74636,6.761345 c 0.20626,0.206693 0.20566,0.538948 -0.001,0.745173 L 150.6673,84.951403 c -0.038,0.03786 -0.0812,0.0665 -0.12609,0.09043 l -0.21084,0.210325 -0.17157,-0.166399 c -0.0865,-0.02326 -0.16909,-0.06666 -0.23719,-0.134877 l -2.89747,-2.904729 -11.31663,-10.971939 c -0.20963,-0.203248 -0.21461,-0.535554 -0.0114,-0.745175 l 6.64869,-6.856945 c 0.10162,-0.104817 0.2353,-0.158615 0.37,-0.160716 0.13471,-0.0021 0.27036,0.04721 0.37517,0.148828 l 7.15202,6.934462 14.84302,-14.809432 c 0.10335,-0.103111 0.23787,-0.154666 0.37259,-0.154512 z" />
      <path
         inkscape:connector-curvature="0"
         id="circle849-3"
         style="opacity:1;fill:url(#linearGradient875-3);fill-opacity:1;stroke-width:0.543306;stroke-linecap:round"
         d="m 154.13895,44.968313 a 25.373028,25.373028 0 0 0 -25.37313,25.373129 25.373028,25.373028 0 0 0 25.37313,25.373123 25.373028,25.373028 0 0 0 25.37261,-25.373123 25.373028,25.373028 0 0 0 -25.37261,-25.373129 z m 11.31869,10.462411 c 0.13472,1.52e-4 0.26946,0.0522 0.37258,0.155546 l 6.74636,6.761345 c 0.20626,0.206693 0.20566,0.538948 -0.001,0.745173 L 150.6673,84.951403 c -0.038,0.03786 -0.0812,0.0665 -0.12609,0.09043 l -0.21084,0.210325 -0.17157,-0.166399 c -0.0865,-0.02326 -0.16909,-0.06666 -0.23719,-0.134877 l -2.89747,-2.904729 -11.31663,-10.971939 c -0.20963,-0.203248 -0.21461,-0.535554 -0.0114,-0.745175 l 6.64869,-6.856945 c 0.10162,-0.104817 0.2353,-0.158615 0.37,-0.160716 0.13471,-0.0021 0.27036,0.04721 0.37517,0.148828 l 7.15202,6.934462 14.84302,-14.809432 c 0.10335,-0.103111 0.23787,-0.154666 0.37259,-0.154512 z" />
    </g>
  </g>
</svg>
