<?xml version="1.0" encoding="UTF-8" standalone="no"?>
<svg
   xmlns:dc="http://purl.org/dc/elements/1.1/"
   xmlns:cc="http://creativecommons.org/ns#"
   xmlns:rdf="http://www.w3.org/1999/02/22-rdf-syntax-ns#"
   xmlns:svg="http://www.w3.org/2000/svg"
   xmlns="http://www.w3.org/2000/svg"
   xmlns:sodipodi="http://sodipodi.sourceforge.net/DTD/sodipodi-0.dtd"
   xmlns:inkscape="http://www.inkscape.org/namespaces/inkscape"
   version="1.1"
   width="128"
   height="128"
   viewBox="0 0 128 128"
   overflow="visible"
   enable-background="new 0 0 128 128"
   xml:space="preserve"
   id="svg989"
   sodipodi:docname="go-previus.svg"
   inkscape:version="0.92.4 5da689c313, 2019-01-14"><metadata
   id="metadata995"><rdf:RDF><cc:Work
       rdf:about=""><dc:format>image/svg+xml</dc:format><dc:type
         rdf:resource="http://purl.org/dc/dcmitype/StillImage" /><dc:title></dc:title></cc:Work></rdf:RDF></metadata><defs
   id="defs993" /><sodipodi:namedview
   pagecolor="#ffffff"
   bordercolor="#666666"
   borderopacity="1"
   objecttolerance="10"
   gridtolerance="10"
   guidetolerance="10"
   inkscape:pageopacity="0"
   inkscape:pageshadow="2"
   inkscape:window-width="1920"
   inkscape:window-height="1004"
   id="namedview991"
   showgrid="false"
   inkscape:zoom="1.578125"
   inkscape:cx="-21.094384"
   inkscape:cy="53.143897"
   inkscape:window-x="-2"
   inkscape:window-y="53"
   inkscape:window-maximized="1"
   inkscape:current-layer="svg989" />
	<path
   d="m 15.78475,65.314 45,45 c 0.574,0.575 1.43,0.745 2.18,0.434 0.749,-0.31 1.234,-1.035 1.234,-1.848 0,0 0,-23.15 0,-25 1.939,0 61.004,0 61.004,0 1.103,0 2,-0.897 2,-2 V 46 c 0,-1.103 -0.897,-2 -2,-2 0,0 -59.064,0 -61.004,0 0,-1.85 0,-25.1 0,-25.1 0,-0.813 -0.485,-1.538 -1.236,-1.848 -0.002,-0.002 -0.764,-0.152 -0.764,-0.152 -0.535,0 -1.037,0.208 -1.414,0.586 l -45,45 c -0.781,0.78 -0.781,2.049 0,2.828 z"
   id="path925"
   inkscape:connector-curvature="0"
   style="opacity:0.2" />
	<path
   d="m 16.49175,64.607 45,45 c 0.285,0.286 0.716,0.372 1.09,0.217 0.373,-0.154 0.617,-0.52 0.617,-0.924 0,0 0,-24.146 0,-26 1.937,0 62.004,0 62.004,0 0.552,0 1,-0.447 1,-1 V 46 c 0,-0.553 -0.448,-1 -1,-1 0,0 -60.067,0 -62.004,0 0,-1.854 0,-26.1 0,-26.1 0,-0.404 -0.244,-0.77 -0.617,-0.924 -0.125,-0.051 -0.254,-0.076 -0.383,-0.076 -0.261,0 -0.516,0.102 -0.707,0.293 l -45,45 c -0.391,0.391 -0.391,1.024 0,1.414 z"
   id="path927"
   inkscape:connector-curvature="0"
   style="opacity:0.2" />
	
		<linearGradient
   id="XMLID_9_"
   gradientUnits="userSpaceOnUse"
   x1="1065.3579"
   y1="37.9688"
   x2="1052.8593"
   y2="-70.5198"
   gradientTransform="rotate(-90,604.49937,516.40052)">
		<stop
   offset="0"
   style="stop-color:#D15F00"
   id="stop929" />
		<stop
   offset="1"
   style="stop-color:#D96E00"
   id="stop931" />
	</linearGradient>
	<path
   d="m 16.49175,63.607 45,45 c 0.285,0.286 0.716,0.372 1.09,0.217 0.373,-0.154 0.617,-0.52 0.617,-0.924 0,0 0,-24.146 0,-26 1.937,0 62.004,0 62.004,0 0.552,0 1,-0.447 1,-1 V 45 c 0,-0.553 -0.448,-1 -1,-1 0,0 -60.067,0 -62.004,0 0,-1.854 0,-26.1 0,-26.1 0,-0.404 -0.244,-0.77 -0.617,-0.924 -0.125,-0.051 -0.254,-0.076 -0.383,-0.076 -0.261,0 -0.516,0.102 -0.707,0.293 l -45,45 c -0.391,0.391 -0.391,1.024 0,1.414 z"
   id="path934"
   style="fill:url(#XMLID_9_)"
   inkscape:connector-curvature="0" />
	
		<linearGradient
   id="XMLID_10_"
   gradientUnits="userSpaceOnUse"
   x1="1067.9419"
   y1="-17.2285"
   x2="1034.4423"
   y2="-5.9787"
   gradientTransform="rotate(-90,603.9995,516.9004)">
		<stop
   offset="0"
   style="stop-color:#ED7C00"
   id="stop936" />
		<stop
   offset="1"
   style="stop-color:#F89000"
   id="stop938" />
	</linearGradient>
	<polygon
   points="61.199,80.9 124.203,80.9 124.203,45 61.199,45 61.199,17.9 16.199,62.9 61.199,107.9 "
   id="polygon941"
   style="fill:url(#XMLID_10_)"
   transform="translate(0.99975)" />
	<linearGradient
   id="XMLID_11_"
   gradientUnits="userSpaceOnUse"
   x1="79.7485"
   y1="37.4341"
   x2="97.7486"
   y2="93.1011"
   gradientTransform="translate(0.99975)">
		<stop
   offset="0"
   style="stop-color:#ED7C00"
   id="stop943" />
		<stop
   offset="1"
   style="stop-color:#FFA000"
   id="stop945" />
	</linearGradient>
	<path
   d="m 62.19875,17.9 -1,1 V 44 h 1 z m 62.004,27.1 v 34.9 h -63.004 v 27 l 1,1 v -27 h 63.004 V 45 Z"
   id="path948"
   style="fill:url(#XMLID_11_)"
   inkscape:connector-curvature="0" />
	
		<linearGradient
   id="XMLID_12_"
   gradientUnits="userSpaceOnUse"
   x1="1092.4009"
   y1="-48.5938"
   x2="1054.7371"
   y2="-3.4303"
   gradientTransform="rotate(-90,604.49937,516.40052)">
		<stop
   offset="0"
   style="stop-color:#FABD8C"
   id="stop950" />
		<stop
   offset="1"
   style="stop-color:#F8A039"
   id="stop952" />
	</linearGradient>
	<path
   d="m 68.08975,62.369 c 22.445,-4.703 57.112,-5.119 57.112,-5.119 V 45 h -63.003 V 17.9 l -45,45 11.801,11.799 c 0,0 16.641,-7.627 39.09,-12.33 z"
   id="path955"
   style="fill:url(#XMLID_12_)"
   inkscape:connector-curvature="0" />
	
	
	
		<linearGradient
   id="XMLID_13_"
   gradientUnits="userSpaceOnUse"
   x1="476.646"
   y1="-300.0908"
   x2="571.3139"
   y2="-301.7578"
   gradientTransform="matrix(0,-1,-1,0,-180.5975,579.9995)">
		<stop
   offset="0"
   style="stop-color:#D15F00"
   id="stop961" />
		<stop
   offset="1"
   style="stop-color:#D96E00"
   id="stop963" />
	</linearGradient>
	
	
		<linearGradient
   id="XMLID_14_"
   gradientUnits="userSpaceOnUse"
   x1="471.7515"
   y1="-299.0039"
   x2="559.9184"
   y2="-302.5039"
   gradientTransform="rotate(-90,380.2985,199.701)">
		<stop
   offset="0"
   style="stop-color:#ED7C00"
   id="stop968" />
		<stop
   offset="1"
   style="stop-color:#F89000"
   id="stop970" />
	</linearGradient>
	
	
		<linearGradient
   id="XMLID_15_"
   gradientUnits="userSpaceOnUse"
   x1="521.7358"
   y1="-332.8818"
   x2="511.4866"
   y2="-255.8877"
   gradientTransform="rotate(-90,380.2985,199.701)">
		<stop
   offset="0"
   style="stop-color:#ED7C00"
   id="stop975" />
		<stop
   offset="1"
   style="stop-color:#FFB700"
   id="stop977" />
	</linearGradient>
	
	
		<linearGradient
   id="XMLID_16_"
   gradientUnits="userSpaceOnUse"
   x1="561.4272"
   y1="-304.1113"
   x2="493.0883"
   y2="-297.3449"
   gradientTransform="rotate(-90,443.9995,136)">
		<stop
   offset="0"
   style="stop-color:#FABD8C"
   id="stop982" />
		<stop
   offset="1"
   style="stop-color:#F8A039"
   id="stop984" />
	</linearGradient>
	
</svg>