<?xml version="1.0" standalone="no"?>
<!DOCTYPE svg PUBLIC "-//W3C//DTD SVG 20010904//EN"
 "http://www.w3.org/TR/2001/REC-SVG-20010904/DTD/svg10.dtd">
<svg version="1.0" xmlns="http://www.w3.org/2000/svg"
 width="669.000000pt" height="645.000000pt" viewBox="0 0 669.000000 645.000000"
 preserveAspectRatio="xMidYMid meet">

<g transform="translate(0.000000,645.000000) scale(0.100000,-0.100000)"
fill="#000000" stroke="none">
<path d="M2965 6400 c11 -18 -18 -32 -68 -34 -30 0 -53 -4 -51 -8 5 -7 -16 -5
-31 3 -21 11 -120 4 -120 -9 0 -17 -25 -31 -43 -24 -11 4 -13 2 -7 -9 8 -12 6
-12 -9 0 -9 8 -16 10 -14 5 2 -5 -1 -9 -7 -9 -5 0 -9 3 -8 6 1 3 -4 6 -12 6
-8 0 -12 -8 -10 -20 4 -15 2 -17 -10 -7 -8 7 -13 16 -10 19 2 4 -2 8 -10 8 -8
0 -13 -4 -12 -8 1 -4 -2 -7 -8 -7 -5 0 -9 4 -7 10 1 5 -2 7 -8 3 -5 -3 -10
-12 -10 -19 0 -8 -8 -20 -17 -27 -9 -8 -14 -9 -10 -3 3 6 0 11 -8 11 -8 0 -12
-8 -10 -20 4 -15 2 -17 -10 -7 -8 7 -12 17 -8 24 4 6 -1 5 -10 -3 -9 -7 -14
-18 -10 -25 4 -6 -1 -5 -10 3 -9 7 -15 17 -12 20 2 4 -2 8 -10 8 -8 0 -12 -8
-10 -20 4 -15 2 -17 -10 -7 -12 10 -15 9 -15 -4 0 -9 -7 -17 -15 -17 -24 -2
-29 -4 -44 -13 -9 -6 -12 -5 -7 2 3 6 1 14 -6 18 -7 4 -10 4 -6 -1 4 -4 3 -14
-3 -22 -10 -11 -15 -11 -27 -1 -11 9 -14 10 -9 1 9 -15 -22 -33 -55 -33 -13 0
-30 -6 -37 -12 -11 -11 -12 -10 -6 2 4 8 -2 5 -14 -8 -12 -12 -26 -20 -31 -17
-5 3 -12 0 -16 -6 -4 -7 -3 -9 4 -5 6 3 13 2 16 -2 4 -7 -44 -9 -51 -2 -15 13
-57 -5 -48 -20 3 -5 0 -12 -7 -17 -17 -10 -39 -13 -34 -4 3 4 -6 7 -19 7 -14
0 -22 -2 -20 -5 3 -2 -3 -14 -12 -25 -13 -15 -14 -17 -2 -8 12 9 16 9 16 -1 0
-7 -11 -13 -23 -13 -12 0 -21 3 -19 6 12 19 -28 3 -47 -19 -19 -21 -20 -23 -3
-11 16 11 18 11 8 0 -13 -14 -47 -24 -39 -11 3 4 -6 7 -19 7 -17 0 -22 -5 -19
-19 3 -15 1 -17 -11 -7 -12 10 -13 8 -10 -7 2 -12 -2 -20 -10 -20 -8 0 -12 3
-10 7 2 4 -2 7 -10 7 -8 0 -14 -3 -13 -6 2 -21 -5 -31 -21 -31 -11 0 -23 -5
-26 -10 -4 -6 -11 -8 -16 -5 -5 4 -9 -3 -9 -14 0 -14 -9 -23 -27 -27 -16 -4
-30 -10 -33 -13 -3 -3 -14 -11 -25 -18 -11 -6 -19 -17 -17 -24 3 -10 0 -10
-12 0 -13 11 -15 10 -11 -8 2 -12 -1 -20 -8 -18 -7 1 -11 -4 -9 -12 3 -12 0
-12 -12 -2 -11 10 -16 9 -23 -4 -5 -9 -18 -18 -29 -19 -10 -2 -18 -9 -16 -17
3 -10 0 -10 -12 0 -13 11 -15 10 -11 -8 2 -12 -1 -20 -8 -18 -7 1 -11 -4 -9
-12 3 -12 0 -12 -12 -2 -13 11 -15 9 -11 -9 3 -18 2 -20 -10 -10 -12 10 -13 8
-10 -7 2 -12 -2 -20 -10 -20 -8 0 -11 5 -8 11 4 6 -12 -8 -34 -31 -23 -24 -49
-43 -58 -43 -9 0 -19 -9 -22 -20 -3 -11 -12 -20 -20 -20 -9 0 -11 -5 -7 -12 5
-8 2 -8 -10 1 -15 12 -17 12 -14 0 2 -8 -2 -13 -9 -12 -7 2 -10 -6 -8 -18 3
-17 2 -19 -10 -9 -12 10 -13 8 -10 -10 3 -18 2 -20 -10 -10 -12 10 -13 8 -10
-10 3 -18 2 -20 -10 -10 -12 10 -13 8 -10 -10 3 -18 2 -20 -10 -10 -12 10 -13
8 -10 -10 3 -18 2 -20 -10 -10 -12 10 -13 8 -10 -10 3 -18 2 -20 -10 -10 -12
10 -13 8 -10 -10 3 -18 2 -20 -10 -10 -12 10 -13 8 -10 -8 3 -19 -20 -50 -34
-44 -3 1 -7 -2 -7 -8 -1 -5 -2 -14 -3 -20 0 -5 -8 -10 -16 -10 -8 0 -15 -7
-15 -15 0 -8 -11 -22 -24 -30 -16 -11 -23 -23 -21 -37 3 -16 2 -18 -10 -8 -12
10 -13 8 -10 -10 3 -18 2 -20 -10 -10 -12 10 -13 8 -10 -9 2 -12 -1 -20 -8
-18 -7 1 -11 -4 -9 -12 3 -12 1 -12 -14 0 -10 8 -15 9 -11 2 4 -6 3 -14 -3
-18 -5 -3 -10 -14 -10 -25 0 -10 -7 -20 -15 -23 -8 -4 -12 -15 -10 -26 2 -12
-1 -20 -8 -18 -7 1 -11 -4 -9 -12 3 -12 0 -12 -12 -2 -13 11 -15 10 -11 -8 2
-11 1 -20 -3 -18 -4 1 -8 -2 -10 -8 -2 -5 -9 -17 -17 -25 -7 -8 -16 -25 -19
-37 -4 -11 -14 -24 -22 -27 -8 -3 -12 -11 -9 -16 4 -6 1 -9 -7 -8 -7 2 -12 -4
-10 -14 3 -16 -30 -43 -41 -32 -2 3 -3 -9 -2 -26 2 -23 0 -28 -10 -20 -9 7
-11 1 -10 -30 1 -21 -2 -37 -6 -34 -4 2 -6 13 -4 24 2 11 0 22 -4 24 -4 3 -7
-13 -6 -34 2 -32 -1 -38 -11 -29 -10 8 -12 6 -9 -10 2 -12 -1 -20 -8 -18 -6 1
-11 -7 -12 -19 0 -11 -7 -29 -15 -40 -14 -18 -14 -18 5 -4 19 14 19 14 6 -3
-9 -12 -17 -14 -25 -8 -9 7 -12 3 -12 -14 0 -13 3 -22 7 -19 4 2 11 0 14 -6 4
-6 1 -9 -6 -8 -7 2 -13 -2 -14 -9 0 -7 -6 -18 -14 -25 -12 -11 -13 -10 -6 2 8
13 7 13 -8 1 -13 -10 -14 -17 -7 -26 7 -9 7 -15 1 -19 -5 -4 -8 -15 -6 -26 2
-12 0 -18 -6 -15 -5 4 -9 -3 -9 -13 0 -11 -6 -22 -14 -25 -9 -4 -13 -17 -11
-38 2 -22 -4 -39 -19 -54 -13 -13 -21 -33 -21 -48 2 -22 -1 -25 -12 -16 -11 9
-12 8 -7 -5 3 -9 10 -16 14 -16 5 0 3 -11 -3 -25 -7 -14 -17 -25 -23 -25 -6 0
-10 -23 -9 -59 1 -33 -2 -58 -6 -55 -4 2 -6 13 -4 24 2 12 0 18 -5 15 -4 -3
-6 -18 -4 -34 5 -28 -7 -45 -31 -46 -6 0 -10 -33 -10 -78 0 -57 -4 -80 -15
-87 -8 -5 -17 -7 -20 -5 -3 2 -5 -57 -5 -131 0 -107 -3 -137 -15 -144 -8 -5
-17 -7 -20 -5 -3 2 -5 -157 -5 -353 0 -265 3 -357 12 -357 24 0 28 -20 28
-138 0 -86 4 -122 12 -122 23 0 28 -18 28 -96 0 -45 4 -79 10 -80 20 -2 36
-23 31 -41 -3 -15 -2 -17 9 -8 18 15 14 -12 -5 -35 -11 -14 -11 -16 1 -13 10
2 14 -6 13 -29 0 -19 4 -33 11 -33 18 0 37 -48 22 -53 -9 -3 -9 -7 -1 -18 6
-8 10 -22 9 -31 -2 -10 2 -18 9 -18 17 0 33 -38 31 -73 -1 -18 4 -31 17 -38
10 -5 16 -15 12 -20 -3 -6 5 -22 17 -36 14 -14 18 -23 10 -21 -9 2 -15 -6 -16
-23 -2 -27 8 -31 35 -15 8 5 12 5 7 1 -4 -5 1 -17 10 -27 12 -14 13 -19 4 -16
-9 2 -15 -7 -16 -25 -1 -15 0 -25 3 -22 3 3 15 -3 26 -12 16 -13 14 -10 -4 12
l-25 30 26 -23 c14 -12 28 -20 31 -17 2 3 5 -2 5 -9 0 -8 -5 -14 -10 -13 -6 1
-11 -10 -12 -26 -1 -15 0 -25 3 -22 3 3 15 -3 26 -12 17 -14 16 -13 -2 9 -17
19 -20 28 -11 33 7 5 10 4 6 -2 -4 -6 4 -20 17 -32 17 -16 22 -31 21 -61 -1
-26 2 -37 9 -32 22 13 32 9 32 -14 0 -12 -4 -20 -8 -18 -5 3 -6 9 -3 14 3 5 2
11 -3 14 -4 2 -8 -6 -8 -19 0 -13 2 -23 6 -23 34 3 41 -3 36 -32 -2 -17 0 -28
5 -24 5 3 6 11 3 17 -4 7 -3 8 2 4 5 -5 9 -12 9 -16 0 -4 8 -15 17 -25 10 -10
18 -23 18 -30 0 -7 11 -23 24 -35 15 -14 23 -31 21 -43 -3 -15 -1 -17 9 -9 10
8 16 8 24 -1 17 -21 18 -24 3 -42 -8 -9 -10 -16 -5 -15 23 4 34 -3 34 -20 0
-11 5 -23 10 -26 6 -4 7 -12 3 -18 -4 -7 0 -7 10 1 14 12 16 11 12 -8 -3 -18
-2 -20 10 -10 12 10 13 8 10 -10 -3 -18 -2 -20 10 -10 12 10 13 8 10 -10 -3
-18 -2 -20 10 -10 12 10 13 8 10 -10 -3 -15 3 -23 20 -30 15 -6 25 -17 25 -30
0 -11 7 -20 15 -20 8 0 17 -11 21 -25 3 -14 10 -23 14 -20 12 7 28 -18 25 -38
-3 -14 -1 -16 10 -7 12 10 13 8 10 -10 -3 -18 -2 -20 10 -10 12 10 13 8 10
-10 -3 -18 -2 -20 10 -10 12 10 13 8 10 -10 -3 -18 -2 -20 10 -10 12 10 13 8
10 -10 -3 -18 -2 -20 10 -10 12 10 13 8 10 -10 -3 -18 -2 -20 10 -10 12 10 13
8 10 -10 -3 -18 -2 -20 10 -10 12 10 13 8 10 -10 -3 -18 -2 -20 10 -10 12 10
13 8 10 -10 -4 -19 -2 -20 12 -8 12 9 15 9 9 1 -4 -8 -1 -13 8 -13 9 0 16 -7
16 -16 0 -8 4 -13 9 -10 5 3 20 -5 32 -19 13 -13 30 -25 37 -25 7 0 17 -12 22
-26 8 -20 13 -24 24 -15 17 14 35 -5 31 -32 -3 -14 0 -16 9 -7 17 13 35 -7 31
-33 -3 -13 0 -15 9 -8 15 13 70 -34 60 -51 -4 -7 -2 -8 5 -4 6 4 9 11 6 16 -3
4 1 7 7 6 25 -3 37 -17 33 -37 -3 -16 -1 -18 9 -10 10 8 17 7 27 -6 8 -9 9
-14 2 -10 -6 4 -15 2 -19 -4 -4 -7 -3 -9 3 -6 5 3 22 -1 37 -9 16 -7 33 -14
40 -14 6 0 22 -10 36 -23 14 -12 21 -19 15 -15 -7 5 -12 2 -12 -6 0 -9 9 -12
29 -9 27 4 34 -5 29 -39 -1 -9 27 -4 36 7 4 4 3 5 -3 2 -6 -3 -11 1 -11 9 0
10 12 3 34 -18 35 -34 46 -53 14 -24 -13 12 -21 14 -26 6 -4 -6 -1 -9 7 -8 7
2 12 -2 11 -8 -1 -5 9 -10 22 -10 13 0 22 3 20 6 -2 3 7 6 20 6 14 0 22 -2 20
-5 -3 -2 3 -14 12 -25 13 -15 10 -14 -12 4 -22 18 -25 19 -12 4 9 -11 15 -23
12 -25 -2 -3 6 -5 20 -5 13 0 22 3 20 6 -12 19 28 3 47 -19 13 -14 16 -20 7
-13 -12 9 -16 9 -16 -2 0 -8 10 -12 26 -10 14 1 26 3 26 4 0 1 8 3 18 5 11 2
16 1 13 -2 -3 -4 2 -16 11 -27 13 -15 14 -17 2 -8 -12 9 -16 9 -16 -2 0 -13
34 -16 53 -3 7 4 17 0 24 -8 6 -7 18 -11 25 -9 7 3 19 -4 25 -16 10 -18 14
-19 28 -8 12 10 14 10 8 1 -5 -9 0 -13 18 -13 35 0 56 -10 56 -26 0 -8 7 -14
16 -14 8 0 13 4 10 8 -3 5 1 9 9 9 8 0 13 -5 12 -11 -1 -6 4 -10 12 -8 26 6
61 -8 61 -23 0 -8 7 -15 16 -15 9 0 12 -5 8 -12 -6 -11 -4 -11 7 0 17 15 43
16 33 0 -4 -7 -3 -8 5 -4 9 6 9 11 1 21 -10 12 -7 12 13 2 14 -6 23 -16 19
-22 -3 -5 1 -4 9 2 17 14 39 0 39 -23 0 -7 8 -10 20 -7 11 3 18 9 15 13 -3 5
6 3 19 -3 13 -7 22 -16 19 -22 -3 -5 0 -4 8 3 15 14 43 16 34 3 -3 -6 5 -8 18
-5 23 4 73 -27 62 -38 -3 -3 6 -4 19 -4 14 1 28 5 32 9 10 9 36 9 31 0 -3 -5
33 -8 80 -8 61 -1 87 -5 93 -15 5 -8 7 -17 5 -20 -2 -3 157 -5 353 -5 328 0
357 1 360 17 4 20 80 40 99 26 7 -5 14 -5 18 2 3 5 13 10 21 10 8 0 13 -4 10
-8 -6 -11 40 -9 50 1 10 10 36 9 30 -1 -2 -4 6 -8 19 -8 16 0 22 5 20 17 -4
22 38 42 55 26 10 -9 11 -9 6 1 -5 7 -1 12 9 12 9 0 14 -4 11 -9 -4 -5 5 -4
18 2 13 7 22 15 20 18 -2 4 7 2 20 -4 13 -7 22 -16 18 -22 -3 -5 2 -4 11 4 9
7 17 20 17 28 0 10 8 13 30 9 16 -2 33 1 36 6 4 6 3 8 -3 5 -5 -3 -10 0 -10 7
0 9 6 10 23 2 12 -6 20 -14 18 -17 -2 -4 7 -2 20 4 13 7 22 15 20 19 -7 11 34
29 59 26 12 -2 21 2 20 8 -1 6 4 11 12 11 8 0 12 -4 10 -8 -3 -4 2 -6 11 -5 9
1 20 10 26 19 5 10 21 17 39 17 17 0 28 4 25 8 -3 5 1 9 9 9 8 0 12 -3 10 -7
-2 -4 2 -7 10 -7 8 0 12 4 9 8 -5 8 14 23 31 24 6 1 9 6 8 12 -1 6 5 10 15 8
9 -2 17 -4 17 -5 0 -1 12 -3 28 -4 15 -2 25 -1 22 2 -3 3 3 15 12 26 15 18 14
18 -8 -2 -19 -16 -26 -18 -26 -8 0 8 5 14 11 13 6 -1 10 3 9 8 -1 6 9 11 22
11 13 0 22 -3 20 -6 -2 -3 7 -6 20 -6 14 0 22 2 20 5 -3 2 3 14 12 25 13 15
14 17 2 8 -12 -9 -16 -9 -16 1 0 7 11 13 23 13 12 0 21 -3 19 -6 -2 -3 7 -6
20 -6 14 0 22 2 20 5 -3 2 3 14 12 25 13 15 14 17 2 8 -12 -9 -16 -9 -16 1 0
7 11 13 23 13 12 0 21 -3 19 -6 -2 -3 7 -6 20 -6 17 0 22 5 19 19 -3 15 -1 17
11 7 12 -10 13 -8 10 7 -2 12 2 20 10 20 8 0 12 -3 10 -7 -2 -4 2 -7 10 -7 7
0 12 8 10 18 -4 20 15 30 45 24 11 -2 18 0 15 6 -4 5 -10 7 -14 5 -4 -3 -8 2
-8 10 0 10 4 11 11 4 14 -14 26 -12 26 5 0 8 12 18 28 21 15 4 30 11 33 16 3
5 15 10 26 11 11 0 20 7 20 14 0 8 -4 10 -12 3 -8 -7 -12 -5 -12 4 0 14 14 16
34 3 8 -5 11 -1 8 14 -3 17 -2 19 10 9 12 -10 13 -8 10 7 -2 12 2 20 10 20 8
0 12 -3 10 -7 -2 -4 2 -7 10 -7 8 0 12 4 9 8 -4 7 14 24 28 24 3 0 10 4 15 9
4 5 3 6 -4 2 -6 -3 -14 -2 -17 3 -7 11 13 9 32 -3 8 -5 12 -3 10 6 -2 7 2 12
9 11 7 -2 10 6 8 18 -4 18 -2 19 11 8 12 -10 15 -10 12 2 -2 8 2 13 9 12 6 -2
10 5 8 16 -2 10 3 18 10 18 8 0 12 -3 10 -7 -2 -4 2 -7 10 -7 8 0 12 4 9 8 -7
11 46 59 79 72 9 3 17 13 17 22 0 8 7 15 16 15 9 0 12 5 8 13 -5 7 0 6 11 -3
10 -8 16 -10 12 -3 -4 6 -1 18 7 26 8 8 12 18 8 23 -4 5 2 2 12 -6 13 -10 17
-10 12 -2 -6 10 9 17 35 14 3 -1 6 6 6 13 0 10 -4 12 -12 5 -8 -7 -12 -5 -12
3 0 11 11 15 53 19 6 1 11 7 11 15 0 8 -4 10 -12 3 -8 -7 -12 -5 -12 5 0 7 3
14 6 13 20 -2 31 4 31 16 0 8 7 16 15 20 8 3 15 12 15 21 0 8 7 15 15 15 9 0
18 8 22 17 6 18 19 35 59 76 12 12 20 30 18 40 -2 15 0 16 12 6 12 -10 15 -10
12 2 -2 8 2 13 9 12 7 -2 10 6 8 18 -4 18 -2 19 11 8 12 -10 15 -10 12 2 -2 8
3 13 10 11 8 -1 11 2 8 7 -4 5 -2 12 4 16 5 3 10 15 10 26 0 10 5 20 10 20 6
1 14 2 19 3 5 0 13 5 18 9 4 5 2 7 -6 5 -7 -2 -15 5 -16 15 -3 14 -1 16 10 7
12 -10 13 -8 10 10 -3 18 -2 20 10 10 12 -10 13 -8 10 10 -3 18 -2 20 10 10
12 -10 13 -8 10 10 -2 12 2 23 11 27 8 3 13 12 10 20 -3 8 -1 11 4 8 6 -3 10
0 10 8 0 8 6 20 14 26 8 7 13 21 11 32 -2 11 0 17 6 14 5 -4 7 -10 4 -15 -3
-5 -1 -11 4 -15 6 -3 8 3 6 15 -2 11 2 26 10 34 8 7 11 17 7 22 -4 5 1 3 10
-4 14 -11 16 -11 14 1 -1 8 -8 22 -15 31 -11 13 -10 15 8 11 11 -2 23 1 26 6
4 5 10 7 14 5 13 -8 7 40 -7 57 -10 12 -9 14 10 13 18 -1 23 4 22 21 -1 13 3
20 7 17 5 -3 7 -9 4 -14 -3 -5 -1 -11 3 -14 14 -9 8 40 -8 58 -11 15 -11 17 1
14 8 -2 13 2 12 9 -2 12 14 12 33 1 7 -5 10 9 9 42 -1 27 2 47 5 45 4 -3 15 4
25 15 10 11 15 20 10 20 -4 0 -1 8 6 17 8 9 9 14 3 10 -6 -3 -11 0 -11 8 0 8
4 12 9 9 4 -3 8 1 8 9 0 8 9 22 20 32 16 15 18 21 7 33 -10 13 -9 14 2 8 10
-7 12 -4 7 12 -8 24 28 67 46 56 7 -4 8 -3 4 5 -4 6 -11 9 -15 7 -4 -3 -7 6
-7 19 0 13 4 21 8 19 5 -3 5 -11 2 -17 -4 -7 -3 -8 2 -4 4 4 7 23 5 42 -2 25
3 36 17 44 11 6 21 8 24 6 2 -2 3 21 3 53 -2 66 7 97 26 97 10 0 14 16 14 57
1 31 -2 55 -5 53 -4 -2 -6 -27 -5 -54 1 -28 -1 -48 -5 -46 -10 6 -5 91 6 106
6 8 14 26 18 41 3 16 11 27 18 25 8 -1 12 34 13 117 2 103 5 121 21 133 17 12
30 68 13 57 -4 -2 -11 0 -14 6 -4 6 -1 9 5 8 7 -2 14 5 15 15 2 9 -1 15 -5 12
-5 -3 -12 -1 -15 5 -4 6 -1 9 5 8 7 -2 14 5 15 15 2 9 -1 15 -5 12 -5 -3 -12
-1 -15 5 -4 6 -1 9 5 8 7 -2 14 5 15 15 2 9 -1 15 -5 12 -5 -3 -12 -1 -15 5
-4 6 -1 9 5 8 7 -2 14 5 15 15 2 9 -1 15 -5 12 -5 -3 -12 -1 -15 5 -4 6 -1 9
5 8 7 -2 14 5 15 15 2 9 -1 15 -5 12 -5 -3 -12 -1 -15 5 -4 6 -1 9 5 8 7 -2
14 5 15 15 2 9 -1 15 -5 12 -5 -3 -12 -1 -15 5 -4 6 -1 9 5 8 7 -2 14 5 15 15
2 9 -1 15 -5 12 -5 -3 -12 -1 -15 5 -4 6 -1 9 5 8 7 -2 14 5 15 15 2 9 -1 15
-5 12 -5 -3 -12 -1 -15 5 -4 6 -1 9 5 8 7 -2 14 5 15 15 2 9 -1 15 -5 12 -5
-3 -12 -1 -15 5 -4 6 -1 9 5 8 7 -2 14 5 15 15 2 9 -1 15 -5 12 -5 -3 -12 -1
-15 5 -4 6 -1 9 5 8 7 -2 14 5 15 15 2 9 -1 15 -5 12 -5 -3 -12 -1 -15 5 -4 6
-1 9 5 8 7 -2 14 5 15 15 2 9 -1 15 -5 12 -5 -3 -12 -1 -15 5 -4 6 -1 9 5 8 7
-2 14 5 15 15 2 9 -1 15 -5 12 -5 -3 -12 -1 -15 5 -4 6 -1 9 5 8 7 -2 14 5 15
15 2 9 -1 15 -5 12 -5 -3 -12 -1 -15 5 -4 6 -1 9 5 8 7 -2 14 5 15 15 2 9 -1
15 -5 12 -5 -3 -12 -1 -15 5 -4 6 -1 9 5 8 7 -2 14 5 15 15 2 9 -1 15 -5 12
-5 -3 -12 -1 -15 5 -4 6 -3 10 2 9 24 -4 25 3 4 20 -23 17 -24 24 -25 145 -1
113 -3 126 -18 126 -11 0 -18 8 -18 19 0 10 -6 23 -13 29 -13 11 -17 95 -6
106 3 3 5 -17 4 -45 -1 -27 1 -52 5 -54 3 -2 6 22 5 53 0 41 -4 57 -14 57 -19
0 -28 31 -26 97 0 32 -1 55 -3 53 -3 -2 -13 0 -24 6 -16 9 -19 18 -15 56 4 38
1 47 -19 60 -13 8 -26 23 -29 33 -12 36 -14 60 -5 55 5 -3 12 0 16 7 4 7 3 10
-1 5 -11 -9 -45 21 -45 40 0 8 -4 12 -8 9 -5 -3 -9 1 -9 9 0 8 4 12 8 9 4 -2
11 0 14 6 4 6 1 9 -7 8 -9 -2 -13 8 -12 29 0 21 -3 30 -10 25 -26 -16 -32 -8
-31 39 1 38 -1 46 -11 38 -10 -8 -12 -6 -9 11 4 19 2 20 -13 9 -9 -7 -14 -9
-9 -4 4 4 -1 17 -10 27 -12 13 -13 18 -4 16 7 -2 15 5 16 14 2 10 -2 16 -8 15
-7 -1 -11 4 -9 12 3 12 1 12 -15 1 -10 -8 -15 -10 -10 -5 4 4 -1 17 -10 27
-12 13 -13 18 -4 16 7 -2 15 5 16 14 2 10 -2 16 -8 15 -7 -1 -11 4 -9 12 3 12
1 12 -15 1 -10 -8 -15 -10 -10 -5 4 4 -1 18 -10 29 -13 15 -14 17 -2 8 13 -9
16 -9 16 3 0 8 -9 15 -19 15 -18 0 -20 2 -22 43 0 12 -5 22 -11 22 -21 0 -35
17 -35 41 0 14 -4 23 -9 20 -13 -8 -29 16 -26 37 3 14 1 16 -10 7 -12 -10 -13
-8 -10 10 3 18 2 20 -10 10 -12 -10 -13 -8 -10 10 3 18 2 20 -10 10 -11 -9
-13 -7 -10 7 1 10 9 16 16 15 8 -2 10 0 6 5 -5 4 -14 8 -20 8 -12 0 -46 57
-40 68 3 4 -1 6 -9 5 -7 -2 -12 3 -10 11 3 12 0 12 -12 2 -12 -10 -14 -9 -11
6 4 26 -14 46 -31 33 -9 -9 -12 -7 -10 7 2 10 -6 28 -18 40 -51 53 -61 65 -61
71 0 4 -10 18 -22 31 -12 13 -20 27 -18 31 3 4 -3 14 -13 21 -16 13 -16 12 -2
-6 14 -20 14 -20 -7 -1 -13 10 -20 22 -18 26 5 8 -22 35 -34 35 -3 0 -5 4 -3
9 2 5 -4 4 -12 -3 -13 -11 -15 -10 -11 8 2 12 -1 20 -8 18 -7 -1 -11 4 -9 12
3 12 0 12 -12 2 -13 -11 -15 -10 -11 8 2 12 -1 20 -8 18 -7 -1 -11 4 -9 12 3
12 1 12 -14 0 -12 -9 -15 -9 -10 -1 4 7 1 12 -8 12 -9 0 -16 7 -16 15 0 9 -8
19 -17 22 -33 13 -86 61 -79 72 3 4 -1 8 -9 8 -8 0 -12 -3 -10 -7 2 -4 -2 -7
-10 -7 -7 0 -12 8 -10 18 2 11 -2 18 -8 16 -7 -1 -11 4 -9 12 3 12 0 12 -12 2
-13 -11 -15 -10 -11 8 2 12 -1 20 -8 18 -7 -1 -11 4 -9 12 3 12 1 12 -14 0
-12 -9 -15 -10 -10 -1 5 8 -2 15 -18 22 -15 5 -25 14 -24 19 2 5 -1 9 -7 9 -5
0 -9 -3 -8 -7 1 -4 -4 -8 -12 -8 -8 0 -12 8 -10 20 3 15 2 17 -10 7 -12 -10
-13 -8 -10 9 2 12 -1 20 -8 18 -7 -1 -11 4 -9 12 3 12 1 12 -15 1 -10 -8 -15
-11 -11 -6 10 12 -17 36 -40 36 -11 0 -25 7 -32 15 -18 22 -84 50 -530 229
-492 198 -458 186 -452 163 2 -6 -4 -5 -12 2 -9 7 -14 17 -11 20 2 4 -2 8 -10
8 -8 0 -12 -4 -9 -9 4 -5 -3 -4 -15 4 -12 7 -21 16 -21 19 0 17 -165 34 -175
19 -8 -12 -94 14 -97 30 -3 13 -48 15 -360 15 -196 0 -355 -2 -353 -5z m-175
-46 c0 -8 -19 -13 -24 -6 -3 5 1 9 9 9 8 0 15 -2 15 -3z m1040 0 c0 -8 -19
-13 -24 -6 -3 5 1 9 9 9 8 0 15 -2 15 -3z m80 0 c0 -8 -19 -13 -24 -6 -3 5 1
9 9 9 8 0 15 -2 15 -3z m-773 -168 c4 -5 3 -6 -3 -3 -6 3 -11 0 -11 -8 0 -11
4 -12 13 -4 7 6 23 8 35 4 20 -7 19 -9 -22 -48 -41 -38 -44 -45 -44 -94 -1
-37 3 -53 12 -53 8 0 13 -13 13 -36 0 -21 8 -47 20 -61 11 -14 17 -30 13 -37
-4 -7 -2 -7 8 1 13 10 15 8 15 -12 0 -13 -5 -23 -10 -22 -6 1 -10 -4 -8 -12 3
-12 0 -12 -12 -2 -13 11 -17 10 -22 -3 -5 -13 -21 -16 -80 -16 -71 0 -74 1
-80 26 -5 21 -1 31 21 48 27 22 28 27 28 109 0 57 -4 91 -13 102 -7 9 -9 15
-3 13 6 -2 12 1 13 6 0 5 -14 14 -32 20 -46 15 -52 58 -11 78 31 15 147 18
160 4z m423 -6 c8 -13 5 -47 -5 -58 -2 -2 -27 -6 -57 -9 l-54 -5 4 -142 c3
-117 1 -144 -11 -155 -18 -14 -60 -24 -52 -12 2 5 -2 15 -11 22 -13 10 -17 10
-25 -2 -6 -10 -9 -7 -9 14 0 15 5 27 13 27 9 0 12 29 12 114 0 63 -2 113 -4
111 -2 -3 -16 4 -30 14 -15 11 -40 21 -56 23 -26 3 -29 7 -30 38 l-1 36 154
-1 c123 -1 155 -4 162 -15z m-325 -9 c3 -5 2 -12 -3 -15 -5 -3 -9 1 -9 9 0 17
3 19 12 6z m587 -21 c-2 -10 0 -11 11 -2 21 17 34 -4 32 -50 -1 -25 3 -38 11
-38 15 0 27 -68 28 -167 1 -51 5 -73 13 -73 17 0 28 -49 16 -69 -6 -9 -23 -17
-40 -19 -38 -4 -63 23 -66 75 -1 23 -7 40 -14 40 -7 0 -10 -3 -8 -7 2 -4 -2
-7 -10 -7 -8 0 -12 8 -10 20 4 15 2 17 -10 7 -8 -7 -13 -16 -10 -19 2 -4 -2
-8 -10 -8 -8 0 -12 8 -10 20 4 15 2 17 -10 7 -8 -7 -13 -16 -10 -19 2 -4 -2
-8 -10 -8 -7 0 -12 8 -10 19 2 10 0 16 -6 13 -5 -4 -9 -13 -9 -21 0 -9 -13
-28 -28 -44 -54 -53 -119 -7 -78 55 9 14 21 23 26 20 6 -4 10 6 10 22 0 33 14
58 32 58 7 0 12 9 10 21 -1 12 4 27 13 34 8 7 12 17 8 24 -5 8 -3 8 8 -1 12
-9 14 -5 16 25 2 41 28 81 64 99 29 16 55 12 51 -7z m-1152 -41 c0 -12 8 -23
18 -26 20 -5 49 -93 38 -112 -4 -5 -2 -12 4 -16 6 -4 7 -12 3 -18 -11 -18 -12
-38 -2 -31 8 5 54 -82 51 -96 0 -4 10 -6 23 -6 13 0 22 3 19 8 -7 10 50 38 79
38 29 0 47 -17 47 -46 0 -29 -24 -47 -51 -39 -12 4 -19 3 -16 -2 4 -5 0 -10
-8 -10 -8 0 -12 3 -10 7 2 4 -2 7 -10 7 -8 0 -13 -5 -12 -10 2 -13 -66 -35
-109 -36 -39 -1 -53 15 -49 57 2 21 -2 32 -11 32 -17 0 -27 34 -28 102 -1 40
-7 62 -18 70 -21 17 -31 100 -15 120 11 14 31 25 50 27 4 1 7 -8 7 -20z m1494
-45 c-1 -18 2 -19 22 -10 12 6 20 15 16 21 -3 5 2 4 11 -4 18 -14 23 -26 8
-16 -5 3 -12 2 -15 -3 -2 -4 6 -8 19 -8 13 0 21 4 18 9 -3 5 9 1 26 -7 17 -9
30 -20 30 -24 -3 -19 2 -23 17 -12 12 11 15 11 12 -1 -2 -8 2 -13 9 -12 20 4
32 -30 29 -79 -2 -50 -31 -91 -75 -109 -20 -8 -22 -14 -17 -47 4 -20 9 -53 10
-73 2 -20 9 -46 15 -58 11 -20 9 -21 -24 -21 -23 0 -35 5 -35 14 0 7 -8 20
-17 27 -16 12 -17 12 -6 -2 10 -13 10 -16 -1 -16 -9 0 -12 10 -11 29 2 17 -3
32 -10 35 -8 2 -19 26 -25 53 -19 77 -35 84 -65 25 -6 -11 -17 -20 -25 -20
-11 0 -14 -9 -12 -33 4 -32 3 -33 -30 -30 -25 2 -33 8 -33 23 -1 11 -6 19 -11
18 -6 -1 -11 4 -11 12 0 8 4 12 9 9 4 -3 8 11 8 31 0 40 16 79 30 70 5 -3 11
-1 14 4 4 5 1 13 -5 17 -8 5 -9 3 -4 -7 5 -8 4 -10 0 -6 -5 4 -10 15 -11 23
-1 9 0 13 4 10 3 -4 11 8 16 26 6 18 18 33 26 33 11 0 15 13 15 51 0 60 17 86
54 82 19 -2 26 -9 25 -24z m-1703 -1 c12 -15 12 -16 -1 -8 -8 4 -12 4 -7 0 12
-13 36 -15 44 -3 3 6 2 8 -4 5 -5 -3 -10 0 -10 8 0 19 -1 19 28 -11 13 -14 18
-24 10 -22 -7 2 -15 -6 -17 -16 -3 -20 -23 -38 -34 -31 -4 2 -6 -8 -5 -22 0
-17 9 -29 22 -34 19 -7 21 -14 19 -68 -2 -33 0 -60 3 -59 20 2 30 -4 36 -22 3
-11 15 -20 25 -20 50 0 65 -28 32 -58 -10 -10 -13 -14 -7 -10 7 4 12 2 12 -5
0 -8 -13 -13 -33 -13 -18 0 -31 3 -28 7 2 4 -3 6 -12 5 -9 -1 -20 -10 -26 -19
-5 -9 -18 -17 -29 -17 -11 0 -18 -4 -15 -9 9 -13 -19 -7 -38 8 -21 17 -21 47
0 55 16 6 16 34 0 113 -3 13 -1 25 4 28 5 3 7 -4 5 -15 -2 -11 0 -18 5 -15 11
7 6 40 -6 40 -19 0 -32 16 -39 47 -4 18 -7 36 -6 41 0 4 -6 7 -14 7 -8 0 -15
5 -15 10 0 6 -8 10 -19 10 -10 0 -24 7 -31 15 -20 24 28 63 89 71 28 3 48 10
45 15 -9 16 3 10 17 -8z m894 -12 c3 -5 2 -12 -3 -15 -5 -3 -9 1 -9 9 0 17 3
19 12 6z m721 -67 c0 -13 -2 -22 -5 -19 -3 3 -6 17 -7 31 0 13 2 22 5 19 3 -3
6 -17 7 -31z m-1590 -19 c-1 -8 -5 -17 -8 -21 -5 -4 -4 16 1 34 3 9 9 -1 7
-13z m869 6 c3 -5 2 -12 -3 -15 -5 -3 -9 1 -9 9 0 17 3 19 12 6z m-1162 -32
c9 -17 17 -37 17 -45 0 -8 5 -14 11 -14 8 0 7 -6 -2 -17 -8 -10 -9 -14 -2 -10
7 4 21 -2 33 -15 11 -13 16 -24 10 -26 -5 -2 -10 -8 -10 -13 0 -6 6 -7 13 -3
7 5 6 0 -3 -11 -8 -10 -10 -16 -4 -12 18 10 44 -16 46 -46 1 -16 10 -33 19
-38 22 -11 34 -65 19 -83 -12 -15 -27 -16 -49 -2 -9 6 -12 5 -8 -1 3 -5 0 -10
-8 -10 -7 0 -12 8 -10 19 2 10 0 16 -4 13 -14 -8 -33 22 -34 53 -1 24 -6 29
-27 28 -21 -1 -26 -6 -28 -36 -4 -40 -27 -70 -53 -70 -20 0 -42 33 -31 46 4 5
-2 2 -12 -6 -13 -10 -17 -10 -12 -2 11 19 -39 15 -55 -5 -18 -21 -16 -27 13
-34 19 -4 23 -12 23 -45 1 -26 5 -38 13 -36 25 5 24 -29 -2 -54 l-26 -26 -25
23 c-13 13 -25 32 -25 42 0 12 -4 16 -12 11 -9 -5 -8 -2 1 10 13 15 12 18 -7
23 -22 5 -26 14 -23 42 2 8 -2 10 -11 5 -10 -6 -10 -4 1 9 11 15 10 18 -13 27
-14 5 -27 16 -27 25 -1 8 -2 23 -3 33 0 9 -10 22 -21 27 -23 12 -30 85 -8 85
7 0 17 9 23 20 6 12 21 20 35 20 14 0 30 -9 37 -20 7 -11 19 -20 26 -20 7 0
15 -7 19 -15 3 -9 21 -22 40 -30 19 -8 32 -19 29 -24 -9 -13 22 -7 37 8 9 10
9 12 -3 9 -10 -2 -14 8 -15 37 -1 22 -5 47 -9 57 -12 26 -3 73 14 73 8 1 14 7
12 15 -3 11 0 11 15 0 10 -8 15 -11 11 -6 -11 13 10 46 30 46 9 0 25 -14 35
-31z m2194 -34 c0 -8 -4 -12 -9 -9 -5 3 -6 10 -3 15 9 13 12 11 12 -6z m-1032
-14 c3 -5 2 -12 -3 -15 -5 -3 -9 1 -9 9 0 17 3 19 12 6z m-830 -46 c1 -19 -1
-32 -4 -29 -3 3 -6 21 -6 39 -1 19 1 32 4 29 3 -3 6 -21 6 -39z m2262 -26 c6
-6 22 -17 35 -23 12 -7 22 -19 20 -26 -3 -11 0 -11 12 -1 13 11 15 9 11 -9 -3
-18 -2 -20 10 -10 12 10 13 8 10 -10 -3 -18 -2 -20 10 -10 12 10 13 8 10 -10
-4 -19 -2 -20 13 -9 9 7 14 10 10 5 -4 -5 2 -16 13 -25 14 -11 21 -31 23 -69
2 -29 0 -55 -4 -57 -5 -3 -6 -14 -3 -25 3 -12 -4 -27 -21 -43 -14 -13 -26 -32
-26 -41 0 -9 -4 -17 -10 -17 -5 -1 -15 -2 -21 -3 -6 0 -16 -9 -23 -18 -17 -23
-65 -40 -94 -33 -18 4 -22 3 -16 -7 5 -9 2 -8 -10 2 -10 8 -25 15 -33 16 -8 1
-21 11 -30 21 -8 10 -12 13 -9 7 3 -6 -1 -11 -9 -11 -8 0 -12 8 -10 20 4 16 2
17 -13 6 -9 -7 -14 -10 -10 -5 8 10 -23 47 -34 40 -4 -3 -17 -2 -28 1 -16 5
-19 14 -17 45 1 21 5 36 10 33 4 -2 7 3 7 11 0 9 7 16 16 16 8 0 13 3 11 8 -8
13 12 52 27 52 10 0 13 7 11 20 -2 11 0 18 5 15 5 -3 11 -1 15 5 4 6 10 8 14
5 5 -2 7 9 6 25 -2 18 5 37 19 52 11 12 20 26 19 30 -2 5 3 7 10 6 6 -2 11 3
9 11 -3 12 -1 12 13 1 9 -7 15 -9 14 -4 -5 26 17 34 38 13z m-1122 -242 c28
-8 86 -20 130 -26 108 -13 312 -77 480 -149 58 -25 255 -134 342 -190 209
-133 432 -339 573 -527 16 -22 36 -47 43 -55 8 -8 20 -26 27 -40 7 -14 21 -34
31 -45 18 -21 169 -281 169 -293 0 -4 7 -20 15 -36 24 -46 65 -147 80 -196 7
-25 25 -77 39 -116 14 -38 33 -112 41 -163 9 -52 20 -104 25 -117 5 -12 14
-80 21 -151 12 -132 5 -495 -11 -583 -35 -194 -82 -383 -100 -405 -4 -5 -13
-30 -19 -55 -15 -56 -22 -72 -106 -241 -142 -287 -287 -481 -534 -711 -92 -85
-285 -232 -351 -266 -14 -7 -43 -24 -65 -37 -48 -29 -243 -125 -253 -125 -4 0
-23 -8 -42 -19 -19 -10 -51 -22 -70 -26 -19 -4 -48 -13 -65 -20 -65 -27 -152
-54 -195 -60 -25 -4 -81 -15 -125 -25 -170 -41 -689 -44 -815 -6 -25 8 -79 19
-120 25 -69 11 -154 34 -240 66 -159 59 -215 82 -279 116 -41 21 -79 39 -84
39 -6 0 -18 6 -26 14 -9 7 -43 28 -75 45 -33 18 -69 40 -81 49 -13 9 -33 24
-45 32 -114 77 -207 156 -330 280 -80 81 -152 156 -160 166 -37 45 -110 145
-110 151 0 4 -7 13 -15 22 -27 28 -105 152 -111 177 -3 13 -10 26 -14 29 -11
7 -107 203 -115 235 -4 14 -15 44 -26 67 -10 24 -19 49 -19 56 0 7 -4 17 -9
23 -15 15 -63 196 -80 299 -5 33 -15 83 -22 110 -18 70 -18 614 0 670 7 22 21
87 31 145 17 96 28 138 75 285 17 50 45 124 71 180 7 17 20 46 29 65 8 19 35
71 60 115 24 44 50 91 57 105 7 14 29 48 50 77 21 29 38 55 38 58 0 14 170
211 263 305 109 110 175 169 248 219 24 17 62 44 84 60 58 43 203 133 245 151
14 6 61 29 105 50 44 21 91 42 105 45 14 4 34 13 45 19 11 7 61 25 110 40 50
15 115 36 145 46 30 10 89 21 130 25 41 4 83 11 92 16 59 31 616 36 713 6z
m-2201 -69 c-3 -4 4 -8 15 -8 19 0 26 -11 22 -33 -1 -5 4 -5 11 -1 19 12 39
14 32 3 -3 -5 -11 -6 -17 -3 -7 4 -10 5 -7 1 3 -3 8 -6 13 -6 4 0 20 -7 36
-15 16 -9 31 -13 33 -11 8 8 60 -44 54 -54 -3 -4 6 -6 19 -3 31 6 55 -13 50
-40 -3 -14 -1 -17 8 -11 7 5 18 8 25 7 6 -1 17 -2 23 -3 6 0 9 -13 7 -28 -2
-20 -9 -29 -26 -31 -12 -2 -20 -7 -18 -11 3 -4 -1 -8 -9 -8 -8 0 -12 4 -9 9 3
4 0 8 -5 8 -6 0 -11 -5 -11 -10 0 -7 -6 -7 -19 0 -33 17 -72 12 -78 -10 -3
-11 -11 -20 -18 -20 -9 0 -13 -18 -13 -57 -1 -32 -1 -64 -1 -70 -1 -7 -10 -13
-21 -13 -11 0 -23 -7 -26 -15 -4 -8 -12 -15 -20 -15 -8 0 -14 -8 -14 -18 0
-10 -17 -36 -37 -58 -20 -21 -36 -43 -35 -47 1 -5 -2 -6 -7 -3 -5 4 -19 -7
-31 -24 -25 -34 -32 -36 -55 -14 -12 13 -13 19 -5 24 7 4 13 22 15 39 1 17 -1
28 -6 26 -4 -3 -6 -14 -4 -25 2 -12 0 -18 -4 -15 -5 2 -7 18 -6 35 2 24 0 28
-11 19 -10 -8 -12 -6 -9 11 3 18 2 20 -10 10 -12 -10 -13 -8 -10 9 2 12 -1 20
-8 18 -7 -1 -11 4 -9 12 3 12 0 12 -12 2 -13 -11 -15 -10 -11 8 2 12 -1 20 -8
18 -7 -1 -11 4 -9 12 3 12 0 12 -12 2 -13 -11 -15 -10 -11 8 2 12 -1 20 -8 18
-7 -1 -11 4 -9 12 2 11 0 12 -11 3 -8 -7 -17 -9 -21 -5 -9 9 -57 12 -51 3 2
-4 -2 -7 -8 -7 -7 0 -13 11 -13 23 0 12 4 20 8 18 4 -3 8 0 8 6 0 12 7 22 62
81 27 29 44 39 60 37 20 -3 23 -10 26 -50 3 -43 9 -53 65 -110 34 -34 66 -61
72 -59 5 1 2 -6 -8 -16 -16 -19 -16 -19 16 -18 17 0 42 6 54 13 12 7 28 12 36
12 20 0 41 26 27 35 -6 3 -8 10 -5 15 3 5 -4 14 -15 20 -11 6 -18 15 -14 21 3
5 1 15 -4 22 -5 7 -8 20 -7 30 2 9 -1 15 -5 12 -16 -10 -42 43 -38 75 3 20 0
30 -8 30 -7 0 -16 6 -21 13 -7 12 -13 140 -5 132 6 -5 42 28 37 35 -2 3 7 6
20 6 13 0 21 -4 19 -8z m3757 -2 c9 -4 26 -20 38 -37 l22 -30 -23 -20 c-13
-10 -17 -18 -9 -17 10 2 15 -8 16 -34 1 -20 -2 -35 -6 -32 -4 2 -6 13 -4 24 2
12 0 18 -5 15 -5 -3 -7 -14 -5 -25 4 -21 -21 -54 -35 -45 -11 7 -7 -22 5 -32
4 -4 5 -3 1 4 -3 6 -3 14 2 17 4 2 8 -6 8 -19 0 -13 -3 -22 -7 -19 -4 2 -10
-12 -13 -31 -4 -19 -11 -35 -17 -35 -6 0 -7 -6 -3 -12 6 -10 5 -10 -7 -1 -13
11 -15 6 -15 -30 1 -33 -3 -44 -21 -53 -13 -6 -20 -13 -17 -16 3 -3 1 -9 -5
-13 -6 -3 -15 5 -21 19 -5 14 -16 26 -25 26 -20 0 -19 17 3 29 9 6 13 11 8 11
-5 0 -1 9 10 21 14 15 15 20 4 17 -8 -2 -14 2 -13 9 1 6 -5 17 -14 25 -12 9
-15 9 -9 1 12 -21 1 -15 -25 14 -18 20 -19 24 -4 13 18 -14 19 -14 7 2 -13 16
-68 18 -139 4 -14 -3 -22 0 -20 7 1 7 -3 11 -9 10 -12 -2 -13 35 -1 54 9 15
73 46 94 46 8 0 22 11 30 24 8 13 24 23 35 23 13 0 17 4 12 13 -5 7 0 6 11 -3
10 -8 16 -10 12 -4 -8 14 22 42 50 47 12 1 28 8 35 15 8 6 17 9 20 6 3 -3 9 0
14 7 4 7 3 10 -4 5 -6 -3 -13 -2 -16 2 -6 10 31 9 55 -2z m374 -55 c3 -5 2
-12 -3 -15 -5 -3 -9 1 -9 9 0 17 3 19 12 6z m-4220 -20 c3 -5 2 -12 -3 -15 -5
-3 -9 1 -9 9 0 17 3 19 12 6z m3615 -37 c0 -8 -19 -13 -24 -6 -3 5 1 9 9 9 8
0 15 -2 15 -3z m197 -249 c0 -8 -4 -12 -9 -9 -5 3 -6 10 -3 15 9 13 12 11 12
-6z m450 -58 c6 -4 10 -17 8 -28 -3 -16 -1 -18 9 -10 10 8 16 8 25 -3 9 -11 9
-16 0 -22 -8 -5 -9 -3 -4 6 5 9 4 11 -4 6 -6 -4 -9 -12 -5 -17 3 -5 9 -7 13
-4 12 7 42 -30 44 -54 1 -11 7 -21 14 -21 16 0 27 -42 19 -68 -4 -11 -16 -22
-26 -25 -11 -3 -20 -12 -20 -21 0 -9 -12 -18 -27 -22 -36 -9 -53 -22 -64 -51
-5 -13 -14 -22 -20 -21 -6 2 -13 -8 -15 -22 -6 -32 -20 -40 -76 -40 -43 0 -52
4 -88 40 -23 23 -38 45 -35 50 4 6 0 10 -8 10 -13 0 -31 34 -28 53 1 5 -3 6
-8 3 -12 -8 -41 21 -41 40 0 29 20 53 41 49 13 -3 22 3 27 15 7 19 75 70 93
70 6 0 7 5 3 12 -5 7 -3 8 7 2 27 -16 36 -12 34 16 -2 28 7 32 34 16 10 -6 12
-5 7 2 -18 29 56 61 91 39z m-4600 -42 c4 -4 2 -5 -6 0 -9 5 -12 4 -8 -3 4 -5
16 -8 27 -5 12 3 20 0 20 -8 0 -17 -40 -59 -56 -59 -7 0 -19 -12 -26 -27 -7
-16 -20 -28 -28 -28 -10 0 -15 -10 -15 -30 1 -18 6 -29 13 -27 7 1 20 -11 30
-28 9 -16 25 -33 35 -36 10 -3 22 -16 27 -28 4 -13 15 -23 24 -23 8 0 13 3 11
7 -2 3 12 6 30 6 18 0 32 -3 30 -6 -2 -4 3 -7 12 -7 9 0 18 9 21 19 2 10 10
18 17 18 8 0 12 11 10 30 -1 16 1 27 6 24 5 -3 6 -11 3 -17 -4 -7 -3 -8 1 -4
5 4 8 25 6 46 -2 38 11 62 24 41 4 -6 10 -8 15 -5 4 3 13 -2 20 -10 7 -8 15
-13 19 -11 4 3 7 -11 7 -29 0 -18 -4 -32 -8 -29 -4 2 -5 13 -3 23 2 11 -6 27
-18 38 -21 17 -21 17 -7 0 19 -26 22 -103 4 -118 -7 -6 -11 -16 -7 -23 4 -6
-1 -5 -10 2 -14 12 -16 11 -12 -8 3 -18 2 -20 -10 -10 -12 10 -13 8 -10 -9 4
-24 -24 -44 -58 -39 -15 2 -21 -2 -19 -11 3 -12 0 -12 -12 -2 -9 7 -13 17 -10
22 9 16 -3 10 -17 -8 -12 -14 -12 -16 0 -8 10 5 12 4 7 -4 -6 -9 -11 -9 -22 0
-7 6 -11 16 -7 23 4 6 -1 5 -10 -3 -9 -7 -14 -18 -10 -24 3 -6 1 -7 -6 -3 -6
4 -9 11 -6 15 2 5 -7 6 -21 3 -28 -5 -78 33 -67 51 3 6 2 7 -3 4 -13 -8 -35 6
-37 24 -2 8 -5 14 -8 14 -16 0 -39 30 -39 52 0 13 -4 22 -9 19 -17 -11 -1 79
19 106 11 15 20 31 20 36 0 4 15 23 33 40 24 23 39 31 52 26 12 -5 16 -4 12 3
-8 13 19 11 30 -2z m-71 -160 c1 -8 -1 -17 -5 -19 -4 -3 -7 6 -7 19 0 25 8 25
12 0z m-379 -60 c0 -8 -4 -12 -9 -9 -5 3 -6 10 -3 15 9 13 12 11 12 -6z m68
-75 c10 -16 13 -80 4 -74 -5 3 -6 10 -3 16 4 7 2 8 -4 4 -9 -5 -9 -13 -1 -27
12 -24 6 -34 -16 -26 -8 4 -15 16 -15 27 0 11 -6 20 -14 20 -18 0 -28 40 -14
57 12 15 54 17 63 3z m163 -48 c6 -9 12 -28 12 -43 0 -27 12 -41 38 -45 29 -5
43 -14 36 -25 -5 -8 -3 -9 7 -3 16 10 44 15 35 7 -9 -10 25 -43 37 -36 6 4 7
1 2 -6 -5 -9 -15 -6 -34 13 -19 18 -28 22 -28 12 0 -8 5 -14 11 -13 6 1 10 -4
9 -10 -2 -7 3 -12 10 -10 6 1 11 -5 9 -13 -3 -12 -1 -13 9 -2 7 6 21 12 31 12
10 0 29 7 41 15 28 18 64 9 73 -17 4 -15 -2 -27 -22 -45 -16 -13 -23 -21 -16
-18 22 11 -7 -33 -53 -83 -34 -37 -39 -48 -38 -87 1 -34 -3 -47 -16 -55 -10
-5 -21 -7 -23 -4 -3 2 -3 -16 -1 -40 4 -36 1 -48 -16 -63 -12 -9 -21 -25 -21
-35 0 -12 -8 -18 -24 -18 -24 0 -51 22 -40 33 3 3 -2 4 -13 2 -10 -2 -18 -4
-18 -5 0 -1 -8 -3 -18 -5 -9 -2 -15 1 -11 6 3 5 -4 9 -15 9 -11 0 -25 9 -31
21 -10 17 -14 18 -28 7 -13 -11 -14 -11 -7 1 6 10 4 13 -6 9 -19 -7 -82 19
-75 30 3 5 -1 9 -9 9 -8 0 -12 -3 -10 -7 2 -4 -2 -7 -10 -7 -8 0 -13 5 -12 11
1 6 -7 11 -18 11 -22 0 -30 24 -21 61 7 25 39 34 51 14 4 -6 12 -7 18 -3 19
12 37 12 34 1 -1 -6 11 -11 26 -12 16 -1 33 -9 38 -19 6 -10 21 -16 42 -15 35
1 81 -18 73 -31 -3 -4 6 -7 19 -7 13 0 22 3 20 6 -7 11 34 70 47 68 7 -2 12 6
13 17 0 12 7 32 16 45 20 31 30 92 18 111 -5 8 -9 11 -9 7 0 -5 -11 2 -25 14
-13 11 -21 26 -18 32 4 6 -2 4 -12 -4 -11 -9 -16 -10 -11 -2 5 8 -1 12 -18 12
-14 0 -26 4 -26 10 0 5 -17 14 -37 19 -45 13 -66 14 -59 3 2 -4 -6 -8 -19 -8
-13 0 -21 4 -18 10 4 5 -1 7 -10 3 -9 -3 -19 -2 -22 4 -9 14 4 49 18 46 6 -1
12 11 12 28 0 21 6 31 21 35 15 4 20 12 19 32 -2 23 1 26 12 17 11 -10 12 -8
7 6 -6 14 -3 16 17 10 13 -4 30 -14 37 -23z m-311 -37 c0 -8 -4 -12 -9 -9 -5
3 -6 10 -3 15 9 13 12 11 12 -6z m5360 1 c-3 6 0 11 8 11 8 0 12 -5 8 -10 -3
-5 3 -6 16 -2 24 7 24 7 25 -76 1 -38 -3 -56 -11 -56 -7 0 -9 5 -6 11 4 6 0 5
-9 -2 -9 -7 -15 -22 -13 -33 2 -11 1 -18 -3 -16 -7 4 -42 -28 -42 -38 0 -3 0
-9 0 -15 0 -5 -5 -10 -11 -10 -13 0 -39 -25 -39 -39 0 -5 -9 -13 -20 -16 -11
-3 -20 -10 -20 -15 0 -4 -13 -22 -30 -40 -20 -21 -37 -30 -52 -28 -19 3 -23 9
-24 43 0 50 9 80 26 80 7 0 14 8 16 18 1 9 -2 15 -7 11 -5 -3 -6 -11 -3 -17 4
-7 4 -9 0 -5 -4 3 -8 10 -8 15 1 4 -6 16 -15 25 -9 10 -13 28 -11 43 4 20 3
23 -8 14 -10 -8 -12 -7 -10 8 3 14 -2 19 -19 19 -13 0 -22 -3 -20 -6 2 -3 -11
-6 -30 -6 -26 0 -32 4 -30 18 2 10 -1 21 -7 24 -6 4 -8 2 -4 -4 3 -6 2 -13 -3
-16 -14 -9 -1 57 12 67 7 4 29 5 50 2 21 -3 36 -2 33 3 -2 4 11 8 29 8 18 0
32 -3 29 -7 -2 -4 3 -6 12 -5 8 1 19 7 22 13 7 11 68 29 122 36 14 1 31 -2 39
-8 11 -7 13 -7 8 1z m-4997 -32 c0 -8 -19 -13 -24 -6 -3 5 1 9 9 9 8 0 15 -2
15 -3z m5077 -49 c0 -8 -4 -12 -9 -9 -5 3 -6 10 -3 15 9 13 12 11 12 -6z
m-4900 -198 c0 -8 -6 -14 -14 -14 -9 0 -10 4 -2 14 6 7 12 13 14 13 1 0 2 -6
2 -13z m5045 -65 c5 -5 8 -22 6 -38 -2 -23 -9 -30 -31 -32 -15 -2 -25 -7 -23
-11 3 -4 -1 -8 -9 -8 -7 0 -12 8 -10 19 2 10 0 16 -6 13 -5 -4 -9 -13 -9 -22
0 -8 -11 -23 -23 -34 -16 -12 -23 -27 -22 -46 1 -15 7 -27 12 -26 15 3 44 -32
46 -55 1 -17 4 -19 17 -9 8 7 20 17 25 24 13 16 57 25 71 16 5 -5 18 -19 27
-32 16 -24 16 -26 -15 -53 -17 -15 -39 -29 -47 -30 -45 -5 -57 -4 -69 5 -7 6
-12 6 -10 1 2 -5 -1 -10 -6 -11 -5 -1 -12 -7 -16 -13 -11 -17 -76 -30 -89 -17
-7 7 -9 3 -6 -13 3 -18 2 -21 -7 -12 -8 8 -14 7 -23 -4 -14 -20 -84 -21 -96
-2 -5 7 -8 27 -7 43 2 23 11 34 37 47 19 9 39 14 45 10 17 -10 37 -11 30 -1
-3 5 2 9 11 9 9 0 13 -4 10 -10 -11 -18 1 -11 26 16 13 14 18 24 10 22 -7 -2
-15 5 -16 15 -3 14 0 15 9 8 9 -8 13 -7 13 4 0 8 -4 12 -8 9 -12 -7 -39 26
-39 48 0 19 -4 20 -59 14 -32 -4 -68 -9 -80 -11 -12 -2 -20 1 -18 8 1 6 -4 12
-10 13 -7 1 -19 2 -25 3 -8 1 -7 5 4 11 10 6 15 19 13 30 -2 13 2 20 11 20 8
0 13 4 10 8 -3 5 1 9 9 9 8 0 12 -4 10 -8 -3 -4 2 -6 11 -5 9 1 20 10 26 19 5
10 21 17 39 17 17 0 28 4 25 8 -2 4 6 8 19 8 13 0 22 -3 20 -6 -2 -4 3 -7 12
-7 9 0 18 8 20 18 8 30 130 46 155 21z m-5087 -1 c3 -5 2 -12 -3 -15 -5 -3 -9
1 -9 9 0 17 3 19 12 6z m-89 -27 c1 -9 0 -13 -4 -10 -3 4 -7 14 -8 22 -1 9 0
13 4 10 3 -4 7 -14 8 -22z m5400 -19 c1 -8 -1 -17 -5 -19 -4 -3 -7 6 -7 19 0
25 8 25 12 0z m-5349 -50 c0 -8 -4 -12 -9 -9 -5 3 -6 10 -3 15 9 13 12 11 12
-6z m5019 -50 c-1 -13 -4 -27 -7 -30 -5 -4 -4 41 0 53 4 10 8 -2 7 -23z m369
-39 c-1 -51 -11 -52 -11 -1 0 24 3 42 6 40 4 -2 6 -20 5 -39z m-5668 -61 c34
-2 68 -28 58 -45 -2 -4 2 -7 10 -7 8 0 12 3 10 7 -2 4 2 7 10 7 7 0 12 -8 10
-19 -3 -12 2 -18 15 -18 21 0 30 -21 26 -65 -2 -16 4 -38 13 -48 12 -15 13
-18 1 -15 -20 4 -20 -42 -1 -65 13 -16 13 -18 1 -15 -8 2 -14 -3 -12 -10 2 -9
-2 -11 -10 -6 -26 17 -35 12 -33 -17 2 -25 0 -27 -12 -18 -8 7 -13 8 -12 3 4
-23 -3 -33 -30 -42 -16 -6 -32 -8 -35 -4 -9 8 -37 12 -32 3 3 -3 -15 -7 -39
-7 -24 0 -41 4 -39 8 3 5 -8 8 -24 8 -21 0 -35 8 -46 25 -9 14 -22 22 -30 19
-9 -3 -20 4 -27 18 -16 28 -20 50 -9 43 5 -3 12 0 16 7 4 7 4 10 -1 6 -4 -4
-16 -3 -26 3 -26 14 -28 109 -2 109 9 0 13 3 10 7 -4 3 -1 13 6 21 6 9 7 13 1
9 -6 -3 -11 0 -11 8 0 8 4 12 9 9 4 -3 8 4 8 15 0 19 10 26 32 22 4 0 10 8 13
19 6 17 53 35 80 30 27 -6 46 1 39 13 -5 8 -2 7 9 -2 10 -7 34 -15 54 -16z
m-442 -110 c1 -30 -1 -52 -4 -49 -3 3 -6 30 -6 59 -1 30 1 52 4 49 3 -3 6 -30
6 -59z m5975 -62 c3 -3 5 -51 5 -107 0 -97 -1 -102 -21 -102 -17 0 -21 5 -19
27 2 24 -11 32 -32 19 -2 -1 -23 -1 -48 -1 -25 0 -46 0 -47 1 -14 8 -37 6 -32
-2 5 -7 2 -8 -7 -2 -21 13 -39 14 -36 1 1 -6 -11 -13 -27 -16 -18 -4 -30 -13
-32 -25 -1 -10 -12 -25 -23 -33 -30 -20 -26 -32 17 -50 37 -15 54 -31 47 -43
-5 -8 42 -6 50 2 8 8 86 -10 102 -24 7 -5 11 -14 8 -17 -2 -4 2 -8 10 -8 8 0
12 3 10 7 -2 4 2 7 10 7 8 0 12 -4 9 -9 -3 -4 0 -8 5 -8 6 0 11 4 11 9 0 12
52 1 72 -16 9 -8 15 -22 13 -31 -1 -9 5 -26 14 -36 9 -11 11 -16 4 -13 -14 8
-27 -10 -28 -37 0 -13 -12 -23 -37 -32 -22 -7 -38 -9 -38 -3 0 5 -5 9 -11 9
-5 0 -8 -4 -4 -10 9 -15 -41 -43 -66 -35 -16 6 -20 4 -13 -6 6 -11 4 -11 -10
0 -9 8 -16 10 -15 5 4 -25 -4 -34 -32 -34 -16 0 -28 -4 -25 -8 3 -5 -1 -9 -9
-9 -8 0 -12 3 -10 7 2 4 -2 7 -10 7 -8 0 -12 -4 -9 -8 7 -12 -25 -39 -46 -39
-26 0 -42 30 -25 47 7 7 11 21 8 32 -3 14 5 26 33 45 20 14 42 22 48 19 6 -4
7 -2 3 3 -5 5 -14 9 -20 9 -6 0 -14 17 -18 38 -6 40 -45 90 -62 80 -6 -3 -7
-1 -4 4 4 6 0 13 -8 17 -11 4 -15 21 -15 65 0 33 -5 63 -11 66 -7 5 -4 14 8
27 9 11 13 19 8 18 -22 -5 -27 1 -15 16 8 8 9 14 4 13 -25 -4 -33 4 -39 41
-10 58 0 80 37 80 21 0 31 -6 35 -20 5 -18 14 -20 75 -20 38 0 67 4 64 8 -3 5
7 8 22 6 15 -1 27 -3 27 -4 0 -1 8 -3 18 -5 9 -2 14 1 11 7 -3 5 3 12 15 15
12 3 21 12 21 20 0 34 20 53 48 47 15 -4 29 -9 32 -11z m-6015 -117 c0 -41 -2
-73 -5 -71 -5 3 -6 133 -1 143 5 10 6 -8 6 -72z m6231 40 c-2 -38 -12 -39 -12
-1 0 18 3 32 7 30 3 -3 5 -15 5 -29z m-5629 -61 c0 -8 -4 -12 -9 -9 -5 3 -6
10 -3 15 9 13 12 11 12 -6z m5629 -21 c0 -13 -2 -22 -5 -19 -3 3 -6 17 -7 31
0 13 2 22 5 19 3 -3 6 -17 7 -31z m-5902 -110 c9 -8 13 -21 9 -27 -4 -7 2 -5
12 3 11 9 16 10 11 3 -5 -9 1 -13 20 -13 21 0 25 -4 21 -20 -3 -12 0 -20 7
-20 7 0 13 -7 13 -15 0 -8 -4 -12 -8 -9 -4 2 -11 0 -14 -6 -4 -6 -1 -9 5 -8 7
2 14 -5 15 -15 2 -9 -1 -15 -5 -12 -5 3 -12 1 -15 -5 -4 -6 -3 -10 2 -9 20 4
24 -2 12 -18 -7 -10 -9 -15 -4 -10 10 8 57 -32 50 -44 -3 -4 3 -6 12 -4 10 2
18 4 18 5 0 1 8 3 17 5 10 2 16 -2 15 -8 -1 -7 3 -11 8 -10 6 1 11 -17 11 -40
l0 -42 -52 0 c-29 0 -50 3 -48 6 5 8 -23 6 -31 -2 -3 -3 -26 -2 -53 2 -26 4
-69 8 -97 9 -53 0 -80 11 -80 32 -1 7 -6 12 -12 11 -12 -3 -12 15 0 34 4 6 3
14 -1 17 -10 6 -10 46 1 63 4 6 4 14 -1 17 -4 2 -6 21 -4 40 3 26 13 42 35 58
17 12 27 16 22 8 -5 -9 -4 -11 3 -6 7 4 12 13 12 21 0 13 20 20 62 24 9 0 24
-6 32 -15z m-369 -398 c0 -190 -2 -347 -5 -349 -4 -5 -5 682 -1 691 5 11 6
-39 6 -342z m5730 75 c3 -5 2 -12 -3 -15 -5 -3 -9 1 -9 9 0 17 3 19 12 6z
m-5690 -615 c0 -35 -3 -67 -5 -70 -3 -2 -5 28 -5 69 0 40 2 72 5 70 3 -2 6
-33 5 -69z m6231 10 c-2 -38 -12 -39 -12 -1 0 18 3 32 7 30 3 -3 5 -15 5 -29z
m0 -72 c1 -9 0 -13 -4 -10 -3 4 -7 14 -8 22 -1 9 0 13 4 10 3 -4 7 -14 8 -22z
m-6191 -128 c0 -30 -3 -57 -6 -60 -4 -4 -4 102 0 112 5 10 7 -6 6 -52z m6110
-170 c-1 -51 -11 -52 -11 -1 0 24 3 42 6 40 4 -2 6 -20 5 -39z m-5365 -126
c11 -6 17 -18 15 -29 -3 -19 9 -22 32 -8 6 4 15 2 20 -5 21 -33 30 -55 27 -70
-2 -16 12 -18 32 -6 7 5 10 -9 9 -42 -1 -36 2 -50 12 -50 18 0 17 -16 -2 -23
-8 -3 -12 -14 -10 -25 2 -11 -2 -19 -10 -19 -8 0 -12 5 -8 10 3 5 -6 2 -20 -8
-24 -15 -26 -15 -30 2 -2 10 -5 38 -7 63 -1 25 -2 55 -3 67 0 12 -6 21 -11 20
-6 -1 -10 4 -8 11 1 8 -2 11 -9 7 -6 -4 -46 -7 -90 -7 -51 0 -79 -4 -79 -11 0
-14 -41 -57 -55 -57 -7 0 -11 -20 -10 -52 0 -41 4 -55 19 -63 10 -5 18 -14 17
-19 -1 -5 8 -14 21 -20 27 -14 30 -34 9 -61 -15 -18 -15 -19 0 -7 12 9 16 9
16 -2 0 -14 -21 -16 -33 -4 -3 4 -12 4 -20 1 -28 -10 -108 92 -97 124 2 6 -1
15 -8 19 -8 5 -10 3 -4 -7 8 -12 6 -12 -8 0 -18 14 -22 22 -9 20 21 -4 23 3 6
22 -10 11 -14 20 -9 19 24 -5 27 1 9 21 -14 15 -15 20 -4 17 11 -2 14 5 12 24
-2 20 4 31 22 43 15 10 23 22 19 29 -4 6 1 5 10 -2 14 -12 16 -11 12 7 -5 28
40 52 73 40 14 -5 21 -5 17 0 -3 5 2 17 11 25 18 18 95 22 124 6z m4785 -16
c26 -26 25 -39 -7 -62 -10 -7 -16 -18 -12 -23 9 -16 -5 -59 -20 -59 -7 0 -20
-8 -27 -17 -7 -10 -9 -15 -5 -11 5 4 14 4 20 -1 6 -5 26 -12 44 -16 30 -6 33
-5 38 25 4 17 14 36 23 43 9 7 18 21 19 32 2 11 7 24 11 28 13 13 60 -4 66
-24 9 -27 -4 -59 -23 -59 -14 0 -17 -10 -17 -58 l0 -57 37 -3 c35 -3 39 0 55
32 9 20 24 36 33 36 9 0 17 7 17 15 0 8 -4 12 -8 9 -4 -2 -11 0 -14 6 -4 6 -1
9 7 8 7 -2 12 4 10 12 -2 8 -1 12 3 8 4 -4 17 -3 30 2 43 16 63 -42 27 -78
-10 -10 -18 -26 -16 -36 2 -13 -1 -14 -10 -7 -10 8 -12 4 -8 -17 3 -25 -17
-57 -37 -57 -3 0 -4 -12 -2 -27 4 -39 -6 -50 -31 -37 -11 6 -18 7 -15 2 4 -5
0 -10 -8 -10 -8 0 -12 4 -9 9 3 4 -8 8 -25 8 -20 0 -34 7 -41 20 -7 14 -21 20
-44 20 -33 0 -123 39 -158 68 -10 8 -15 20 -11 26 4 6 -1 5 -10 -3 -9 -7 -17
-10 -17 -6 0 4 -7 2 -16 -6 -14 -11 -15 -9 -12 17 2 17 9 29 18 29 11 0 14 10
12 41 -3 31 2 47 16 60 11 11 22 36 26 56 4 21 13 41 20 45 7 5 15 16 19 26 9
23 22 21 52 -9z m-4748 -9 c0 -8 -4 -12 -9 -9 -5 3 -6 10 -3 15 9 13 12 11 12
-6z m164 -285 c1 -5 2 -15 3 -22 0 -6 10 -12 21 -14 11 -2 21 -8 23 -14 2 -6
14 -23 27 -38 16 -19 23 -41 23 -74 1 -52 -9 -66 -31 -43 -9 8 -26 17 -39 19
-13 3 -23 5 -23 6 0 1 -8 3 -17 5 -10 2 -17 0 -17 -3 3 -21 -3 -33 -22 -43
-13 -6 -19 -7 -15 -1 3 6 -1 9 -10 8 -8 -1 -21 -13 -27 -27 -7 -13 -21 -26
-32 -28 -11 -2 -26 -12 -33 -22 -7 -11 -17 -17 -22 -14 -15 9 -20 -12 -6 -25
16 -13 13 -50 -6 -61 -6 -4 -19 -4 -28 1 -19 10 -83 124 -74 132 3 3 -9 16
-26 28 -24 17 -28 25 -19 36 12 14 35 14 57 0 16 -10 99 12 121 31 30 27 92
63 107 63 11 0 15 9 14 33 -3 55 -1 65 18 70 29 8 32 7 33 -3z m4434 -43 c-1
-21 -6 -42 -11 -45 -17 -13 -15 -41 6 -62 11 -11 18 -25 15 -29 -3 -5 5 -7 17
-3 16 4 19 2 13 -9 -8 -12 -6 -12 8 -1 14 12 16 11 12 -7 -2 -14 1 -21 11 -21
9 0 12 -5 8 -12 -5 -10 -4 -10 6 -1 12 11 44 3 60 -16 3 -3 17 -12 33 -20 15
-8 27 -21 27 -28 0 -8 4 -12 8 -9 4 2 8 -6 8 -19 0 -13 -4 -21 -8 -19 -4 3 -8
-4 -8 -16 0 -35 -40 -42 -75 -14 -16 14 -40 29 -52 34 -13 5 -23 16 -23 24 0
20 -17 29 -26 15 -5 -8 -3 -9 6 -4 9 5 11 4 6 -4 -11 -17 -25 -4 -21 20 3 17
2 19 -10 9 -12 -10 -13 -8 -10 11 3 16 1 19 -6 12 -8 -8 -20 -8 -40 -1 -26 9
-33 18 -31 39 1 3 -5 6 -13 6 -8 0 -12 -3 -10 -7 8 -13 -26 -50 -45 -50 -13 0
-18 -6 -15 -20 4 -23 -10 -36 -21 -19 -5 8 -3 9 6 4 9 -6 11 -4 5 4 -5 8 -11
9 -17 3 -5 -5 -18 -7 -29 -5 -27 7 -24 45 6 77 14 15 25 31 25 37 0 5 6 9 14
9 10 0 13 7 11 21 -4 18 -2 19 11 8 12 -10 15 -10 12 2 -2 8 3 13 10 11 8 -1
11 2 8 7 -4 5 -1 13 5 16 5 4 8 13 5 20 -7 18 23 57 37 48 7 -4 6 1 -2 11 -12
15 -12 17 0 14 8 -2 13 2 12 7 -1 6 13 11 31 11 32 0 33 -2 31 -39z m22 8 c0
-8 -4 -12 -9 -9 -5 3 -6 10 -3 15 9 13 12 11 12 -6z m-4340 -120 c0 -8 -4 -12
-9 -9 -5 3 -6 10 -3 15 9 13 12 11 12 -6z m-432 -94 c3 -5 2 -12 -3 -15 -5 -3
-9 1 -9 9 0 17 3 19 12 6z m576 -98 c13 -15 17 -22 8 -15 -12 9 -16 9 -16 -1
0 -7 9 -14 20 -14 19 -2 37 -19 37 -35 0 -16 -41 -48 -53 -42 -7 4 -4 -1 5
-12 14 -16 14 -22 3 -37 -7 -10 -21 -20 -31 -21 -12 -2 -19 -12 -20 -30 0 -16
-5 -31 -10 -34 -5 -4 -10 -14 -12 -22 -6 -29 -33 -61 -45 -53 -7 4 -5 -2 3
-12 9 -11 10 -16 3 -11 -9 5 -13 1 -13 -11 0 -10 -13 -33 -29 -52 l-28 -34
-32 32 c-17 17 -31 40 -31 51 0 19 37 53 50 45 4 -2 7 2 7 10 0 11 -4 12 -13
4 -10 -8 -12 -6 -9 9 2 12 -4 27 -13 34 -13 11 -15 11 -7 -2 8 -13 7 -13 -8
-1 -14 11 -15 16 -5 29 10 12 10 14 1 9 -14 -9 -57 29 -48 42 3 5 -3 8 -12 6
-10 -2 -18 -4 -18 -5 0 -1 -17 -3 -37 -4 -29 -2 -43 3 -60 22 -13 13 -18 23
-13 22 24 -5 27 1 9 21 -14 15 -15 20 -4 17 8 -2 14 2 13 8 -1 5 9 10 22 10
13 0 22 -3 19 -7 -2 -4 3 -6 12 -5 8 1 19 7 22 14 4 6 19 12 34 14 15 2 31 8
35 13 4 4 3 5 -4 1 -6 -3 -14 -2 -17 2 -3 5 7 8 22 6 15 -1 27 -3 27 -4 0 -1
8 -3 17 -5 10 -2 16 2 15 8 -1 6 8 16 20 22 13 7 21 14 18 17 -3 3 7 4 22 2
16 -1 28 -3 28 -4 0 -1 8 -3 18 -5 11 -2 16 -1 13 2 -10 11 16 33 38 33 13 0
33 -12 47 -27z m3950 -4 c16 -16 26 -35 23 -41 -5 -7 -2 -8 7 -2 16 10 44 15
35 7 -10 -10 26 -43 38 -36 6 3 8 2 3 -2 -10 -11 23 -46 36 -38 6 4 7 1 2 -6
-5 -9 -22 1 -58 36 -28 26 -44 39 -34 27 9 -11 15 -24 12 -27 -3 -4 -2 -5 2
-2 9 7 44 -26 37 -37 -3 -4 0 -7 8 -6 7 2 12 -4 10 -12 -3 -11 -1 -12 8 -4 16
16 47 6 53 -17 3 -11 14 -19 26 -19 14 0 21 -6 21 -20 0 -11 6 -23 14 -26 12
-5 12 -11 -3 -37 -17 -30 -42 -41 -66 -28 -16 8 -55 9 -60 0 -3 -4 -13 -6 -23
-4 -9 2 -38 7 -64 10 -32 4 -48 11 -50 23 -2 9 -14 17 -29 17 -29 2 -32 -14
-11 -66 6 -15 8 -31 4 -35 -4 -5 2 -2 12 6 13 10 17 10 12 3 -4 -8 -2 -13 8
-13 9 0 13 -7 11 -18 -2 -11 3 -19 10 -19 8 0 12 3 10 7 -2 4 2 7 9 7 8 0 12
-11 11 -29 -2 -25 -1 -27 13 -16 12 10 14 10 8 1 -4 -8 -1 -13 9 -13 10 0 13
-4 8 -12 -4 -7 -6 -21 -5 -31 2 -11 -6 -21 -23 -27 -23 -9 -32 -5 -70 27 -24
20 -42 40 -40 44 3 4 -3 13 -12 20 -14 12 -16 12 -8 -1 8 -13 7 -13 -8 -1 -9
7 -17 20 -17 28 0 8 -4 11 -10 8 -5 -3 -21 5 -34 19 -13 14 -28 26 -33 26 -5
0 -18 9 -28 20 -10 11 -24 20 -32 20 -7 0 -13 10 -14 23 0 12 -2 30 -4 40 -2
9 1 15 6 11 5 -3 6 -10 3 -16 -4 -7 -2 -8 5 -4 6 4 9 11 6 16 -8 12 25 41 37
34 6 -4 8 -2 5 3 -4 6 0 16 7 22 11 9 16 9 22 0 4 -7 3 -9 -3 -6 -5 3 -10 -1
-10 -9 0 -10 4 -11 11 -4 13 13 39 13 31 0 -10 -16 1 -11 16 7 8 10 9 14 2 10
-6 -4 -14 -3 -17 1 -7 12 41 9 51 -2 4 -5 3 -6 -3 -3 -6 3 -11 0 -11 -7 0 -9
6 -10 23 -2 12 6 20 15 17 21 -3 5 0 4 8 -2 16 -16 89 -17 89 -2 0 5 4 8 9 4
5 -3 13 -1 16 5 4 6 1 9 -7 8 -7 -2 -12 3 -10 10 2 9 -2 11 -10 6 -21 -14 -35
-13 -35 2 0 11 4 11 16 2 12 -9 11 -7 -2 8 -9 11 -14 25 -10 29 5 5 0 3 -10
-5 -15 -11 -18 -11 -15 0 2 9 -6 14 -22 15 -18 0 -27 8 -35 29 -9 25 -6 31 20
52 17 13 34 24 38 24 4 0 21 -14 38 -31z m-3975 -205 c1 -9 0 -13 -4 -10 -3 4
-7 14 -8 22 -1 9 0 13 4 10 3 -4 7 -14 8 -22z m3669 -104 c21 0 -12 -59 -39
-70 -11 -5 -16 -9 -11 -10 6 0 -1 -7 -15 -15 -16 -9 -29 -10 -37 -4 -7 7 -14
6 -19 -3 -13 -21 -13 -38 0 -38 15 0 58 -44 51 -52 -3 -2 1 -5 9 -5 9 0 13 8
11 20 -3 15 -2 17 10 7 12 -10 13 -8 10 10 -4 19 -2 20 13 9 9 -7 14 -9 10 -5
-12 14 12 36 39 36 13 0 22 4 19 8 -3 5 1 9 9 9 8 0 13 -5 12 -11 -1 -5 4 -10
11 -11 6 0 11 -4 10 -10 -5 -34 -14 -46 -54 -71 -50 -31 -63 -58 -41 -82 8 -9
13 -25 11 -36 -2 -14 0 -16 9 -7 6 6 19 11 29 11 10 0 21 7 24 15 3 8 16 17
27 21 12 4 27 14 34 23 6 9 17 16 25 16 7 1 12 7 10 15 -3 11 1 10 16 -3 10
-9 21 -15 23 -12 3 2 5 -11 5 -30 0 -18 -5 -33 -11 -32 -5 1 -9 -4 -7 -12 3
-12 1 -12 -13 -1 -9 7 -15 9 -14 4 4 -23 -3 -33 -31 -43 -16 -5 -30 -15 -30
-20 0 -6 -9 -11 -19 -11 -12 0 -25 -11 -33 -27 -17 -36 -59 -42 -88 -13 -11
11 -18 25 -15 30 4 6 -1 10 -9 10 -9 0 -16 7 -16 16 0 8 -4 13 -9 10 -5 -3 -7
7 -6 23 1 17 -3 28 -11 28 -7 0 -11 -3 -9 -7 2 -4 -2 -7 -10 -7 -8 0 -12 8 -9
20 2 12 -3 21 -16 24 -11 3 -20 9 -20 14 0 4 -11 20 -24 34 -14 15 -23 35 -21
47 4 17 2 18 -12 6 -12 -9 -15 -9 -9 0 4 6 3 12 -2 12 -6 0 -13 7 -16 16 -7
18 47 74 71 74 8 0 11 5 7 12 -5 7 -3 8 7 2 22 -14 36 -13 36 2 0 11 -4 11
-16 2 -12 -9 -11 -7 2 8 9 11 15 23 12 26 -3 2 2 5 10 5 8 0 11 -5 8 -10 -3
-6 -1 -7 5 -3 7 4 12 14 12 22 0 7 15 20 33 27 27 12 33 12 40 0 4 -7 14 -13
22 -13z m-108 -115 c0 -8 -4 -12 -9 -9 -5 3 -6 10 -3 15 9 13 12 11 12 -6z
m-3108 -18 c6 -8 7 -18 3 -23 -4 -4 0 -3 9 4 20 15 38 -2 34 -31 -3 -14 0 -16
10 -7 10 8 15 8 21 -1 5 -8 3 -9 -6 -4 -9 5 -11 4 -6 -4 4 -6 12 -9 17 -6 14
10 51 -5 46 -18 -2 -7 3 -20 12 -30 13 -15 13 -18 1 -15 -8 2 -14 -2 -13 -8 1
-6 -4 -11 -12 -11 -8 0 -12 4 -9 9 3 4 -2 8 -11 8 -10 0 -13 -5 -9 -12 4 -7 3
-8 -5 -4 -21 13 -47 -4 -70 -44 -12 -22 -28 -40 -36 -40 -9 0 -12 -8 -10 -21
3 -12 2 -19 -2 -16 -3 4 -14 -10 -25 -29 -17 -33 -18 -38 -4 -60 30 -44 16
-75 -32 -73 -9 0 -37 16 -62 35 -25 18 -55 38 -66 43 -21 10 -54 48 -54 63 0
5 12 8 26 8 14 0 23 3 20 8 -2 4 9 8 25 8 31 2 82 46 70 61 -3 4 1 2 10 -5 14
-10 16 -9 16 5 0 41 4 53 16 53 7 0 19 16 26 35 7 19 16 33 21 30 5 -3 12 0
15 6 4 6 -2 13 -14 16 -23 6 -35 34 -26 63 7 23 56 28 74 7z m2925 -130 c14
-13 22 -28 18 -33 -4 -4 2 -2 13 6 11 8 17 11 13 6 -4 -5 -1 -15 7 -22 8 -8
12 -24 10 -35 -3 -12 -2 -19 2 -16 11 12 43 -14 43 -34 0 -11 4 -18 8 -15 5 3
9 -1 9 -9 0 -8 -5 -11 -11 -8 -8 4 -8 3 0 -6 15 -16 1 -101 -20 -116 -8 -7
-12 -16 -8 -21 4 -4 -1 -2 -10 5 -15 11 -17 10 -13 -8 4 -20 -9 -35 -30 -36
-5 -1 -9 -7 -7 -15 3 -11 0 -11 -14 1 -10 8 -15 9 -11 3 11 -18 -27 -45 -57
-40 -15 3 -24 1 -21 -4 8 -13 -31 -50 -52 -50 -25 0 -39 12 -47 38 -4 12 -12
22 -17 22 -5 0 -9 7 -9 16 0 9 -5 12 -12 8 -10 -6 -10 -4 0 8 9 11 10 18 2 23
-6 3 -7 11 -4 17 4 6 2 8 -4 4 -15 -9 -41 21 -37 44 2 13 -2 20 -11 20 -8 0
-20 12 -27 28 -6 15 -17 33 -24 40 -7 7 -13 16 -14 20 -6 42 -4 66 7 77 7 7
11 15 9 17 -3 3 2 5 10 5 8 0 12 -4 10 -8 -3 -4 6 -2 20 4 14 7 28 20 31 30 4
12 10 15 17 9 7 -5 22 -4 37 4 14 8 21 14 15 14 -5 0 1 7 15 15 14 8 51 14 82
15 46 0 62 -4 82 -23z m-2665 -46 c6 -10 7 -22 3 -26 -4 -5 0 -4 8 1 24 13 37
13 37 -2 0 -9 -4 -11 -12 -4 -8 7 -12 5 -12 -5 0 -8 2 -13 5 -10 3 2 13 0 24
-6 17 -9 19 -19 16 -64 -2 -30 -1 -52 4 -49 5 3 6 9 3 14 -3 5 -1 11 3 14 14
9 8 -40 -8 -58 -7 -10 -9 -16 -4 -15 23 4 26 -3 8 -22 -14 -15 -15 -20 -4 -17
8 2 14 -2 13 -7 -1 -6 8 -11 21 -11 18 0 22 5 22 30 -1 21 5 34 19 41 11 5 20
17 19 25 0 8 5 21 10 29 9 12 8 13 -2 7 -11 -7 -12 -4 -3 12 13 24 55 36 80
23 23 -13 33 -58 16 -75 -7 -7 -16 -27 -20 -45 -4 -19 -15 -35 -25 -38 -12 -3
-17 -13 -15 -33 2 -18 -5 -37 -19 -52 -11 -12 -21 -29 -21 -38 -1 -29 -17 -60
-30 -60 -8 0 -12 -8 -10 -18 2 -14 -2 -18 -18 -18 -12 1 -28 6 -36 10 -9 6
-12 5 -8 -1 3 -5 -1 -10 -9 -10 -27 0 -56 54 -52 97 2 21 0 36 -4 34 -3 -2
-10 0 -13 6 -4 6 -1 9 6 8 9 -2 13 17 14 73 1 80 -10 94 -47 62 -9 -8 -24 -16
-34 -17 -11 -2 -19 -12 -19 -27 -3 -44 -15 -79 -27 -76 -7 1 -12 -2 -13 -8 -1
-22 -23 -47 -34 -41 -6 4 -8 13 -4 19 4 8 1 7 -9 -1 -13 -11 -18 -11 -24 0
-18 29 -6 106 18 109 4 1 12 2 17 3 5 0 13 5 18 9 4 5 2 7 -6 5 -9 -2 -15 6
-16 24 -1 15 2 25 7 22 4 -3 5 -10 2 -16 -4 -7 -2 -8 4 -4 6 4 9 13 6 21 -4 8
1 17 9 20 9 4 14 17 12 35 -1 16 1 27 6 24 5 -3 7 -9 4 -14 -3 -5 -1 -11 4
-15 6 -3 8 6 5 21 -3 15 1 34 9 43 8 9 13 24 12 34 -2 9 1 15 6 11 5 -3 7 -9
4 -14 -3 -5 -1 -11 4 -14 5 -3 7 10 4 29 -5 34 -4 35 31 35 24 0 38 -6 45 -19z
m2748 -26 c0 -8 -4 -12 -9 -9 -5 3 -6 10 -3 15 9 13 12 11 12 -6z m-432 -34
c3 -5 2 -12 -3 -15 -5 -3 -9 1 -9 9 0 17 3 19 12 6z m-70 -48 c14 -8 20 -23
21 -60 2 -27 7 -47 13 -46 17 4 29 -29 26 -74 -1 -23 2 -40 6 -37 4 2 6 13 4
24 -2 11 0 22 4 24 4 3 7 -7 6 -22 -1 -15 6 -37 16 -50 10 -13 15 -30 12 -39
-4 -10 -2 -14 4 -10 15 10 10 -17 -7 -39 -13 -17 -13 -18 1 -7 12 10 15 8 15
-11 0 -12 -6 -23 -13 -23 -6 0 -9 5 -6 10 3 6 1 7 -5 3 -7 -4 -12 -13 -12 -21
0 -23 -42 -30 -56 -10 -8 10 -11 21 -9 25 2 4 -2 7 -10 7 -8 0 -11 -5 -8 -11
4 -6 -2 -4 -13 4 -24 19 -34 32 -29 40 2 3 -6 7 -18 7 -11 1 -25 9 -29 18 -5
8 -15 15 -22 15 -7 0 -21 9 -31 20 -21 23 -49 13 -58 -20 -4 -16 -2 -19 7 -11
10 9 12 2 11 -29 -1 -28 2 -40 12 -40 7 0 14 -6 15 -12 1 -14 5 -30 8 -38 7
-19 7 -39 -1 -34 -5 3 -9 -4 -9 -14 0 -13 -9 -22 -25 -26 -30 -8 -45 -1 -45
21 0 9 -8 21 -17 28 -12 9 -17 28 -18 61 -1 33 -6 49 -15 49 -17 0 -27 31 -25
77 1 20 -2 35 -6 32 -4 -2 -15 3 -23 12 -12 11 -16 29 -13 62 3 38 8 49 28 59
13 7 32 10 43 7 10 -4 16 -2 13 3 -4 5 0 10 8 10 8 0 13 -5 12 -10 -1 -5 7
-11 17 -13 10 -1 22 -8 26 -14 4 -7 18 -17 31 -24 15 -7 24 -20 23 -34 -1 -13
3 -19 10 -15 22 14 34 11 31 -9 -4 -17 -2 -18 12 -6 10 8 14 8 10 1 -4 -6 -3
-14 3 -18 5 -3 10 1 10 9 0 9 4 16 9 16 4 0 5 18 1 40 -4 22 -5 40 -1 40 3 0
-2 5 -11 11 -24 13 -26 89 -2 89 8 0 13 4 10 8 -7 12 35 8 59 -5z m-1817 -49
c12 -8 20 -19 17 -24 -3 -4 3 -7 12 -5 10 2 18 4 18 5 0 1 8 3 18 5 10 2 14
-1 10 -8 -4 -6 0 -8 9 -4 20 7 61 -21 51 -36 -4 -7 2 -5 12 3 11 9 16 10 11 3
-5 -9 -1 -13 11 -13 10 0 30 -13 44 -28 26 -26 27 -31 24 -132 -2 -100 -3
-107 -31 -137 -16 -19 -38 -33 -51 -33 -13 0 -23 -6 -23 -15 0 -19 -58 -29
-118 -20 -50 7 -86 30 -75 49 4 6 -1 5 -10 -3 -9 -7 -14 -18 -10 -25 4 -6 -1
-5 -10 3 -9 7 -15 17 -12 21 6 10 -15 8 -32 -3 -20 -13 -51 27 -48 62 3 35 32
84 45 76 5 -3 12 -1 15 5 4 6 1 9 -6 8 -7 -2 -13 9 -14 24 -1 15 2 25 7 22 4
-3 5 -10 2 -16 -4 -7 -2 -8 4 -4 8 5 9 13 2 26 -18 33 9 86 42 81 6 0 0 50 -7
57 -8 9 18 61 33 65 30 8 37 7 60 -9z m-432 -60 c1 -9 0 -13 -4 -10 -3 4 -7
14 -8 22 -1 9 0 13 4 10 3 -4 7 -14 8 -22z m1814 0 c0 -8 -19 -13 -24 -6 -3 5
1 9 9 9 8 0 15 -2 15 -3z m-1475 -23 c3 -5 2 -12 -3 -15 -5 -3 -9 1 -9 9 0 17
3 19 12 6z m1508 0 c5 -1 7 -13 5 -28 -2 -20 -9 -29 -26 -31 -12 -2 -20 -7
-18 -11 3 -4 -12 -6 -32 -5 -20 1 -37 3 -37 4 0 1 -8 3 -18 5 -11 2 -16 1 -13
-3 3 -3 -3 -15 -14 -27 -29 -30 -21 -69 13 -70 14 -1 24 2 21 7 -3 4 -9 6 -13
4 -4 -3 -8 2 -8 10 0 10 4 11 11 4 15 -15 39 -13 30 3 -5 8 -2 8 9 -2 18 -14
23 -26 8 -16 -5 3 -12 2 -15 -3 -2 -4 11 -8 29 -8 18 0 31 4 29 8 -3 5 -9 6
-13 4 -4 -3 -8 2 -8 10 0 10 4 11 11 4 13 -13 39 -13 31 0 -11 18 1 11 26 -16
13 -14 18 -24 10 -22 -7 2 -15 -5 -16 -15 -4 -24 0 -22 -67 -34 -40 -7 -61 -6
-68 1 -8 8 -11 7 -8 -4 2 -9 -3 -14 -12 -12 -8 2 -12 0 -7 -4 4 -4 -1 -16 -10
-26 -10 -11 -13 -19 -8 -18 22 5 27 -1 14 -17 -7 -10 -10 -15 -5 -11 4 3 22 2
40 -3 19 -5 45 -5 63 0 17 5 34 6 38 3 8 -9 36 -12 31 -3 -3 4 6 7 19 7 13 0
23 -5 22 -10 -1 -6 4 -10 11 -8 8 1 11 -2 7 -8 -3 -6 -10 -8 -14 -6 -3 3 -7
-8 -6 -22 0 -26 -3 -27 -50 -28 -27 -1 -49 -6 -48 -11 2 -11 -36 -11 -54 0 -7
4 -16 1 -21 -8 -6 -12 -21 -15 -58 -13 -27 2 -48 8 -47 13 1 6 -6 18 -15 28
-9 10 -12 18 -7 17 24 -5 27 1 9 21 -11 13 -13 19 -5 17 7 -2 15 5 16 15 2 11
1 16 -2 13 -10 -10 -33 16 -33 37 0 11 -8 29 -17 39 -13 15 -14 19 -3 16 11
-2 14 13 15 74 0 42 -2 76 -5 76 -34 -3 -41 17 -9 25 12 3 19 10 16 14 -7 11
73 11 90 0 6 -4 15 -1 20 7 4 7 17 16 28 19 16 4 94 3 138 -2z m52 0 c3 -5 2
-12 -3 -15 -5 -3 -9 1 -9 9 0 17 3 19 12 6z m-1899 -47 c0 -13 -2 -22 -5 -19
-3 3 -6 17 -7 31 0 13 2 22 5 19 3 -3 6 -17 7 -31z m921 22 c5 -5 2 -6 -7 -1
-8 5 -12 5 -9 1 4 -4 39 -8 78 -9 57 -2 75 -7 92 -24 30 -29 18 -63 -22 -63
-17 0 -28 4 -25 9 5 8 -22 8 -31 1 -7 -5 -69 -6 -78 -1 -28 15 -33 8 -29 -37
3 -25 7 -48 10 -51 3 -4 38 -6 77 -6 68 0 72 -1 75 -23 6 -43 -15 -55 -86 -47
-58 6 -67 4 -103 -19 -37 -25 -48 -37 -31 -35 21 4 23 -3 8 -19 -15 -18 -15
-19 11 -16 16 1 28 3 28 4 0 1 8 3 18 5 9 2 15 0 12 -5 -3 -4 19 -8 47 -8 44
0 56 -4 75 -27 13 -14 21 -31 18 -36 -8 -12 -46 -32 -43 -22 2 4 -1 8 -7 8 -5
0 -9 -2 -8 -5 1 -3 -23 -5 -52 -5 -29 0 -51 3 -49 7 3 5 -21 8 -53 8 -54 1
-101 19 -86 33 3 4 1 7 -6 7 -7 0 -11 10 -9 22 2 13 10 23 18 23 12 0 15 20
16 120 1 174 1 176 23 182 12 3 18 12 16 22 -3 14 5 17 50 16 30 0 57 -4 62
-9z m314 -28 c1 -7 0 -17 -1 -23 -1 -5 2 -6 7 -2 4 5 8 14 8 20 0 8 22 13 59
15 47 2 61 0 71 -15 7 -10 11 -22 7 -28 -3 -5 2 -4 11 4 18 14 23 26 8 16 -5
-3 -12 -2 -15 3 -2 4 6 8 19 8 13 0 23 -5 22 -10 -1 -6 4 -11 11 -12 6 -1 17
-2 22 -3 6 0 10 -12 10 -26 0 -16 6 -25 15 -25 10 0 15 -11 15 -35 0 -29 -4
-35 -21 -35 -11 0 -17 -5 -14 -10 4 -6 10 -8 15 -5 5 3 7 -5 5 -17 -8 -40 -96
-101 -111 -77 -3 6 -11 5 -20 -2 -7 -6 -11 -16 -7 -23 4 -6 -1 -5 -10 3 -9 7
-14 18 -10 25 4 6 -1 5 -10 -3 -9 -7 -14 -18 -10 -25 4 -6 -1 -5 -10 3 -9 7
-14 18 -10 25 4 6 -1 5 -10 -3 -9 -7 -15 -17 -12 -21 3 -5 1 -11 -5 -15 -6 -4
-7 -11 -3 -17 9 -16 11 -78 1 -72 -5 3 -5 10 -2 16 4 6 2 8 -4 4 -6 -3 -9 -14
-7 -24 2 -14 -4 -18 -30 -18 -19 0 -31 4 -29 8 3 5 10 5 16 2 6 -4 8 -2 5 3
-4 6 -17 8 -30 6 -23 -4 -24 -1 -30 58 -4 34 -7 117 -7 185 0 116 1 124 22
138 27 19 68 21 69 4z m325 -44 c1 -9 0 -13 -4 -10 -3 4 -7 14 -8 22 -1 9 0
13 4 10 3 -4 7 -14 8 -22z m380 -19 c1 -8 -1 -17 -5 -19 -4 -3 -7 6 -7 19 0
25 8 25 12 0z m-1249 -30 c0 -8 -4 -12 -9 -9 -5 3 -6 10 -3 15 9 13 12 11 12
-6z m869 -21 c0 -13 -2 -22 -5 -19 -3 3 -6 17 -7 31 0 13 2 22 5 19 3 -3 6
-17 7 -31z m-801 -13 c3 -5 2 -12 -3 -15 -5 -3 -9 1 -9 9 0 17 3 19 12 6z
m204 -4 c8 -10 7 -14 -2 -14 -8 0 -14 6 -14 14 0 7 1 13 2 13 2 0 8 -6 14 -13z
m-272 -42 c0 -8 -4 -12 -9 -9 -5 3 -6 10 -3 15 9 13 12 11 12 -6z m69 -19 c-2
-38 -12 -39 -12 -1 0 18 3 32 7 30 3 -3 5 -15 5 -29z m0 -82 c0 -13 -2 -22 -5
-19 -3 3 -6 17 -7 31 0 13 2 22 5 19 3 -3 6 -17 7 -31z"/>
<path d="M3843 6135 c0 -8 4 -12 9 -9 5 3 6 10 3 15 -9 13 -12 11 -12 -6z"/>
<path d="M3769 5985 c-13 -7 -27 -11 -31 -9 -3 2 -10 0 -13 -6 -4 -6 -3 -10 2
-9 19 3 25 -2 14 -15 -9 -11 -3 -13 36 -12 46 1 48 2 48 30 0 33 -19 40 -56
21z"/>
<path d="M4185 5973 c-32 -8 -43 -21 -37 -48 6 -35 25 -47 69 -43 36 3 38 5
36 36 -1 35 -18 63 -37 61 -6 -1 -20 -4 -31 -6z"/>
<path d="M2099 5828 c-5 -13 -5 -60 0 -63 4 -2 7 12 7 31 0 29 -3 42 -7 32z"/>
<path d="M4752 5715 c-4 -5 -7 -17 -7 -25 -1 -26 -16 -60 -26 -60 -5 0 -9 -6
-9 -14 0 -8 -10 -22 -22 -30 -29 -21 -32 -49 -8 -88 17 -29 25 -33 64 -33 25
-1 43 2 41 6 -3 3 8 18 23 33 15 14 35 35 45 46 10 12 21 19 25 16 4 -2 7 24
7 59 0 60 -5 69 -31 52 -8 -4 -11 3 -9 21 2 26 0 28 -42 28 -25 0 -48 -5 -51
-11z m83 -4 c3 -5 2 -12 -3 -15 -5 -3 -9 1 -9 9 0 17 3 19 12 6z m40 -85 c0
-25 -3 -47 -5 -50 -3 -3 -5 19 -5 49 0 29 2 52 5 50 3 -2 6 -24 5 -49z"/>
<path d="M3200 5539 c-164 -8 -483 -64 -545 -96 -11 -6 -36 -13 -55 -17 -80
-15 -382 -150 -431 -192 -8 -8 -19 -14 -24 -14 -5 0 -26 -11 -47 -25 -21 -14
-57 -37 -80 -52 -24 -16 -47 -33 -53 -39 -5 -6 -23 -19 -40 -29 -76 -46 -371
-329 -413 -394 -9 -14 -43 -59 -74 -99 -32 -40 -58 -78 -58 -84 0 -6 -8 -20
-17 -31 -20 -20 -87 -137 -103 -177 -5 -14 -15 -32 -20 -40 -6 -8 -15 -26 -21
-40 -6 -14 -22 -48 -35 -75 -13 -28 -24 -57 -24 -65 0 -9 -6 -24 -14 -35 -7
-11 -16 -38 -20 -60 -4 -22 -14 -53 -22 -70 -7 -16 -18 -50 -23 -75 -5 -25
-16 -74 -24 -110 -49 -210 -71 -526 -49 -700 14 -106 49 -302 60 -331 5 -13
13 -46 17 -73 3 -27 13 -59 20 -70 7 -12 16 -37 20 -56 4 -19 13 -45 21 -57 8
-12 14 -28 14 -34 0 -12 45 -123 61 -149 5 -8 19 -35 32 -60 45 -88 101 -186
136 -235 19 -27 44 -63 55 -80 12 -16 32 -44 46 -61 14 -18 35 -45 47 -61 40
-53 314 -323 328 -323 4 0 22 -12 40 -28 70 -58 218 -153 334 -214 42 -21 83
-43 91 -48 31 -19 127 -60 141 -60 8 0 23 -7 33 -15 11 -8 29 -15 40 -15 12
-1 39 -8 61 -16 77 -29 310 -80 475 -104 82 -12 361 -12 460 0 90 11 288 46
312 55 9 4 43 13 75 20 32 7 81 21 108 31 112 40 182 66 210 79 17 7 41 18 55
24 14 6 32 15 40 20 8 5 49 28 90 51 41 23 91 52 110 64 70 44 195 129 200
136 3 4 32 29 65 55 33 26 89 78 124 114 112 115 321 368 321 389 0 4 8 18 18
32 54 75 202 368 202 401 0 8 6 23 14 34 7 11 16 38 20 60 4 22 14 50 21 62 8
12 19 45 24 75 6 29 17 85 25 123 48 227 70 532 48 663 -7 37 -21 121 -31 187
-25 151 -46 245 -71 313 -11 29 -20 63 -20 75 0 13 -4 27 -9 32 -5 6 -23 44
-41 85 -48 114 -127 268 -171 335 -21 33 -48 74 -59 90 -10 17 -30 43 -42 58
-29 36 -71 90 -124 159 -23 29 -88 96 -144 148 -57 52 -111 102 -119 110 -9 8
-41 33 -71 55 -30 22 -59 43 -65 48 -15 12 -137 90 -167 107 -85 47 -315 160
-326 160 -7 0 -34 9 -60 19 -129 52 -294 93 -512 125 -131 20 -218 23 -390 15z
m1340 -718 c10 -17 90 -46 89 -33 -4 24 5 32 31 32 17 0 30 -5 30 -12 0 -6 10
-23 23 -37 12 -14 15 -20 6 -13 -13 9 -16 9 -16 -3 0 -8 6 -15 14 -15 7 0 19
-12 25 -26 11 -23 10 -29 -10 -44 -20 -17 -21 -23 -13 -62 6 -24 19 -61 30
-82 19 -37 20 -41 4 -58 -9 -10 -24 -18 -33 -18 -10 0 -23 -6 -29 -14 -7 -8
-28 -17 -49 -21 -51 -9 -102 -27 -97 -35 2 -4 -2 -7 -10 -7 -8 0 -12 3 -10 7
2 4 -3 7 -12 7 -9 0 -18 -9 -21 -19 -3 -13 -14 -18 -38 -18 -22 0 -44 -9 -66
-28 -39 -33 -105 -56 -115 -39 -4 6 -10 1 -14 -12 -8 -19 -15 -21 -56 -18 -44
3 -51 0 -80 -31 -27 -28 -36 -32 -47 -23 -12 10 -17 8 -26 -8 -7 -14 -21 -21
-41 -21 -17 0 -28 -4 -25 -8 3 -5 -1 -9 -9 -9 -8 0 -12 4 -9 9 12 19 -22 6
-47 -18 -14 -14 -36 -26 -47 -27 -21 -1 -42 -35 -47 -73 -2 -16 2 -21 13 -19
10 2 17 4 17 5 0 1 8 3 18 5 23 4 60 -31 50 -48 -4 -7 0 -6 10 2 25 20 93 -1
100 -31 5 -18 8 -19 21 -8 11 8 16 30 16 65 0 65 14 80 59 64 17 -6 31 -15 31
-19 0 -5 9 -12 20 -15 13 -4 23 -18 27 -36 3 -16 9 -29 14 -29 5 0 6 -12 3
-27 -7 -39 9 -86 29 -89 9 -1 15 1 12 5 -2 4 2 8 10 8 8 0 12 -4 9 -9 -3 -4 4
-8 15 -8 11 0 25 -10 32 -22 11 -21 12 -20 46 16 19 20 38 34 42 32 4 -3 8 1
8 9 0 11 -4 12 -13 4 -9 -7 -12 -6 -9 8 1 10 8 17 15 15 6 -1 9 2 5 8 -3 6
-10 8 -15 5 -10 -6 -36 30 -42 55 -2 8 -9 21 -16 28 -7 8 -10 18 -7 23 4 5 -5
9 -19 9 -18 0 -26 5 -26 17 0 9 -3 14 -6 10 -7 -7 -34 17 -34 30 0 5 10 13 23
18 14 7 22 18 21 33 -1 17 2 20 9 13 15 -15 40 -14 30 2 -4 6 19 -10 51 -38
33 -27 65 -65 73 -84 9 -22 18 -30 24 -24 14 14 99 -6 99 -23 0 -7 5 -16 12
-20 7 -4 8 -3 4 4 -9 15 42 16 77 3 30 -12 89 -70 82 -81 -3 -5 -1 -11 5 -15
5 -3 10 -26 10 -51 0 -37 -4 -46 -24 -55 -37 -17 -76 -4 -76 26 0 16 -9 28
-27 37 -16 7 -32 23 -38 36 -9 20 -16 23 -60 21 -59 -3 -69 -7 -56 -22 6 -8 5
-25 -3 -48 -11 -31 -10 -39 9 -69 12 -18 29 -34 39 -36 10 -1 26 -10 35 -18
10 -9 21 -16 25 -16 9 0 74 -48 102 -75 11 -11 44 -40 72 -65 28 -25 52 -50
52 -57 0 -6 9 -15 21 -18 16 -5 20 -13 17 -34 -3 -21 0 -27 15 -29 23 -1 75
-59 78 -84 1 -10 2 -22 3 -28 0 -5 10 -16 21 -23 10 -8 20 -26 20 -39 1 -13
11 -34 24 -47 16 -16 21 -30 17 -52 -3 -19 0 -29 9 -29 20 0 38 -54 32 -99 -2
-22 -1 -39 2 -36 4 2 13 0 21 -5 11 -7 15 -28 15 -75 0 -53 3 -65 16 -65 9 0
22 -14 29 -32 7 -18 20 -49 29 -68 12 -26 16 -64 15 -145 0 -98 -3 -116 -27
-167 -19 -41 -32 -58 -46 -58 -15 0 -19 -6 -17 -30 1 -16 10 -38 20 -49 13
-14 20 -41 23 -91 4 -60 1 -76 -17 -106 -21 -33 -83 -74 -114 -74 -9 0 -21 10
-27 22 -7 13 -21 29 -31 37 -15 10 -19 23 -17 55 2 27 -1 40 -9 38 -7 -1 -12
9 -12 23 0 14 5 25 10 25 13 0 13 37 1 45 -5 3 -12 1 -15 -4 -7 -10 -25 -9
-43 2 -7 5 -18 5 -23 2 -15 -9 -116 41 -134 67 -8 12 -12 26 -9 32 4 6 -2 4
-12 -4 -11 -9 -16 -10 -11 -2 4 7 1 12 -8 12 -18 0 -64 65 -69 98 -2 12 -12
28 -22 36 -12 9 -20 29 -22 52 -5 69 -15 119 -26 126 -6 3 -11 15 -12 26 -1
11 -8 29 -16 39 -13 16 -12 17 3 5 14 -11 16 -11 14 5 -3 14 -11 17 -42 15
-41 -3 -74 13 -77 38 -1 8 -5 15 -9 15 -10 0 -48 37 -48 47 0 5 -25 34 -57 65
-31 31 -52 50 -48 42 6 -11 5 -12 -6 -1 -7 6 -23 12 -35 12 -14 0 -24 8 -27
22 -5 19 -8 20 -23 7 -20 -17 -18 -17 -35 -3 -8 6 -31 12 -53 12 -53 2 -76 11
-76 29 0 12 -3 13 -14 4 -10 -8 -16 -8 -25 2 -6 8 -7 18 -3 23 4 4 -1 2 -10
-5 -15 -11 -17 -10 -13 8 2 12 0 19 -5 16 -5 -3 -11 -1 -15 5 -4 6 -10 8 -15
5 -13 -8 -92 73 -84 86 3 6 -3 13 -15 16 -31 8 -72 101 -67 152 3 33 1 41 -13
41 -20 0 -77 113 -65 131 4 7 3 10 -3 6 -6 -4 -19 3 -29 16 -19 21 -19 21 1 7
19 -14 19 -14 6 3 -8 9 -16 15 -19 12 -9 -9 -42 27 -35 38 3 5 1 7 -4 4 -18
-11 -62 32 -74 73 -8 25 -20 42 -33 46 -12 3 -29 16 -39 28 -10 11 -16 15 -12
8 5 -10 3 -11 -11 -4 -11 5 -32 15 -47 21 -15 6 -26 15 -23 19 2 4 -11 9 -31
10 -20 2 -40 5 -45 9 -5 3 -22 -7 -37 -21 -34 -33 -84 -49 -101 -33 -9 8 -11
8 -7 1 7 -12 -17 -37 -45 -47 -10 -4 -18 -17 -18 -30 0 -23 -100 -137 -120
-137 -6 0 -10 -7 -10 -15 0 -9 -6 -18 -14 -21 -8 -3 -20 -19 -26 -35 -11 -26
-21 -33 -41 -31 -3 1 -4 -10 -1 -23 7 -39 -6 -75 -27 -75 -16 0 -18 -6 -15
-39 2 -26 -1 -45 -11 -54 -8 -8 -11 -18 -7 -23 4 -5 -1 -3 -10 4 -15 12 -16
10 -12 -16 4 -22 -3 -38 -32 -71 -38 -43 -131 -111 -153 -111 -6 0 -23 -7 -36
-16 -14 -9 -47 -17 -74 -17 -27 -1 -47 -5 -45 -8 2 -3 -3 -6 -11 -6 -8 0 -12
3 -10 7 2 4 -2 7 -10 7 -8 0 -12 -4 -9 -9 3 -5 -14 -17 -38 -28 -33 -15 -46
-16 -57 -7 -12 9 -13 9 -7 -1 8 -14 -69 -92 -91 -92 -7 0 -10 -9 -8 -20 2 -11
0 -18 -6 -15 -5 4 -9 1 -9 -5 0 -6 -12 -27 -26 -46 -18 -24 -34 -34 -53 -34
-34 0 -71 -26 -71 -49 0 -10 -9 -26 -19 -35 -16 -14 -17 -22 -8 -46 9 -24 7
-40 -7 -82 -24 -68 -44 -100 -58 -92 -6 4 -8 3 -4 -4 3 -6 2 -13 -4 -17 -5 -3
-10 -13 -10 -21 0 -19 -98 -116 -110 -109 -5 3 -15 -4 -22 -14 -18 -26 -66
-44 -96 -36 -13 3 -21 2 -18 -3 3 -5 -1 -9 -9 -9 -8 0 -12 4 -10 8 3 4 -3 6
-12 5 -15 -3 -17 -12 -15 -59 3 -47 1 -57 -16 -66 -15 -8 -19 -18 -16 -38 5
-33 -1 -42 -39 -66 -26 -17 -63 -16 -77 2 -3 3 -14 11 -25 17 -36 20 -66 148
-33 141 6 -1 12 6 13 16 2 9 -1 15 -5 12 -5 -3 -12 -1 -15 5 -4 6 -1 9 7 8 8
-2 12 6 10 24 -2 15 3 37 10 50 18 32 19 62 2 47 -10 -8 -12 -6 -9 10 2 12 0
19 -5 16 -19 -12 -40 26 -36 66 3 31 0 42 -14 49 -12 6 -21 26 -25 53 -8 49
10 128 27 124 15 -3 17 22 6 46 -11 22 5 73 37 121 14 20 22 43 19 51 -9 22 4
65 19 62 12 -2 12 1 6 33 -5 24 21 90 35 90 8 0 11 10 9 28 -4 25 5 57 26 92
5 8 14 26 20 40 29 63 127 209 146 216 8 4 12 11 8 18 -4 6 1 5 10 -2 14 -12
16 -11 12 8 -3 18 -2 20 10 10 12 -10 13 -8 10 10 -3 18 -2 20 10 10 12 -10
13 -8 10 10 -2 13 -2 20 1 17 8 -7 54 34 54 48 0 16 126 117 142 113 7 -1 25
9 40 22 14 14 40 37 57 53 l30 27 -22 49 c-17 39 -28 51 -51 55 -32 7 -96 -26
-96 -49 0 -8 -6 -18 -12 -22 -7 -4 -18 -17 -24 -27 -16 -30 -59 -38 -79 -16
-12 14 -14 23 -7 37 14 25 13 35 -6 56 -11 13 -12 18 -3 15 7 -2 15 5 16 14 8
45 96 101 127 82 23 -15 40 -13 45 5 3 10 22 22 49 29 33 9 62 29 107 73 75
74 98 84 138 64 21 -11 29 -23 29 -43 0 -25 -12 -41 -81 -107 -33 -31 -48 -76
-42 -124 3 -23 12 -45 20 -48 7 -3 35 4 61 15 29 13 51 17 58 11 7 -5 11 -4
12 4 9 95 21 141 38 153 10 7 25 19 33 26 32 29 54 36 78 25 27 -12 29 -20 7
-42 -12 -11 -14 -19 -6 -27 6 -6 8 -17 5 -24 -7 -20 26 -29 50 -14 34 21 74
29 86 17 7 -7 13 -2 20 16 6 15 16 27 23 28 7 0 21 2 31 4 9 2 15 0 12 -5 -3
-5 3 -7 12 -6 26 4 27 32 4 65 -11 15 -18 31 -14 35 3 3 -4 6 -16 6 -12 0 -33
7 -47 16 -13 9 -27 14 -31 11 -3 -3 -11 0 -19 7 -7 8 -24 11 -38 9 -29 -6 -59
13 -49 31 4 6 -2 4 -12 -4 -11 -9 -16 -10 -11 -2 5 8 0 12 -17 12 -14 0 -30 7
-37 15 -7 9 -15 13 -18 11 -2 -3 -11 1 -18 9 -8 8 -24 12 -37 10 -32 -7 -57 4
-57 23 0 14 -7 17 -39 14 -44 -4 -81 11 -81 34 0 8 -13 17 -29 20 -18 4 -31
14 -34 26 -4 14 -10 17 -19 12 -24 -15 -63 -12 -90 7 -15 10 -38 19 -52 19
-40 0 -73 17 -79 41 -5 17 -9 20 -19 12 -8 -7 -22 -7 -35 -2 -29 11 -31 59 -4
83 21 19 49 136 32 134 -3 0 -12 0 -18 1 -17 1 -17 21 0 21 8 0 14 7 14 15 0
8 -4 12 -8 9 -4 -2 -11 0 -14 6 -4 6 -1 9 6 8 12 -3 15 2 18 37 1 18 40 55 57
55 19 0 45 -30 38 -43 -5 -8 -2 -8 7 1 7 6 22 12 32 12 10 0 30 9 44 20 56 44
152 9 157 -57 1 -18 -1 -30 -5 -27 -4 2 -11 0 -14 -6 -4 -6 -3 -9 2 -8 4 2 23
-3 41 -11 28 -12 36 -21 34 -42 -1 -3 5 -6 13 -6 8 0 12 3 10 7 -2 3 7 6 20 6
13 0 21 -4 19 -8 -3 -5 -10 -5 -16 -2 -6 4 -8 2 -5 -4 4 -5 16 -8 28 -5 15 4
27 -2 43 -22 20 -25 24 -26 37 -13 12 14 18 13 51 -8 21 -14 38 -22 38 -19 0
3 19 -3 43 -12 41 -16 59 -31 52 -43 -2 -3 11 -4 29 -2 21 2 39 -2 49 -13 9
-9 20 -14 24 -12 13 8 98 -37 98 -50 0 -15 4 -16 28 -7 23 8 67 -11 67 -29 0
-10 8 -13 25 -9 44 8 91 -19 86 -50 0 -7 18 -5 34 3 18 9 75 -6 75 -21 0 -4
16 -11 36 -14 19 -4 45 -17 57 -29 20 -20 52 -34 43 -19 -2 4 26 7 63 7 47 1
74 6 93 19 18 12 39 17 59 14 24 -4 33 -1 36 12 5 19 47 43 57 32 10 -9 56
-10 50 -1 -8 14 34 49 59 49 13 0 29 -6 36 -12 7 -7 12 -8 11 -3 -5 26 3 37
38 52 20 9 41 16 45 15 4 -1 18 4 30 13 25 17 63 20 72 5 4 -6 11 -8 16 -4 6
3 5 12 -3 22 -7 10 -9 14 -4 10 5 -4 15 0 23 8 8 8 27 13 41 10 19 -2 35 4 54
21 25 24 56 31 88 22 8 -2 14 1 15 6 1 24 19 37 47 33 16 -3 32 0 35 5 3 6 1
7 -5 3 -6 -3 -13 -2 -16 3 -7 11 13 9 31 -2 7 -5 16 0 22 12 12 22 68 45 76
30 9 -14 75 55 75 79 0 28 55 90 83 94 27 5 78 -8 87 -21z m-2150 -187 c0 -8
-19 -13 -24 -6 -3 5 1 9 9 9 8 0 15 -2 15 -3z m1600 -80 c0 -8 -19 -13 -24 -6
-3 5 1 9 9 9 8 0 15 -2 15 -3z m-1406 -392 c3 -5 -1 -9 -9 -9 -8 0 -12 4 -9 9
3 4 7 8 9 8 2 0 6 -4 9 -8z m1711 -11 c3 -5 2 -12 -3 -15 -5 -3 -9 1 -9 9 0
17 3 19 12 6z m-1468 -806 c0 -8 -4 -12 -9 -9 -5 3 -6 10 -3 15 9 13 12 11 12
-6z m-1452 -634 c3 -5 2 -12 -3 -15 -5 -3 -9 1 -9 9 0 17 3 19 12 6z m1873
-75 c12 -12 15 -41 15 -135 l-1 -120 -62 -113 c-73 -131 -89 -159 -150 -264
-80 -136 -98 -169 -110 -193 -6 -13 -67 -121 -135 -241 -69 -119 -125 -221
-125 -226 0 -6 -15 -27 -34 -47 l-34 -37 -163 0 c-192 0 -209 3 -201 33 3 12
8 27 12 32 4 6 19 30 32 55 14 25 56 97 93 160 37 63 81 139 96 167 16 29 44
76 62 105 19 29 53 87 76 128 23 41 50 89 60 105 106 173 171 298 166 315 -6
19 -16 20 -320 20 -382 0 -354 -11 -356 137 -2 114 4 130 54 136 18 2 252 3
521 1 419 -2 491 -5 504 -18z m1198 3 c13 -11 15 -32 12 -143 l-4 -131 -42
-71 c-23 -39 -42 -74 -42 -78 0 -4 -25 -47 -55 -97 -31 -50 -64 -107 -74 -127
-9 -21 -28 -55 -41 -77 -13 -22 -40 -69 -60 -105 -20 -36 -47 -83 -60 -105
-89 -153 -110 -190 -135 -240 -48 -99 -101 -180 -126 -192 -25 -13 -293 -18
-337 -7 -27 8 -39 48 -21 71 15 18 80 126 128 213 17 30 42 73 56 95 13 22 45
76 70 120 25 44 50 87 55 95 4 8 46 80 93 160 47 80 106 181 131 225 30 50 46
88 44 105 l-3 25 -320 5 c-176 3 -328 9 -337 14 -16 7 -18 23 -18 121 0 80 4
116 13 123 19 16 108 19 604 17 362 -2 456 -5 469 -16z m-3071 -168 c3 -5 2
-12 -3 -15 -5 -3 -9 1 -9 9 0 17 3 19 12 6z"/>
<path d="M1901 4514 c0 -11 3 -14 6 -6 3 7 2 16 -1 19 -3 4 -6 -2 -5 -13z"/>
<path d="M3080 4140 c0 -5 5 -10 10 -10 6 0 10 5 10 10 0 6 -4 10 -10 10 -5 0
-10 -4 -10 -10z"/>
<path d="M2744 3621 c2 -4 0 -16 -5 -28 -6 -18 -16 -23 -44 -23 -24 0 -35 -5
-35 -15 0 -8 -12 -18 -27 -21 -16 -4 -37 -14 -48 -23 -36 -30 -84 -61 -93 -61
-5 0 -17 -9 -27 -20 -10 -11 -24 -20 -31 -20 -18 0 -11 -27 17 -61 22 -27 29
-30 81 -28 39 2 64 -3 75 -12 16 -13 22 -13 48 1 25 12 30 22 33 55 3 57 48
165 89 216 18 23 12 45 -13 45 -12 0 -21 -2 -20 -5z"/>
<path d="M3785 3604 c-17 -26 -17 -27 14 -56 17 -16 31 -38 31 -49 0 -10 4
-19 9 -19 13 0 26 -39 26 -80 0 -19 5 -37 10 -40 6 -3 19 -14 30 -26 19 -20
26 -21 115 -14 52 4 91 7 86 8 -6 1 3 15 18 31 l27 28 -26 17 c-14 9 -25 25
-25 35 0 12 -6 18 -17 17 -21 -3 -103 51 -103 68 0 8 -12 12 -32 12 -26 -1
-35 5 -46 27 -9 18 -18 25 -24 19 -13 -13 -57 -2 -68 18 -5 10 -6 20 -3 24 3
3 4 6 1 6 -3 0 -13 -12 -23 -26z"/>
<path d="M2265 3282 c3 -3 -3 -15 -12 -26 -13 -15 -14 -17 -2 -8 12 9 16 9 16
-2 0 -15 -14 -16 -36 -2 -9 6 -12 5 -7 -2 3 -6 2 -14 -4 -17 -7 -5 -8 -11 -1
-19 7 -8 -1 -28 -25 -64 -20 -28 -39 -52 -43 -52 -3 0 -8 -13 -9 -29 -2 -24 2
-29 18 -28 11 1 22 7 24 14 3 7 15 13 26 13 14 0 19 4 14 13 -5 7 0 6 11 -3
10 -8 16 -10 12 -3 -5 7 2 18 15 27 31 19 85 29 92 17 9 -14 34 -7 50 14 9 12
26 19 49 19 22 0 33 4 29 11 -3 5 1 4 10 -2 17 -15 28 -8 28 18 0 11 10 21 25
25 27 7 33 28 13 41 -16 9 -57 12 -56 4 0 -3 0 -13 -1 -21 -1 -13 -3 -13 -10
0 -6 8 -8 17 -6 20 5 8 -122 6 -130 -2 -4 -3 -20 -2 -36 4 -26 9 -33 18 -31
39 1 3 -6 6 -14 6 -7 0 -12 -3 -9 -5z"/>
<path d="M4006 3238 c3 -4 0 -8 -5 -8 -21 0 -11 -21 14 -30 21 -8 30 -25 26
-52 -1 -7 26 -4 35 4 13 13 99 -26 90 -41 -3 -4 15 -7 39 -7 24 0 41 5 38 10
-3 5 -2 7 3 5 5 -3 35 -18 66 -33 31 -15 62 -34 69 -42 6 -8 20 -14 30 -14 11
0 19 -7 19 -15 0 -8 8 -15 18 -15 12 0 18 8 18 24 0 14 -2 24 -5 24 -28 -2
-42 8 -60 45 -12 24 -21 51 -21 60 0 9 -7 17 -15 17 -9 0 -25 15 -36 34 -22
38 -59 52 -88 35 -11 -7 -26 -9 -37 -4 -24 10 -63 14 -62 6 2 -21 -5 -30 -29
-36 -22 -5 -32 -2 -46 16 -17 21 -73 37 -61 17z m449 -207 c3 -5 2 -12 -3 -15
-5 -3 -9 1 -9 9 0 17 3 19 12 6z"/>
<path d="M1472 2178 c-15 -15 -15 -33 1 -45 19 -16 72 8 73 33 1 22 -10 25
-35 10 -10 -6 -12 -5 -7 2 10 16 -17 15 -32 0z"/>
<path d="M5042 2177 c-18 -22 11 -56 35 -41 25 15 23 48 -3 52 -11 2 -26 -3
-32 -11z"/>
<path d="M1504 5359 c1 -15 -1 -26 -5 -23 -4 2 -11 0 -14 -6 -4 -6 -3 -10 2
-9 20 3 25 -2 14 -15 -10 -12 -8 -14 11 -11 40 5 75 23 75 39 0 8 -5 12 -11 8
-23 -14 -33 -9 -31 17 2 22 -2 27 -20 27 -19 0 -22 -5 -21 -27z"/>
<path d="M1555 5361 c-3 -5 -2 -12 3 -15 5 -3 9 1 9 9 0 17 -3 19 -12 6z"/>
<path d="M5088 5373 c-6 -7 -7 -13 -2 -13 4 0 3 -5 -4 -12 -20 -20 -14 -47 12
-54 34 -8 46 2 46 37 0 27 10 34 41 31 3 -1 6 5 6 11 0 17 -85 16 -99 0z"/>
<path d="M5623 5075 c0 -8 4 -12 9 -9 5 3 6 10 3 15 -9 13 -12 11 -12 -6z"/>
<path d="M5587 4965 c-15 -8 -30 -14 -34 -14 -4 0 -8 -8 -9 -17 -1 -9 0 -13 4
-10 7 8 53 -35 47 -45 -3 -4 5 -5 17 -1 16 4 19 2 13 -9 -5 -9 -5 -11 2 -4 19
18 23 84 7 100 -18 18 -13 18 -47 0z"/>
<path d="M5437 4883 c-4 -3 -7 -25 -7 -48 0 -47 7 -60 25 -45 10 8 12 3 10
-18 -3 -36 23 -39 36 -5 9 24 46 45 64 36 6 -3 -5 8 -22 25 -18 17 -33 36 -33
43 0 6 -7 9 -15 5 -8 -3 -15 -1 -15 4 0 6 -5 10 -11 10 -5 0 -7 -6 -3 -12 6
-10 5 -10 -8 -1 -8 7 -18 10 -21 6z"/>
<path d="M873 4865 c0 -8 4 -12 9 -9 5 3 6 10 3 15 -9 13 -12 11 -12 -6z"/>
<path d="M5774 4576 c-3 -8 -18 -16 -35 -20 -23 -4 -29 -11 -29 -30 0 -16 7
-27 21 -31 28 -9 47 11 53 58 5 37 0 49 -10 23z"/>
<path d="M553 3993 c-8 -24 -44 -63 -58 -63 -6 0 -11 -16 -11 -34 0 -30 3 -33
16 -23 8 6 12 8 9 4 -8 -10 33 -57 49 -57 18 0 52 -42 45 -54 -4 -6 1 -5 10 3
18 14 23 26 8 16 -5 -3 -12 -2 -15 3 -7 11 81 9 91 -2 4 -5 3 -6 -3 -3 -6 3
-11 0 -11 -8 0 -11 4 -12 14 -4 7 6 10 15 7 20 -3 5 6 13 19 18 13 5 24 15 25
23 1 7 5 32 10 56 8 35 7 40 -4 31 -10 -8 -12 -6 -9 10 2 12 -1 20 -8 18 -7
-1 -11 4 -9 12 3 12 1 12 -14 0 -12 -9 -15 -9 -10 -1 5 8 0 12 -17 12 -23 0
-52 22 -42 31 2 3 -11 5 -30 5 -18 0 -33 -3 -32 -6 1 -3 -2 -6 -8 -7 -5 -2 -9
2 -7 7 4 17 -8 11 -15 -7z m-46 -88 c0 -8 -4 -12 -9 -9 -5 3 -6 10 -3 15 9 13
12 11 12 -6z"/>
<path d="M643 3773 c0 -9 4 -10 14 -2 7 6 13 12 13 14 0 1 -6 2 -13 2 -8 0
-14 -6 -14 -14z"/>
<path d="M6195 3721 c-3 -5 -2 -12 3 -15 5 -3 9 1 9 9 0 17 -3 19 -12 6z"/>
<path d="M6051 3497 c-6 -8 -7 -18 -3 -23 4 -4 0 -3 -9 4 -14 10 -16 8 -14
-16 1 -15 -3 -34 -9 -42 -6 -8 -7 -12 -2 -8 5 4 21 1 37 -7 20 -11 30 -12 35
-3 4 6 3 8 -4 4 -6 -3 -13 -2 -16 3 -7 10 13 9 31 -2 17 -11 26 9 13 32 -5 11
-10 29 -10 41 0 12 -4 18 -10 15 -6 -4 -8 -10 -6 -14 3 -4 -1 -8 -9 -8 -7 0
-12 8 -10 19 5 21 1 23 -14 5z"/>
<path d="M6003 3455 c0 -8 4 -12 9 -9 5 3 6 10 3 15 -9 13 -12 11 -12 -6z"/>
<path d="M455 3515 c-3 -8 -7 -22 -10 -31 -7 -22 22 -54 49 -54 12 0 34 9 50
19 17 11 34 17 39 14 6 -3 7 -1 3 6 -4 6 -12 9 -17 5 -5 -3 -14 8 -20 25 -10
28 -15 31 -50 31 -27 0 -41 -5 -44 -15z"/>
<path d="M5735 1561 c-3 -5 -2 -12 3 -15 5 -3 9 1 9 9 0 17 -3 19 -12 6z"/>
<path d="M1049 1453 c-13 -16 -12 -17 4 -4 9 7 17 15 17 17 0 8 -8 3 -21 -13z"/>
<path d="M1314 1456 c-3 -8 -19 -20 -35 -26 -57 -24 -26 -67 41 -57 20 3 25
10 25 33 -1 16 -6 28 -12 27 -7 -2 -10 6 -8 17 4 23 -3 27 -11 6z"/>
<path d="M5279 987 c6 -8 7 -18 3 -22 -4 -5 -1 -5 6 -1 10 6 10 11 1 22 -6 8
-14 14 -16 14 -3 0 0 -6 6 -13z"/>
<path d="M5083 935 c0 -8 4 -12 9 -9 5 3 6 10 3 15 -9 13 -12 11 -12 -6z"/>
<path d="M4646 918 c6 -10 -33 -48 -50 -48 -7 0 -19 -7 -26 -16 -11 -12 -11
-15 1 -12 8 2 13 -3 12 -9 -2 -7 4 -13 12 -13 8 0 15 -7 15 -16 0 -8 4 -13 8
-10 5 3 9 -1 9 -9 0 -8 -4 -12 -8 -9 -4 2 -11 -1 -15 -7 -4 -7 -3 -9 3 -6 16
10 63 -38 58 -61 -3 -15 5 -22 34 -31 51 -15 74 -14 65 2 -6 8 -3 8 9 -1 14
-12 16 -11 12 8 -3 16 -1 19 8 12 9 -8 13 -1 14 26 1 20 7 38 12 40 7 2 5 10
-4 19 -8 8 -15 26 -15 39 0 18 -4 23 -12 18 -10 -6 -10 -4 0 8 9 11 10 18 2
23 -6 3 -7 11 -4 17 4 6 2 8 -3 5 -10 -7 -47 26 -39 34 3 2 -19 4 -49 4 -29 0
-51 -3 -49 -7z m125 -45 c17 -20 18 -23 3 -10 -11 9 -23 15 -26 12 -2 -3 -5 2
-5 10 0 19 -1 20 28 -12z"/>
<path d="M2599 665 c-3 -2 -14 -6 -25 -8 -21 -3 -26 -14 -18 -39 6 -19 -21
-89 -33 -87 -19 3 -19 -4 -4 -63 l16 -63 57 0 c31 -1 56 2 56 5 -2 20 4 30 17
30 9 0 18 13 22 31 3 17 17 37 30 46 17 11 21 19 14 26 -8 8 -5 17 7 31 9 11
12 16 6 13 -16 -9 -63 41 -59 62 2 10 -3 18 -10 18 -8 0 -11 -5 -8 -11 3 -6 0
-5 -8 2 -13 12 -51 17 -60 7z"/>
<path d="M3763 653 c0 -9 4 -10 14 -2 7 6 13 12 13 14 0 1 -6 2 -13 2 -8 0
-14 -6 -14 -14z"/>
<path d="M3966 532 c-3 -5 1 -9 9 -9 8 0 12 4 9 9 -3 4 -7 8 -9 8 -2 0 -6 -4
-9 -8z"/>
<path d="M3886 292 c-3 -5 1 -9 9 -9 8 0 12 4 9 9 -3 4 -7 8 -9 8 -2 0 -6 -4
-9 -8z"/>
<path d="M2963 653 c0 -9 4 -10 14 -2 7 6 13 12 13 14 0 1 -6 2 -13 2 -8 0
-14 -6 -14 -14z"/>
<path d="M3411 546 c-7 -8 -11 -32 -9 -53 3 -37 4 -38 43 -40 22 -1 42 -2 45
-3 27 -9 38 -6 35 9 -1 9 5 24 13 34 9 10 12 17 7 15 -6 -2 -11 1 -12 5 -3 13
-70 47 -92 47 -10 0 -24 -6 -30 -14z"/>
<path d="M6195 4561 c-3 -5 -2 -12 3 -15 5 -3 9 1 9 9 0 17 -3 19 -12 6z"/>
<path d="M6204 1928 c-12 -14 -13 -18 -3 -10 9 6 18 10 21 7 2 -3 5 2 5 10 0
19 0 19 -23 -7z"/>
<path d="M6149 1833 c-13 -16 -12 -17 4 -4 16 13 21 21 13 21 -2 0 -10 -8 -17
-17z"/>
<path d="M529 1738 c-4 -12 -5 -57 0 -53 6 6 10 55 4 55 -1 0 -3 -1 -4 -2z"/>
<path d="M683 1455 c0 -8 4 -12 9 -9 5 3 6 10 3 15 -9 13 -12 11 -12 -6z"/>
<path d="M723 1415 c0 -8 4 -12 9 -9 5 3 6 10 3 15 -9 13 -12 11 -12 -6z"/>
<path d="M1323 775 c0 -8 4 -12 9 -9 5 3 6 10 3 15 -9 13 -12 11 -12 -6z"/>
<path d="M1363 735 c0 -8 4 -12 9 -9 5 3 6 10 3 15 -9 13 -12 11 -12 -6z"/>
<path d="M1483 655 c0 -8 4 -12 9 -9 5 3 6 10 3 15 -9 13 -12 11 -12 -6z"/>
</g>
</svg>
