<?xml version="1.0" encoding="UTF-8" standalone="no"?>
<svg
   xmlns:dc="http://purl.org/dc/elements/1.1/"
   xmlns:cc="http://creativecommons.org/ns#"
   xmlns:rdf="http://www.w3.org/1999/02/22-rdf-syntax-ns#"
   xmlns:svg="http://www.w3.org/2000/svg"
   xmlns="http://www.w3.org/2000/svg"
   xmlns:sodipodi="http://sodipodi.sourceforge.net/DTD/sodipodi-0.dtd"
   xmlns:inkscape="http://www.inkscape.org/namespaces/inkscape"
   sodipodi:docname="iconToMap.svg"
   inkscape:version="1.0beta2 (2b71d25, 2019-12-03)"
   id="svg8"
   version="1.1"
   viewBox="0 0 50 50"
   height="50mm"
   width="50mm">
  <defs
     id="defs2">
    <marker
       inkscape:isstock="true"
       style="overflow:visible"
       id="TriangleOutL"
       refX="0"
       refY="0"
       orient="auto"
       inkscape:stockid="TriangleOutL">
      <path
         inkscape:connector-curvature="0"
         transform="scale(0.8)"
         style="fill:#ffff00;fill-opacity:1;fill-rule:evenodd;stroke:#ffff00;stroke-width:1pt;stroke-opacity:1"
         d="M 5.77,0 -2.88,5 V -5 Z"
         id="path1118" />
    </marker>
  </defs>
  <sodipodi:namedview
     inkscape:window-maximized="1"
     inkscape:window-y="36"
     inkscape:window-x="0"
     inkscape:window-height="1012"
     inkscape:window-width="1920"
     showgrid="false"
     inkscape:document-rotation="0"
     inkscape:current-layer="layer1"
     inkscape:document-units="mm"
     inkscape:cy="60.677535"
     inkscape:cx="205.81644"
     inkscape:zoom="1.979899"
     inkscape:pageshadow="2"
     inkscape:pageopacity="0.0"
     borderopacity="1.0"
     bordercolor="#666666"
     pagecolor="#ffffff"
     id="base" />
  <metadata
     id="metadata5">
    <rdf:RDF>
      <cc:Work
         rdf:about="">
        <dc:format>image/svg+xml</dc:format>
        <dc:type
           rdf:resource="http://purl.org/dc/dcmitype/StillImage" />
        <dc:title></dc:title>
      </cc:Work>
    </rdf:RDF>
  </metadata>
  <g
     id="layer1"
     inkscape:groupmode="layer"
     inkscape:label="Layer 1">
    <g
       transform="matrix(0.77960615,0,0,0.77960615,-71.418801,-97.764096)"
       id="g3950">
      <ellipse
         style="opacity:1;fill:#0162c9;fill-opacity:1;stroke:none;stroke-width:0.53714;stroke-linecap:round"
         id="path972"
         cx="123.26544"
         cy="154.68019"
         rx="28.640076"
         ry="28.53714" />
      <path
         style="fill:#ffffff;stroke:none;stroke-width:0.264583px;stroke-linecap:butt;stroke-linejoin:miter;stroke-opacity:1"
         d="m 146.19771,165.64464 -2.39086,3.90492 -31.58541,8.36081 -3.84511,-2.3994 -8.23405,-30.78644 2.86449,-4.83501 29.9537,-8.14613 4.90332,2.50171 z"
         id="path961"
         inkscape:connector-curvature="0"
         sodipodi:nodetypes="ccccccccc" />
      <path
         inkscape:connector-curvature="0"
         id="path967"
         style="fill:#dddddd;fill-opacity:1;stroke:none;stroke-width:0.999999px;stroke-linecap:butt;stroke-linejoin:miter;stroke-opacity:1"
         d="m 516.94922,505.28906 c -24.10307,15.65825 -10.61358,42.58384 -6.00781,75.67383 l -21.72657,-1.44336 -15.16601,-7.45508 c -14.46478,4.92272 -23.06189,-0.105 -26.89063,-13.21875 l -21.64843,-10.64258 -0.89258,-2.85156 5.89258,-2.77734 20.76562,-20.21875 1.16016,-10.99414 -13.16407,3.72461 c -8.33147,21.70435 -61.56763,25.7854 -32.14843,71.07226 -1.03484,12.51602 -1.00176,24.73696 -8.61524,39.07422 l 3.14453,8.40625 c 8.08256,-7.31599 10.8323,-22.00463 14.48438,-35.44531 l 24.85351,35.95312 c -6.16191,8.31746 -22.95307,9.73965 -34.42968,18.08594 l 1.64843,8.53516 c 7.87295,-4.38682 15.55103,-6.89585 23.26758,-9.77539 9.32043,3.43483 18.5428,7.30743 27.54688,12.18359 l 14.86523,-3.74023 c -11.79477,-4.77203 -23.40453,-10.10822 -35.91601,-12.70899 4.59995,-2.25241 9.76582,-3.50141 10.89257,-11.91797 l 64.13086,-14.20507 c 9.48446,-18.8566 10.76383,-38.19068 5.36719,-57.91407 4.36173,-0.47478 11.1043,0.51813 17.49219,1.29297 l -2.83008,-10.39258 c -5.79991,-1.6255 -11.70852,-2.16409 -17.66797,-2.20703 -4.5919,-20.21567 -3.45924,-33.36124 7.11524,-34.84765 l -1.41211,-9.15235 z m -101.20313,47.33399 c 30.32281,12.34397 22.80508,28.58265 94.27149,36.6914 -1.12309,15.15474 -3.81493,27.57862 -10.65625,32.76953 -23.89746,3.88487 -48.33875,-3.20824 -73.49805,-24.77929 -5.82939,-15.04766 -26.38344,-31.01869 -10.11719,-44.68164 z"
         transform="scale(0.26458333)" />
      <path
         style="fill:#81cd75;fill-opacity:1;stroke:none;stroke-width:0.264583px;stroke-linecap:butt;stroke-linejoin:miter;stroke-opacity:1"
         d="m 136.77636,133.69092 c -7.13918,5.65854 -1.66525,13.30736 -1.58977,20.02227 l -5.74857,-0.38179 -1.27838,-9.14783 -6.15005,-2.24674 -7.73581,4.46102 -1.69112,-1.35253 -0.23618,-0.75426 6.698,-3.18849 0.66224,-5.80485 13.25375,-3.55433 z"
         id="path959"
         inkscape:connector-curvature="0"
         sodipodi:nodetypes="cccccccccccc" />
      <path
         id="rect944"
         style="opacity:1;fill:#f67402;fill-opacity:1;stroke-width:0.488;stroke-linecap:round"
         d="m 122.75391,137.57441 a 9.8654308,9.8654308 0 0 0 -9.85625,9.86554 9.8654308,9.8654308 0 0 0 4.30155,8.14628 c -0.008,-0.006 -0.017,-0.0108 -0.0253,-0.0165 3.047,2.78198 5.02454,6.56846 5.58208,10.68823 0.56274,-4.12689 2.55043,-7.91751 5.60948,-10.69753 a 9.8654308,9.8654308 0 0 0 4.26331,-8.12044 9.8654308,9.8654308 0 0 0 -9.86555,-9.86554 9.8654308,9.8654308 0 0 0 -0.009,0 z m 0.30954,5.98774 a 3.8734531,3.8734531 0 0 1 0.0403,0 3.8734531,3.8734531 0 0 1 3.87366,3.87315 3.8734531,3.8734531 0 0 1 -3.87366,3.87367 3.8734531,3.8734531 0 0 1 -3.87367,-3.87367 3.8734531,3.8734531 0 0 1 3.83336,-3.87315 z m -0.30954,27.50168 c -0.006,0.045 -0.0122,0.0899 -0.0186,0.13488 h 0.0372 c -0.006,-0.0449 -0.0126,-0.0899 -0.0186,-0.13488 z"
         inkscape:connector-curvature="0" />
      <path
         style="fill:#42a5e0;fill-opacity:1;stroke:none;stroke-width:0.264583px;stroke-linecap:butt;stroke-linejoin:miter;stroke-opacity:1"
         d="m 102.33197,153.9769 c 1.7178,-0.46343 3.56188,0.42995 5.38619,1.11081 -7.7115,-12.76334 5.81607,-11.9055 8.50594,-18.80477 l -13.21733,3.60658 -2.86449,4.83501 z"
         id="path963"
         inkscape:connector-curvature="0"
         sodipodi:nodetypes="cccccc" />
      <path
         style="fill:#f9d67a;fill-opacity:1;stroke:none;stroke-width:0.264583px;stroke-linecap:butt;stroke-linejoin:miter;stroke-opacity:1"
         d="m 102.33197,153.9769 c 5.90299,-1.44188 16.16577,10.10387 22.84659,10.52728 10.08713,0.73394 15.88223,-3.40286 20.61379,2.04535 l -1.9855,3.00003 -3.78291,1.02129 c -0.25778,-3.4097 -8.37058,0.43282 -17.30812,-1.05643 -5.49793,-0.96062 -15.33416,-9.36287 -18.56118,-9.45212 z"
         id="path965"
         inkscape:connector-curvature="0"
         sodipodi:nodetypes="cccccccc" />
      <path
         inkscape:connector-curvature="0"
         id="path3935"
         style="color:#000000;font-style:normal;font-variant:normal;font-weight:normal;font-stretch:normal;font-size:medium;line-height:normal;font-family:sans-serif;font-variant-ligatures:normal;font-variant-position:normal;font-variant-caps:normal;font-variant-numeric:normal;font-variant-alternates:normal;font-variant-east-asian:normal;font-feature-settings:normal;font-variation-settings:normal;text-indent:0;text-align:start;text-decoration:none;text-decoration-line:none;text-decoration-style:solid;text-decoration-color:#000000;letter-spacing:normal;word-spacing:normal;text-transform:none;writing-mode:lr-tb;direction:ltr;text-orientation:mixed;dominant-baseline:auto;baseline-shift:baseline;text-anchor:start;white-space:normal;shape-padding:0;shape-margin:0;inline-size:0;clip-rule:nonzero;display:inline;overflow:visible;visibility:visible;opacity:1;isolation:auto;mix-blend-mode:normal;color-interpolation:sRGB;color-interpolation-filters:linearRGB;solid-color:#000000;solid-opacity:1;vector-effect:none;fill:#000000;fill-opacity:1;fill-rule:nonzero;stroke:none;stroke-width:10.8283;stroke-linecap:round;stroke-linejoin:miter;stroke-miterlimit:4;stroke-dasharray:none;stroke-dashoffset:0;stroke-opacity:1;color-rendering:auto;image-rendering:auto;shape-rendering:auto;text-rendering:auto;enable-background:accumulate;stop-color:#000000;stop-opacity:1"
         d="m 548.86719,663.15039 a 5.4141732,5.4141732 0 0 0 -0.16407,0.002 5.4141732,5.4141732 0 0 0 -5.18945,4.39844 5.4141732,5.4141732 0 0 0 4.31055,6.33399 l 11.3125,2.14257 c -60.70661,40.44828 -138.38109,32.56089 -193.59961,-7.39843 a 5.4141732,5.4141732 0 0 0 -3.20508,-1.02539 5.4141732,5.4141732 0 0 0 -4.35547,2.23632 5.4141732,5.4141732 0 0 0 1.21875,7.5586 c 58.60521,42.41008 141.32641,50.75178 206.02539,7.58594 l -1.79101,11.77734 a 5.4141732,5.4141732 0 0 0 4.54101,6.17187 5.4141732,5.4141732 0 0 0 6.16407,-4.54101 l 3.72265,-24.50196 0.004,-0.0273 a 5.4141732,5.4141732 0 0 0 0.0449,-0.38867 5.4147148,5.4147148 0 0 0 0.002,-0.0195 5.4141732,5.4141732 0 0 0 0.01,-0.17578 5.4141732,5.4141732 0 0 0 0.004,-0.15625 5.4141732,5.4141732 0 0 0 0.002,-0.0391 5.4147148,5.4147148 0 0 0 0,-0.0195 5.4141732,5.4141732 0 0 0 0,-0.0195 5.4147148,5.4147148 0 0 0 -0.004,-0.17578 5.4141732,5.4141732 0 0 0 -0.008,-0.17578 5.4147148,5.4147148 0 0 0 -0.002,-0.0195 5.4141732,5.4141732 0 0 0 -0.002,-0.0195 5.4141732,5.4141732 0 0 0 -0.0371,-0.35157 5.4147148,5.4147148 0 0 0 -0.002,-0.0176 5.4141732,5.4141732 0 0 0 -0.0273,-0.17578 5.4147148,5.4147148 0 0 0 -0.004,-0.0176 5.4141732,5.4141732 0 0 0 -0.0332,-0.17383 5.4147148,5.4147148 0 0 0 -0.004,-0.0195 5.4141732,5.4141732 0 0 0 -0.041,-0.17188 5.4147148,5.4147148 0 0 0 -0.004,-0.0176 5.4141732,5.4141732 0 0 0 -0.0469,-0.16992 5.4147148,5.4147148 0 0 0 -0.006,-0.0195 5.4141732,5.4141732 0 0 0 -0.0527,-0.16797 5.4147148,5.4147148 0 0 0 -0.006,-0.0176 5.4141732,5.4141732 0 0 0 -0.0586,-0.16796 5.4147148,5.4147148 0 0 0 -0.006,-0.0176 5.4141732,5.4141732 0 0 0 -0.0645,-0.16406 5.4147148,5.4147148 0 0 0 -0.008,-0.0176 5.4141732,5.4141732 0 0 0 -0.0703,-0.16211 5.4147148,5.4147148 0 0 0 -0.008,-0.0176 5.4141732,5.4141732 0 0 0 -0.0762,-0.1582 5.4147148,5.4147148 0 0 0 -0.008,-0.0176 5.4141732,5.4141732 0 0 0 -0.084,-0.15625 5.4141732,5.4141732 0 0 0 -0.0742,-0.13281 5.4141732,5.4141732 0 0 0 -0.0215,-0.0371 5.4147148,5.4147148 0 0 0 -0.01,-0.0156 5.4141732,5.4141732 0 0 0 -0.0937,-0.15039 5.4147148,5.4147148 0 0 0 -0.01,-0.0156 5.4141732,5.4141732 0 0 0 -0.20117,-0.29102 5.4141732,5.4141732 0 0 0 -0.0117,-0.0156 5.4147148,5.4147148 0 0 0 -0.0117,-0.0156 5.4141732,5.4141732 0 0 0 -0.0508,-0.0664 5.4141732,5.4141732 0 0 0 -0.0586,-0.0723 5.4141732,5.4141732 0 0 0 -0.125,-0.14844 5.4147148,5.4147148 0 0 0 -0.0684,-0.0781 5.4141732,5.4141732 0 0 0 -0.0254,-0.0273 5.4147148,5.4147148 0 0 0 -0.10938,-0.11523 5.4141732,5.4141732 0 0 0 -0.0644,-0.0664 5.4147148,5.4147148 0 0 0 -0.0352,-0.0332 5.4141732,5.4141732 0 0 0 -0.10743,-0.10156 5.4147148,5.4147148 0 0 0 -0.0762,-0.0703 5.4141732,5.4141732 0 0 0 -0.0273,-0.0234 5.4147148,5.4147148 0 0 0 -0.1211,-0.10352 5.4147148,5.4147148 0 0 0 -0.10937,-0.0898 5.4141732,5.4141732 0 0 0 -0.0996,-0.0742 5.4141732,5.4141732 0 0 0 -0.0176,-0.0137 5.4147148,5.4147148 0 0 0 -0.084,-0.0606 5.4141732,5.4141732 0 0 0 -0.0742,-0.0527 5.4147148,5.4147148 0 0 0 -0.0293,-0.0176 5.4141732,5.4141732 0 0 0 -0.13086,-0.0879 5.4141732,5.4141732 0 0 0 -0.004,-0.002 5.4147148,5.4147148 0 0 0 -0.0879,-0.0547 5.4141732,5.4141732 0 0 0 -0.0801,-0.0469 5.4141732,5.4141732 0 0 0 -0.16992,-0.0957 5.4147148,5.4147148 0 0 0 -0.0918,-0.0488 5.4141732,5.4141732 0 0 0 -0.082,-0.041 5.4147148,5.4147148 0 0 0 -0.0937,-0.0449 5.4141732,5.4141732 0 0 0 -0.084,-0.0391 5.4147148,5.4147148 0 0 0 -0.0937,-0.041 5.4141732,5.4141732 0 0 0 -0.0859,-0.0351 5.4147148,5.4147148 0 0 0 -0.0957,-0.0371 5.4141732,5.4141732 0 0 0 -0.0859,-0.0332 5.4147148,5.4147148 0 0 0 -0.0332,-0.0117 5.4141732,5.4141732 0 0 0 -0.15234,-0.0508 5.4147148,5.4147148 0 0 0 -0.0996,-0.0312 5.4141732,5.4141732 0 0 0 -0.0879,-0.0254 5.4147148,5.4147148 0 0 0 -0.0996,-0.0273 5.4141732,5.4141732 0 0 0 -0.0898,-0.0234 5.4147148,5.4147148 0 0 0 -0.0996,-0.0234 5.4141732,5.4141732 0 0 0 -0.0371,-0.008 5.4147148,5.4147148 0 0 0 -0.13868,-0.0293 l -0.0156,-0.002 -23.66602,-4.48633 a 5.4141732,5.4141732 0 0 0 -0.97265,-0.0898 z"
         transform="scale(0.26458333)" />
    </g>
  </g>
</svg>
