<?xml version="1.0" standalone="no"?>
<!DOCTYPE svg PUBLIC "-//W3C//DTD SVG 20010904//EN"
 "http://www.w3.org/TR/2001/REC-SVG-20010904/DTD/svg10.dtd">
<svg version="1.0" xmlns="http://www.w3.org/2000/svg"
 width="672.000000pt" height="672.000000pt" viewBox="0 0 672.000000 672.000000"
 preserveAspectRatio="xMidYMid meet">

<g transform="translate(0.000000,672.000000) scale(0.100000,-0.100000)"
fill="#000000" stroke="none">
<path d="M3158 6658 c-3 -8 -44 -13 -123 -15 -68 -2 -124 -8 -132 -15 -8 -6
-45 -12 -84 -13 -42 -1 -74 -6 -78 -13 -4 -7 -31 -14 -61 -17 -29 -2 -56 -9
-59 -14 -11 -17 -88 -30 -101 -17 -8 8 -11 7 -8 -3 4 -18 -51 -34 -68 -20 -9
7 -17 4 -27 -12 -9 -12 -26 -21 -41 -21 -16 0 -23 -5 -19 -12 4 -6 -2 -4 -12
4 -10 8 -16 10 -12 3 9 -15 -52 -34 -68 -22 -10 7 -57 -36 -49 -44 2 -2 -3 -4
-11 -4 -8 0 -12 3 -10 7 2 4 -2 7 -10 7 -8 0 -12 -4 -9 -8 6 -10 -6 -16 -41
-20 -16 -2 -38 -12 -48 -22 -10 -10 -21 -15 -26 -13 -5 3 -16 -3 -26 -14 -13
-15 -21 -17 -31 -9 -9 8 -16 5 -24 -11 -6 -11 -19 -19 -28 -18 -10 2 -16 -3
-14 -10 1 -8 -2 -11 -7 -8 -5 4 -13 2 -16 -4 -4 -6 -14 -10 -24 -8 -9 1 -27
-8 -39 -20 -13 -13 -26 -20 -31 -18 -5 3 -16 -3 -26 -14 -15 -16 -21 -18 -33
-7 -10 7 -13 8 -9 1 4 -7 0 -17 -8 -24 -8 -7 -12 -17 -8 -24 3 -6 -3 -2 -15 8
-19 17 -22 17 -22 3 0 -10 -7 -17 -15 -17 -9 0 -18 -7 -21 -15 -4 -8 -21 -22
-40 -31 -20 -10 -31 -21 -27 -28 4 -6 -1 -5 -11 3 -12 11 -16 11 -14 2 2 -7
-6 -18 -17 -24 -11 -7 -22 -14 -25 -17 -3 -3 -14 -12 -24 -20 -18 -13 -19 -13
-11 0 4 8 -5 0 -22 -17 -16 -18 -38 -33 -47 -33 -9 0 -15 -3 -13 -7 3 -5 -1
-14 -9 -21 -8 -7 -14 -9 -14 -5 0 4 -8 -1 -18 -13 -9 -11 -35 -34 -57 -50 -22
-16 -52 -41 -67 -56 -15 -16 -34 -28 -41 -28 -18 0 -39 -24 -29 -34 4 -4 0 -6
-8 -4 -8 1 -14 -3 -12 -10 1 -6 -3 -11 -10 -10 -7 2 -12 -3 -13 -11 0 -8 -14
-22 -30 -31 -16 -10 -29 -23 -27 -29 1 -6 -4 -10 -10 -9 -7 2 -12 -3 -10 -10
1 -6 -4 -11 -10 -10 -7 2 -12 -3 -10 -10 1 -6 -4 -11 -10 -10 -7 2 -12 -3 -10
-10 1 -6 -4 -11 -10 -10 -7 2 -12 -3 -10 -10 1 -6 -3 -11 -10 -10 -7 2 -17 -7
-23 -19 -5 -13 -13 -23 -17 -23 -5 0 -8 -7 -8 -15 0 -8 -5 -15 -10 -15 -6 0
-13 -7 -17 -16 -3 -8 -23 -34 -44 -56 -21 -23 -35 -46 -32 -51 3 -6 1 -7 -5
-3 -6 3 -13 2 -17 -4 -4 -6 -10 -8 -15 -5 -4 3 -7 -3 -6 -12 3 -17 -52 -99
-121 -182 -15 -19 -28 -37 -28 -40 -1 -14 -17 -31 -25 -26 -5 3 -7 -3 -5 -15
2 -11 -1 -19 -7 -17 -6 1 -12 -9 -14 -22 -5 -30 -23 -53 -35 -45 -5 3 -6 -2
-3 -11 4 -9 -3 -26 -16 -40 -12 -13 -19 -28 -16 -33 3 -6 -1 -12 -9 -16 -8 -3
-15 -12 -15 -19 0 -15 -48 -107 -56 -107 -3 0 -2 6 2 13 4 6 3 8 -1 4 -12 -10
-16 -39 -5 -32 5 3 12 0 16 -6 4 -7 3 -9 -4 -5 -6 3 -13 2 -17 -4 -4 -6 -10
-8 -15 -5 -4 3 -6 -4 -3 -14 3 -10 -1 -30 -8 -42 -7 -13 -12 -27 -11 -31 1 -5
-4 -7 -11 -5 -7 1 -11 -6 -9 -16 2 -10 -2 -25 -9 -34 -7 -8 -15 -24 -16 -36
-2 -12 -11 -30 -21 -40 -9 -10 -16 -29 -14 -42 2 -13 -3 -25 -11 -28 -9 -3
-14 -17 -12 -37 1 -17 -4 -37 -12 -45 -8 -8 -12 -15 -10 -15 9 0 -15 -75 -26
-82 -6 -4 -12 -25 -13 -48 -1 -22 -9 -49 -18 -59 -9 -10 -13 -21 -9 -25 11
-10 12 -37 2 -30 -5 3 -9 -11 -9 -30 0 -24 -5 -36 -13 -36 -10 0 -13 -12 -11
-42 3 -51 -13 -121 -26 -113 -5 3 -12 0 -16 -6 -4 -7 -3 -9 4 -5 6 3 13 2 16
-3 4 -5 2 -13 -4 -16 -8 -5 -8 -11 0 -20 6 -7 7 -16 2 -18 -4 -3 -9 -41 -11
-84 -1 -42 -7 -80 -12 -84 -16 -10 -15 -659 1 -669 8 -5 11 -30 8 -78 -2 -53
0 -68 9 -61 13 11 13 -7 0 -28 -4 -6 -2 -15 3 -18 8 -5 5 -14 -7 -28 -10 -11
-13 -17 -6 -13 18 10 33 -27 36 -88 1 -30 5 -52 9 -50 11 7 18 -11 21 -53 2
-22 8 -46 12 -53 5 -8 4 -11 -2 -7 -5 3 -10 0 -10 -8 0 -8 4 -12 8 -9 11 6 26
-53 24 -89 -2 -17 2 -27 11 -27 9 0 14 -11 14 -30 0 -16 5 -30 11 -30 8 0 7
-6 -2 -17 -10 -12 -10 -15 -1 -9 12 7 26 -33 26 -74 0 -8 6 -19 13 -23 7 -4
13 -17 13 -28 0 -14 4 -18 13 -13 9 6 9 4 -1 -8 -11 -14 -10 -18 4 -26 9 -5
18 -21 18 -36 1 -14 7 -31 14 -38 7 -7 12 -22 12 -33 0 -12 9 -30 19 -39 11
-10 18 -26 16 -36 -2 -10 3 -21 11 -24 9 -4 13 -15 10 -32 -4 -23 -3 -24 12
-13 9 8 14 10 10 5 -3 -4 0 -19 7 -33 8 -15 12 -30 10 -34 -3 -4 2 -10 11 -13
9 -3 14 -12 11 -20 -3 -8 5 -24 18 -36 13 -12 22 -30 20 -41 -2 -11 2 -19 10
-19 9 0 12 -8 10 -20 -2 -11 0 -18 4 -16 5 3 17 -4 27 -16 12 -14 14 -19 4
-13 -8 4 -5 -3 8 -17 12 -13 22 -28 22 -32 0 -4 9 -16 20 -28 10 -12 17 -24
15 -28 -3 -5 2 -11 10 -14 10 -4 14 -14 11 -31 -3 -13 -2 -24 2 -24 4 1 15 1
26 0 16 -1 17 -3 5 -18 -8 -9 -9 -14 -3 -10 16 9 38 -19 30 -38 -5 -14 12 -21
39 -15 6 1 7 -2 3 -5 -7 -7 30 -64 64 -97 9 -10 15 -27 13 -39 -3 -16 -1 -18
9 -10 10 9 22 1 52 -36 22 -27 49 -58 61 -69 13 -12 23 -24 23 -28 0 -5 34
-39 206 -206 36 -35 76 -69 88 -75 11 -7 20 -17 18 -24 -1 -7 2 -10 6 -7 5 3
21 -4 35 -17 13 -12 38 -33 55 -46 17 -14 28 -30 24 -35 -3 -6 2 -5 12 3 9 8
16 10 14 5 -2 -5 -1 -9 2 -9 6 -1 45 -33 74 -60 11 -11 39 -29 61 -41 22 -11
39 -25 38 -31 -1 -5 4 -10 10 -10 20 0 97 -36 97 -45 0 -4 7 -8 15 -8 9 0 18
-7 21 -15 4 -8 14 -15 24 -15 21 0 43 -23 32 -36 -4 -4 2 -2 12 6 14 11 18 11
12 2 -5 -9 -3 -13 5 -11 28 3 40 -1 33 -13 -4 -6 -3 -8 4 -4 6 3 13 2 17 -4 4
-6 10 -8 15 -5 4 3 10 -5 13 -17 5 -19 8 -20 24 -7 10 7 15 9 11 5 -9 -10 36
-36 62 -36 10 0 20 -10 24 -22 4 -17 8 -20 17 -11 8 8 18 9 35 1 13 -6 22 -14
19 -17 -2 -4 11 -8 28 -9 17 -2 41 -12 53 -23 15 -14 24 -17 29 -9 5 8 13 6
27 -7 11 -10 33 -18 49 -19 33 -2 62 -21 53 -36 -3 -5 2 -4 12 2 21 13 79 -3
70 -19 -7 -10 13 -9 31 2 6 4 14 3 18 -3 3 -5 15 -10 26 -10 11 0 22 -6 25
-14 3 -7 14 -11 28 -9 29 6 92 -11 89 -25 -1 -5 5 -9 15 -7 9 2 17 4 17 5 0 1
8 3 18 5 9 2 15 -1 11 -6 -3 -5 10 -9 29 -9 19 0 40 -7 47 -14 8 -11 18 -12
35 -6 13 5 25 6 28 3 4 -3 32 -7 64 -9 73 -5 105 -12 99 -22 -8 -13 779 -9
795 4 19 15 124 25 137 12 6 -6 12 -6 17 3 6 8 4 10 -5 4 -9 -5 -11 -4 -6 3 4
8 15 8 31 2 18 -7 28 -5 39 5 8 8 32 16 54 18 21 2 45 8 52 12 8 5 11 4 7 -2
-3 -5 0 -10 8 -10 8 0 12 4 9 8 -7 12 12 19 65 23 28 2 58 9 66 16 8 7 21 10
30 7 8 -4 17 -1 21 5 4 6 3 8 -4 4 -6 -3 -13 -3 -16 2 -2 4 6 8 19 8 13 0 22
-3 19 -7 -8 -14 24 -3 41 14 11 12 27 16 46 13 20 -3 29 0 29 10 0 14 17 19
53 16 12 -1 16 2 11 11 -5 7 0 6 11 -3 11 -9 16 -10 11 -2 -8 14 39 36 60 28
7 -3 15 2 18 10 3 8 15 14 26 14 14 0 19 4 14 13 -5 7 0 6 11 -3 10 -8 16 -10
12 -4 -3 6 5 16 19 23 14 6 23 7 20 2 -4 -5 1 -8 10 -7 8 1 19 7 22 13 4 6 26
19 50 30 23 11 40 22 36 25 -8 9 18 4 34 -6 7 -4 12 -4 11 1 -4 22 3 33 20 33
10 0 24 6 30 14 7 8 34 22 61 32 27 10 48 20 45 22 -10 10 21 30 32 20 8 -6
15 -3 23 11 6 12 17 21 25 21 8 0 15 5 15 10 0 6 7 10 16 10 9 0 12 5 8 12 -5
8 0 7 11 -2 12 -10 16 -11 11 -2 -5 9 2 17 23 25 17 6 31 15 31 19 0 4 7 8 15
8 8 0 19 9 25 20 6 11 17 20 24 20 7 0 32 18 57 40 24 22 50 40 57 40 8 0 10
5 6 13 -6 9 -5 9 8 -1 12 -10 17 -10 27 1 6 8 7 18 3 22 -4 5 -2 5 4 2 6 -4
38 22 72 56 110 113 128 127 140 115 9 -9 10 -6 7 11 -3 19 -2 21 10 11 12
-10 13 -8 10 10 -3 18 -2 20 10 10 12 -10 13 -8 10 10 -3 17 -1 19 9 11 17
-14 35 5 31 32 -3 15 -1 16 11 6 8 -7 14 -8 13 -3 -3 18 13 54 22 48 5 -3 9 1
9 10 0 8 14 26 30 39 17 14 30 29 30 33 0 4 19 26 42 48 23 23 41 45 40 49 -1
5 2 6 7 3 5 -3 15 2 22 11 8 9 9 14 3 10 -6 -3 -11 0 -11 8 0 8 5 13 10 12 6
-1 15 8 22 19 6 12 16 28 23 36 6 8 8 18 4 22 -4 4 -2 7 3 6 20 -4 45 0 44 8
-4 23 4 42 28 68 15 16 26 32 25 36 -1 5 3 7 9 5 6 -1 13 9 15 22 3 14 9 30
14 36 5 7 6 16 2 21 -4 4 0 3 8 -3 13 -10 16 -9 17 6 1 10 11 33 22 52 11 19
32 59 47 89 38 80 325 802 327 823 1 9 4 17 8 17 9 0 27 67 33 124 4 29 13 54
23 61 11 9 13 14 4 19 -6 4 -8 13 -4 19 9 16 10 46 11 561 1 293 -2 454 -9
462 -7 8 -6 13 3 16 11 4 11 8 0 20 -9 12 -10 18 -2 23 8 5 8 10 0 20 -8 10
-8 15 0 20 8 5 6 13 -5 26 -11 11 -18 39 -20 76 -2 32 -10 74 -18 93 -8 19
-13 38 -10 43 2 4 -1 14 -7 22 -7 8 -10 15 -7 15 2 0 -26 91 -64 203 -38 111
-71 210 -73 219 -3 9 -12 28 -21 42 -10 14 -15 33 -11 41 3 9 2 14 -3 11 -10
-7 -29 34 -25 57 1 9 -4 17 -12 17 -8 0 -14 10 -14 21 0 12 -7 27 -16 33 -8 6
-16 18 -17 26 -2 8 -7 22 -12 30 -25 39 -34 61 -22 53 7 -4 7 0 -2 10 -7 9
-17 15 -21 12 -5 -3 -7 3 -6 12 2 10 -3 24 -11 31 -7 8 -11 17 -8 22 3 5 0 12
-6 16 -8 5 -9 3 -4 -7 4 -8 -1 -5 -12 6 -14 14 -17 23 -9 28 7 5 4 13 -11 24
-13 8 -23 22 -23 29 0 8 -4 14 -10 14 -5 0 -10 6 -10 13 0 8 -9 22 -20 32 -11
10 -20 22 -20 27 0 5 -9 18 -20 30 -10 12 -17 24 -15 28 2 3 -14 23 -36 44
-21 21 -39 43 -39 49 0 5 -10 20 -22 33 -34 34 -68 81 -68 93 0 6 -4 11 -9 11
-9 0 -24 38 -22 54 1 5 -5 3 -14 -4 -14 -11 -16 -11 -13 1 2 8 -3 13 -10 11
-6 -1 -11 3 -10 10 2 6 -6 16 -17 22 -12 6 -45 38 -75 71 -29 33 -66 69 -80
79 -15 11 -31 29 -36 40 -5 12 -15 20 -22 18 -7 -1 -11 4 -10 10 2 7 -3 12
-10 10 -6 -1 -11 4 -10 10 2 7 -4 11 -12 10 -8 -2 -12 0 -8 4 11 10 -11 34
-32 34 -10 0 -20 7 -24 15 -3 8 -10 15 -16 15 -15 0 -50 33 -50 47 0 6 -5 15
-12 19 -7 5 -8 2 -3 -7 5 -8 -3 -4 -17 9 -13 12 -30 22 -36 22 -7 0 -12 5 -12
10 0 6 -6 10 -14 10 -7 0 -21 10 -30 23 -9 12 -14 15 -10 7 7 -13 5 -13 -9 -1
-9 7 -14 17 -11 22 3 5 -2 9 -10 9 -8 0 -25 10 -37 23 -12 12 -19 17 -16 11 3
-6 0 -11 -8 -11 -8 0 -12 8 -9 20 2 11 1 17 -3 13 -3 -3 -12 -1 -20 5 -7 6
-13 8 -13 4 0 -4 -7 -2 -15 5 -8 7 -12 17 -8 24 4 6 -2 4 -13 -4 -10 -8 -16
-11 -12 -6 4 5 -18 22 -50 38 -31 16 -65 37 -74 45 -10 9 -18 12 -18 8 0 -4
-9 0 -20 10 -11 10 -18 21 -15 25 2 4 -2 7 -10 7 -8 0 -12 -3 -10 -7 2 -4 -2
-7 -10 -7 -7 0 -12 8 -10 19 2 11 -2 18 -11 18 -9 0 -12 -5 -8 -12 4 -7 -3 -4
-15 7 -13 11 -24 19 -25 17 0 -2 -14 1 -29 7 -16 6 -33 11 -38 11 -5 0 -9 7
-9 16 0 13 -3 14 -14 5 -10 -8 -19 -6 -37 11 -14 13 -31 23 -39 22 -26 0 -60
18 -53 30 4 6 0 6 -8 -1 -13 -10 -20 -9 -39 9 -13 12 -39 23 -58 25 -19 1 -41
11 -49 20 -9 11 -12 12 -7 3 6 -12 4 -13 -7 -2 -7 6 -23 12 -35 12 -12 0 -24
4 -26 9 -1 5 -23 12 -48 16 -24 4 -52 11 -62 16 -9 5 -27 9 -40 9 -13 0 -36 7
-53 16 -16 8 -49 17 -73 19 -24 2 -50 9 -59 16 -17 14 -46 22 -38 10 2 -4 -2
-8 -10 -8 -8 0 -12 3 -10 7 2 3 -22 7 -53 8 -31 1 -59 6 -62 11 -3 4 -56 11
-119 14 -63 3 -119 11 -124 16 -16 16 -534 15 -539 -1z m107 -184 c23 -24 16
-68 -12 -72 -12 -2 -25 -12 -29 -24 -10 -33 -12 -108 -2 -114 4 -3 5 -11 1
-17 -11 -18 -11 -50 1 -66 9 -12 8 -13 -4 -6 -10 5 -8 1 4 -13 10 -12 21 -21
25 -21 3 1 16 -2 29 -6 18 -6 22 -15 22 -46 0 -22 -3 -40 -7 -40 -34 -5 -121
-3 -117 2 2 4 -4 6 -13 5 -9 -2 -19 -8 -21 -14 -2 -7 -19 -12 -37 -12 -29 0
-34 3 -32 23 3 33 -17 35 -23 1 -4 -20 -11 -29 -25 -30 -11 -1 -23 -2 -27 -3
-14 -2 -23 4 -20 12 1 5 -2 6 -8 2 -5 -3 -10 -12 -10 -20 0 -7 -15 -17 -32
-21 -46 -11 -78 -12 -73 -3 3 4 -2 6 -11 5 -8 -1 -19 -8 -23 -15 -9 -15 -67
-11 -64 4 1 6 -6 18 -15 28 -11 13 -12 18 -3 15 16 -4 24 29 9 39 -7 4 -8 1
-4 -8 4 -8 0 -5 -8 5 -9 11 -17 32 -17 48 -1 15 -2 36 -2 46 -1 9 -4 19 -8 22
-11 8 -27 100 -19 105 10 6 7 32 -5 42 -4 4 -5 2 -1 -4 4 -7 5 -13 1 -13 -3 0
-10 12 -15 26 -15 37 2 61 47 66 43 6 67 -7 60 -33 -3 -10 2 -24 10 -30 10 -9
13 -29 11 -69 -2 -43 1 -61 15 -74 9 -10 18 -28 18 -42 3 -49 4 -59 11 -70 10
-15 57 -11 68 5 5 10 38 15 106 18 55 2 104 4 109 5 6 1 11 21 11 44 0 24 -5
42 -11 41 -6 -1 -14 37 -19 91 -9 87 -10 92 -33 92 -14 0 -23 6 -23 16 0 8 -4
13 -8 10 -11 -6 -9 40 1 50 13 13 38 13 30 1 -4 -7 -1 -7 9 1 9 7 19 9 22 4 7
-12 56 -9 64 5 7 11 33 20 64 22 9 0 24 -6 33 -15z m415 -3 c17 -34 12 -61
-16 -73 -21 -10 -27 -9 -35 3 -5 8 -9 10 -9 5 0 -5 -7 -3 -15 4 -24 20 -36
-30 -40 -170 -2 -69 -4 -137 -4 -152 -1 -18 -6 -28 -17 -28 -8 0 -13 -4 -10
-8 6 -10 -54 -10 -69 0 -7 4 -10 68 -10 167 0 124 -2 161 -12 161 -7 0 -13 8
-13 17 0 9 -3 13 -7 10 -3 -4 -12 -2 -19 4 -8 7 -14 7 -19 -1 -5 -8 -11 -7
-23 2 -9 7 -13 8 -9 2 3 -6 1 -11 -6 -11 -9 0 -12 14 -11 41 1 23 2 42 3 44 0
1 75 2 166 2 152 0 165 -1 175 -19z m268 -41 c8 0 10 5 6 13 -6 10 -4 10 7 0
7 -7 21 -13 30 -13 20 0 25 -13 24 -60 0 -19 6 -41 13 -49 10 -10 12 -36 9
-92 -2 -43 -1 -76 3 -74 4 3 13 -1 19 -9 16 -19 22 -144 7 -153 -15 -10 -76
-11 -71 -2 3 4 -4 9 -15 12 -15 4 -20 14 -20 40 0 32 -3 36 -32 42 -18 4 -36
12 -40 18 -3 6 -14 12 -22 13 -9 1 -13 -2 -10 -8 5 -7 2 -8 -7 -2 -19 12 -40
14 -34 4 3 -5 1 -11 -5 -15 -5 -3 -10 -14 -10 -24 0 -28 -31 -49 -60 -41 -14
4 -24 12 -23 18 2 7 -3 11 -9 10 -19 -4 -22 41 -4 48 9 3 13 10 10 15 -3 5 0
9 6 9 6 0 8 5 5 10 -8 13 14 42 26 35 4 -3 6 4 4 15 -2 12 4 28 15 37 15 14
17 20 7 32 -6 9 -8 13 -3 9 10 -9 39 19 42 40 2 8 6 18 11 21 5 3 8 13 8 21
-1 18 19 40 36 40 7 0 5 8 -7 22 -10 12 -14 18 -7 15 6 -4 14 -3 18 3 4 6 10
8 15 5 5 -3 12 0 15 6 5 8 10 8 18 0 6 -6 17 -11 25 -11z m-1353 -109 c5 -19
0 -29 -22 -47 -15 -12 -31 -20 -34 -18 -3 1 -6 -3 -6 -11 0 -8 6 -15 13 -15
16 0 28 -42 21 -70 -3 -11 0 -18 5 -17 13 2 28 -47 23 -74 -5 -23 37 -47 76
-44 27 2 31 -8 15 -34 -6 -10 -5 -12 2 -7 13 8 15 -4 6 -28 -3 -9 -14 -16 -23
-16 -9 0 -23 -6 -30 -12 -8 -7 -11 -8 -8 -2 3 6 0 11 -8 11 -8 0 -12 -4 -9 -8
6 -11 -8 -18 -51 -25 -29 -4 -36 -3 -30 8 3 7 -3 2 -14 -11 -20 -22 -22 -23
-40 -7 -11 10 -21 26 -24 36 -6 23 17 47 28 30 5 -8 10 -8 20 0 14 12 14 27 1
49 -7 10 -5 12 5 7 8 -4 7 -2 -2 6 -21 17 -48 95 -29 83 5 -3 12 -1 15 5 4 6
1 9 -6 8 -19 -4 -36 37 -34 81 2 37 -11 48 -31 28 -10 -10 -52 -9 -58 1 -10
17 -15 62 -5 57 5 -4 9 1 9 9 0 15 17 21 48 17 8 -1 22 5 31 13 9 8 32 16 50
18 17 1 37 8 42 15 15 17 46 -4 54 -36z m1735 39 c0 -5 7 -10 16 -10 9 0 12
-5 8 -12 -6 -10 -5 -10 8 -1 12 11 18 9 33 -7 10 -11 30 -20 45 -20 16 0 30
-7 34 -15 3 -8 12 -15 21 -15 8 0 15 -6 15 -14 0 -8 7 -16 15 -20 20 -7 21
-94 1 -102 -8 -3 -13 -15 -11 -26 4 -17 2 -18 -12 -6 -9 7 -14 8 -10 2 4 -7
-1 -18 -10 -25 -12 -10 -14 -10 -9 -1 12 20 3 14 -34 -24 -19 -19 -30 -35 -25
-34 24 5 27 -2 9 -22 -10 -12 -14 -18 -8 -15 19 11 37 -20 38 -63 1 -26 6 -40
14 -40 7 0 12 -8 10 -17 -8 -45 -110 -14 -132 39 -10 23 -11 37 -4 45 7 9 6
14 -5 19 -8 3 -18 21 -22 40 -3 19 -13 38 -21 41 -17 6 -56 -25 -48 -38 7 -11
-15 -51 -25 -45 -4 3 -7 -5 -7 -17 1 -18 -4 -21 -24 -18 -14 1 -28 8 -32 15
-4 6 -12 12 -18 12 -5 1 -14 2 -20 3 -15 2 -12 21 4 21 9 0 13 10 11 28 -3 32
11 75 22 69 5 -3 8 10 9 29 0 21 8 41 20 50 10 9 12 12 4 8 -12 -7 -13 -5 -3
8 7 8 10 17 7 21 -10 10 16 48 29 40 9 -5 9 -3 0 9 -7 8 -10 18 -6 21 3 4 8
19 9 34 2 15 8 29 14 31 5 2 10 10 10 18 0 10 12 14 40 14 22 0 40 -4 40 -10z
m-2095 -157 c0 -25 3 -29 13 -20 10 8 12 7 10 -4 -2 -8 2 -13 8 -12 7 1 10
-10 9 -28 -1 -16 0 -27 3 -24 11 10 42 -28 42 -52 0 -13 4 -22 9 -19 5 4 8 -2
7 -11 -2 -10 3 -24 11 -31 7 -8 11 -18 8 -23 -4 -5 1 -9 9 -9 9 0 17 -6 18
-12 0 -7 2 -18 2 -25 1 -6 9 -20 19 -31 15 -16 16 -25 8 -40 -6 -11 -19 -19
-28 -18 -10 2 -23 -4 -29 -12 -14 -19 -48 -8 -40 13 3 8 2 14 -2 12 -4 -1 -9
3 -11 8 -3 6 -11 16 -18 23 -7 8 -11 17 -8 22 3 4 -2 13 -10 20 -8 7 -15 19
-15 27 0 9 -5 11 -12 7 -10 -6 -10 -5 -1 7 10 13 10 16 -2 16 -19 0 -25 -21
-21 -80 2 -26 1 -45 -2 -43 -2 3 -11 -1 -19 -9 -24 -25 -50 -17 -87 27 -35 41
-36 41 -45 17 -10 -28 -5 -42 12 -32 7 4 5 -2 -3 -12 -8 -10 -10 -16 -5 -13
14 8 32 -14 29 -34 -1 -10 4 -22 12 -29 8 -6 14 -18 14 -26 0 -9 5 -11 13 -7
9 6 9 5 0 -7 -6 -8 -11 -18 -12 -23 0 -9 -47 -36 -62 -36 -5 0 -9 7 -9 17 0 9
-3 13 -7 10 -10 -10 -33 13 -33 33 0 10 -7 23 -15 30 -8 7 -15 20 -15 28 0 9
-12 29 -27 46 -16 17 -21 25 -12 18 13 -9 16 -9 16 3 0 8 -6 15 -14 15 -7 0
-13 7 -13 16 0 8 -4 13 -9 10 -5 -4 -8 2 -7 11 2 10 -1 21 -6 24 -5 3 -10 12
-11 20 -2 8 -12 24 -24 36 -17 17 -20 28 -14 50 6 22 13 28 35 27 14 -1 24 1
21 4 -8 8 16 32 32 32 20 0 84 -50 77 -61 -3 -5 -2 -8 3 -7 4 2 24 -9 43 -23
33 -25 76 -36 64 -17 -3 5 -11 5 -17 1 -7 -3 -4 3 6 14 14 16 15 23 6 29 -8 5
-10 3 -4 -6 6 -9 4 -11 -4 -6 -9 6 -8 12 4 26 12 14 13 20 4 26 -8 5 -10 3 -4
-6 6 -9 4 -11 -4 -6 -9 6 -8 12 4 26 14 15 14 18 0 30 -20 16 -20 60 0 60 8 0
15 6 15 14 0 16 45 36 75 33 15 -2 20 -9 20 -34z m580 28 c3 -5 2 -12 -3 -15
-5 -3 -9 1 -9 9 0 17 3 19 12 6z m1240 -40 c3 -5 2 -12 -3 -15 -5 -3 -9 1 -9
9 0 17 3 19 12 6z m905 -101 c6 -11 20 -20 30 -20 11 0 20 -3 20 -8 0 -4 10
-12 23 -17 12 -6 21 -17 19 -25 -3 -11 0 -11 12 -1 13 11 15 10 11 -8 -2 -12
0 -19 5 -16 5 3 11 1 15 -5 4 -6 10 -8 15 -5 5 3 7 -3 5 -15 -2 -11 -1 -19 3
-17 4 1 8 -2 9 -6 1 -5 10 -15 20 -22 24 -18 26 -141 2 -158 -9 -7 -15 -20
-13 -30 1 -9 -2 -15 -7 -11 -5 3 -9 -2 -9 -11 0 -9 -4 -14 -9 -10 -5 3 -12 1
-16 -5 -4 -6 -10 -8 -15 -5 -5 3 -7 -4 -5 -16 4 -18 2 -19 -11 -8 -12 10 -15
10 -12 -1 2 -7 -7 -19 -19 -25 -13 -7 -20 -16 -15 -21 4 -4 -1 -2 -10 5 -12 9
-18 10 -18 2 0 -6 -17 -11 -40 -11 -22 0 -40 5 -40 10 0 6 -5 10 -11 10 -5 0
-7 -6 -3 -12 6 -10 4 -10 -7 0 -7 6 -21 12 -31 12 -10 0 -21 7 -24 15 -4 8
-10 13 -14 10 -5 -3 -14 1 -22 8 -20 19 -72 51 -83 52 -13 0 -19 32 -9 53 4 9
6 21 5 26 -1 5 5 3 14 -4 13 -11 15 -10 10 2 -8 21 34 90 48 81 7 -4 5 2 -3
13 -8 10 -11 16 -6 12 9 -7 76 75 76 93 0 7 11 22 24 34 14 13 22 26 19 29 -4
3 -1 6 5 6 7 0 12 6 12 14 0 13 13 23 32 25 4 1 12 -8 18 -19z m-1145 -265
c137 -25 363 -84 431 -111 33 -13 66 -24 72 -24 15 0 220 -94 282 -130 139
-80 239 -144 332 -214 174 -131 414 -374 510 -517 16 -24 32 -46 37 -49 15
-10 129 -205 176 -300 25 -52 57 -117 71 -143 13 -27 24 -54 24 -60 0 -7 6
-24 14 -38 7 -14 21 -52 31 -85 9 -32 23 -77 30 -99 34 -106 55 -205 86 -405
27 -173 16 -533 -22 -725 -6 -27 -14 -70 -18 -95 -10 -56 -31 -138 -42 -165
-4 -11 -12 -36 -17 -55 -9 -33 -39 -115 -84 -225 -33 -81 -128 -266 -154 -300
-13 -18 -24 -35 -24 -38 0 -12 -114 -174 -185 -262 -72 -89 -234 -254 -328
-334 -48 -41 -234 -181 -241 -181 -1 0 -33 -19 -69 -43 -116 -77 -327 -176
-487 -231 -270 -91 -470 -126 -767 -133 -247 -6 -410 13 -693 82 -76 19 -163
49 -300 103 -61 24 -250 117 -305 150 -188 114 -418 292 -519 403 -27 30 -77
83 -111 119 -33 36 -69 76 -78 90 -10 14 -31 43 -48 65 -78 105 -156 233 -223
366 -40 80 -76 154 -79 165 -3 10 -13 37 -22 59 -131 338 -182 682 -157 1066
6 96 16 201 23 234 57 290 122 486 238 714 120 237 254 424 444 620 74 75 260
241 271 241 3 0 32 19 63 43 32 24 85 61 118 82 33 21 71 45 85 55 31 21 274
140 286 140 5 0 20 6 34 13 14 7 75 29 135 49 98 32 144 45 275 79 53 13 175
32 265 40 143 13 540 3 640 -16z m-2346 -62 c12 9 13 9 7 0 -4 -8 -1 -13 8
-13 9 0 16 -7 16 -17 0 -9 3 -13 7 -10 3 4 13 1 21 -6 13 -10 14 -9 7 3 -4 8
4 4 20 -10 16 -14 24 -18 20 -10 -5 8 6 3 24 -12 18 -16 38 -28 46 -28 7 0 15
-7 19 -15 3 -8 12 -15 19 -15 17 0 106 -46 130 -67 22 -20 22 -36 -1 -56 -19
-17 -106 -31 -96 -16 8 14 -60 11 -75 -3 -11 -11 -12 -10 -6 2 8 13 6 13 -8 2
-9 -8 -15 -19 -14 -25 1 -7 -3 -11 -9 -10 -8 1 -10 -14 -7 -45 2 -26 4 -55 4
-66 0 -22 -26 -53 -60 -69 -14 -7 -26 -19 -26 -27 0 -8 -10 -20 -23 -26 -13
-6 -24 -15 -25 -20 -1 -5 -6 -8 -10 -6 -5 1 -6 -2 -3 -7 3 -5 -2 -15 -11 -22
-14 -12 -16 -12 -8 1 8 13 6 13 -8 1 -9 -7 -15 -17 -12 -21 7 -11 -44 -62 -55
-55 -6 4 -7 12 -3 18 4 7 -2 5 -12 -3 -11 -9 -16 -10 -11 -2 4 7 1 12 -8 12
-9 0 -16 7 -16 15 0 8 6 15 14 15 15 0 16 16 2 39 -6 9 -5 12 1 8 5 -3 10 0
10 8 0 8 -4 12 -8 9 -4 -2 -10 0 -14 6 -4 6 -11 7 -17 4 -7 -4 -8 -2 -4 4 4 7
1 12 -9 12 -9 0 -14 4 -11 8 3 5 -4 16 -15 25 -10 9 -19 14 -19 11 0 -4 -7 -1
-15 6 -8 7 -13 15 -11 19 9 18 -34 38 -75 35 -24 -1 -51 -1 -60 2 -18 5 -33
44 -18 44 5 0 9 4 9 9 0 5 25 35 55 66 30 31 55 60 55 64 0 22 45 19 68 -4 24
-24 24 -25 7 -51 l-17 -27 78 -78 c44 -44 78 -84 76 -91 -2 -8 2 -7 12 2 9 7
16 9 16 5 0 -4 11 0 25 9 23 15 25 15 35 -4 6 -11 15 -20 19 -20 12 0 19 70 8
77 -6 4 -7 1 -2 -7 5 -9 4 -11 -3 -6 -7 4 -12 14 -12 22 0 8 -4 13 -9 10 -5
-3 -7 8 -6 24 2 18 -3 31 -12 35 -10 3 -14 14 -10 30 3 18 -1 29 -15 36 -10 5
-16 14 -12 20 3 5 0 16 -6 24 -7 8 -9 15 -6 15 4 0 0 7 -8 16 -15 14 -21 35
-17 57 1 5 -3 6 -8 3 -12 -8 -24 47 -16 73 3 10 13 22 21 25 8 3 13 2 10 -2
-3 -5 1 -9 9 -9 7 0 12 8 10 19 -2 11 2 18 11 18 9 0 12 5 8 13 -5 9 -4 9 6 0
11 -10 17 -10 29 0z m3961 -13 c32 -1 64 -37 65 -74 1 -19 -2 -33 -7 -30 -4 3
-8 -4 -8 -14 0 -11 -6 -22 -14 -25 -9 -4 -12 -14 -9 -25 6 -25 -14 -65 -29
-56 -7 5 -8 2 -2 -7 12 -20 14 -40 3 -33 -5 3 -9 -2 -9 -10 0 -8 -5 -18 -12
-22 -7 -5 -8 -3 -3 6 5 8 4 11 -2 7 -5 -3 -8 -19 -5 -35 2 -17 -2 -35 -11 -43
-7 -8 -13 -23 -11 -33 1 -10 0 -15 -4 -12 -3 4 -11 -8 -16 -26 -14 -43 -39
-46 -77 -8 -27 26 -29 33 -18 47 8 9 9 14 2 10 -8 -5 -8 -1 0 17 7 13 14 23
18 21 3 -2 6 2 6 10 0 8 -3 13 -6 12 -11 -3 -66 55 -63 66 2 6 -5 4 -14 -4
-12 -9 -15 -9 -10 -1 5 9 -2 12 -26 12 -19 0 -40 -6 -47 -12 -11 -11 -13 -10
-7 2 4 8 0 6 -8 -4 -11 -13 -16 -15 -16 -6 0 7 -3 10 -6 7 -4 -4 -17 5 -30 20
-25 29 -19 50 20 71 64 33 112 55 119 53 5 -1 6 3 3 8 -8 12 15 29 37 26 9 -2
17 3 17 11 0 8 10 14 26 14 14 0 23 4 20 9 -3 5 0 12 7 15 6 3 30 16 52 30 24
14 44 20 50 15 5 -5 16 -9 25 -9z m428 -419 c7 -4 15 -17 16 -27 2 -10 9 -18
16 -16 6 1 9 -1 6 -6 -3 -5 5 -18 17 -30 36 -34 44 -47 41 -66 -1 -11 5 -20
16 -23 21 -6 32 -57 16 -74 -8 -9 -7 -10 2 -4 11 6 12 4 3 -11 -28 -49 -38
-55 -98 -57 -39 -1 -60 -6 -60 -14 0 -7 4 -10 8 -7 15 9 18 -13 8 -49 -6 -21
-18 -38 -29 -42 -11 -4 -20 -11 -20 -16 0 -5 -7 -9 -16 -9 -8 0 -13 -4 -10 -8
2 -4 -6 -8 -19 -8 -13 0 -22 3 -19 7 5 9 -23 6 -32 -3 -10 -10 -54 14 -54 29
0 8 -4 12 -9 9 -12 -8 -29 16 -26 37 2 9 -1 15 -5 12 -5 -3 -11 -1 -15 5 -4 6
-11 7 -17 4 -6 -4 -8 -2 -5 3 4 6 0 16 -8 23 -9 7 -14 22 -13 34 2 16 -2 21
-18 20 -11 -1 -21 5 -21 12 0 7 5 10 11 7 8 -5 8 -3 0 8 -16 21 -11 42 11 54
12 5 34 22 50 38 17 15 34 27 39 27 5 0 21 10 34 23 14 12 21 15 17 7 -5 -8 5
0 22 18 17 17 38 32 47 32 8 0 19 7 24 16 8 14 61 54 72 54 3 0 11 -4 18 -9z
m-4822 -62 c6 -5 13 -7 15 -4 3 2 6 -11 7 -30 2 -29 -1 -35 -18 -35 -11 0 -20
-5 -20 -11 0 -5 -4 -7 -10 -4 -8 5 -55 -58 -55 -75 0 -3 -4 -11 -9 -19 -6 -10
-5 -12 2 -7 7 4 12 1 12 -7 0 -20 58 -91 77 -93 9 -2 19 -8 24 -15 4 -7 15
-14 23 -15 9 -1 14 1 11 5 -2 4 2 8 10 8 8 0 12 -4 10 -8 -3 -4 2 -6 11 -5 9
1 20 10 26 19 5 9 16 17 23 17 8 0 15 5 15 10 0 6 6 10 13 10 9 0 13 14 12 48
-1 26 0 53 3 60 5 14 42 17 42 3 0 -5 9 -12 19 -16 19 -6 35 -52 20 -60 -4 -3
-6 -17 -3 -30 3 -17 -1 -27 -11 -31 -8 -3 -13 -9 -10 -14 7 -12 -41 -70 -82
-99 -31 -21 -48 -26 -97 -25 -42 1 -61 6 -68 17 -5 9 -14 14 -21 11 -7 -2 -24
4 -36 15 -13 12 -28 18 -32 15 -5 -3 -9 2 -9 10 0 8 -6 19 -12 23 -41 26 -61
63 -63 118 -1 31 2 58 7 61 5 3 4 12 -2 19 -9 10 -6 19 9 34 12 12 21 25 21
29 0 5 18 27 41 50 41 41 74 47 105 21z m-421 -299 c0 -8 4 -21 9 -29 7 -10 5
-12 -5 -7 -8 4 -6 1 3 -7 10 -8 21 -28 24 -44 5 -24 1 -33 -20 -46 -25 -17
-32 -13 -27 16 0 4 -5 7 -11 7 -7 0 -21 14 -31 31 -17 30 -17 31 5 48 16 14
18 20 8 26 -8 5 -11 4 -6 -3 3 -6 2 -13 -3 -16 -10 -7 -9 13 2 30 10 17 52 12
52 -6z m165 -38 c10 2 15 -8 16 -29 1 -18 2 -40 3 -48 0 -8 10 -15 21 -15 11
0 23 -7 26 -15 4 -8 12 -15 19 -15 8 0 20 -7 29 -15 8 -9 17 -15 18 -14 9 6
48 -14 48 -24 0 -7 15 -12 35 -13 25 0 36 4 41 18 7 24 25 23 58 -5 25 -22 28
-57 5 -57 -5 0 -9 -6 -9 -14 0 -7 -7 -19 -15 -26 -8 -7 -15 -21 -15 -32 0 -10
-7 -21 -15 -24 -8 -4 -12 -10 -9 -15 3 -5 -9 -23 -26 -39 -17 -16 -29 -34 -25
-40 3 -5 3 -10 -2 -10 -4 0 -9 -16 -10 -35 -1 -23 -10 -43 -25 -56 -13 -10
-18 -18 -13 -17 6 2 10 -1 10 -7 0 -5 -3 -9 -7 -8 -4 2 -5 -4 -2 -12 4 -8 -1
-17 -9 -21 -8 -3 -14 -13 -12 -22 3 -24 -23 -72 -39 -72 -24 0 -46 11 -46 24
0 6 -16 11 -36 12 -23 1 -40 7 -46 18 -8 14 -12 15 -26 4 -12 -10 -14 -10 -8
0 5 8 0 12 -13 12 -12 0 -21 4 -21 8 0 4 -12 9 -27 10 -16 1 -34 10 -41 20
-14 18 -31 23 -47 11 -6 -4 -25 6 -43 22 -29 26 -32 32 -20 46 7 9 12 18 11
20 -25 34 60 44 101 12 26 -21 51 -26 41 -8 -4 6 9 0 28 -12 19 -13 33 -28 29
-34 -3 -5 1 -5 9 2 12 10 20 10 40 0 56 -28 109 -16 109 24 0 11 5 19 10 19 6
0 9 3 8 8 -6 22 13 70 33 78 40 18 31 128 -10 117 -10 -2 -23 3 -30 11 -8 9
-19 16 -27 16 -7 0 -20 8 -30 17 -9 10 -23 18 -31 19 -27 4 -44 14 -39 22 2 4
-6 8 -19 8 -16 0 -22 -5 -20 -16 2 -13 -5 -17 -28 -17 -31 0 -32 2 -35 43 -1
24 3 46 9 49 5 4 14 18 19 31 5 13 16 24 24 24 10 0 13 7 11 23 -5 24 35 64
46 46 3 -6 12 -9 19 -7z m5393 -65 c3 2 4 -3 3 -14 -2 -10 1 -21 7 -25 5 -3
11 -24 12 -47 2 -36 0 -39 -13 -28 -10 7 -13 8 -9 1 4 -7 -11 -29 -33 -52 -22
-22 -40 -42 -40 -45 0 -3 -38 -45 -85 -93 -47 -49 -85 -91 -85 -95 0 -4 -9 -9
-20 -12 -13 -3 -24 1 -30 14 -6 10 -7 19 -3 19 4 0 0 5 -9 11 -35 20 -12 79
27 70 6 -2 7 1 2 5 -4 4 1 16 10 27 10 11 13 17 6 13 -12 -6 -47 46 -38 56 13
13 -47 50 -82 52 -42 2 -66 13 -58 26 3 5 1 11 -5 15 -6 4 -8 11 -5 16 4 5 1
9 -4 9 -6 0 -11 5 -11 10 0 6 7 10 15 10 8 0 15 5 15 10 0 6 17 10 38 10 20 0
51 4 69 9 17 5 34 6 38 3 9 -9 36 -11 30 -3 -2 4 2 8 10 8 8 0 12 -4 10 -8 -3
-4 2 -6 11 -5 8 1 19 9 24 16 10 16 143 30 176 19 12 -4 24 -5 27 -2z m172
-356 c10 -20 11 -32 4 -36 -7 -5 -6 -11 2 -21 9 -11 8 -14 -5 -14 -10 0 -15
-4 -12 -8 3 -5 -1 -9 -9 -9 -8 0 -12 3 -10 7 2 4 -2 7 -10 7 -8 0 -12 -4 -10
-8 7 -10 -20 -30 -45 -32 -19 -1 -21 -6 -18 -38 2 -21 0 -35 -4 -33 -3 2 -10
-1 -14 -7 -4 -7 -3 -9 2 -6 16 10 34 -8 36 -35 2 -26 16 -32 29 -14 4 5 27 9
52 10 25 0 45 5 44 10 -5 23 20 12 41 -17 26 -39 28 -60 7 -77 -8 -7 -15 -10
-15 -7 0 3 -12 0 -26 -8 -14 -7 -39 -12 -54 -11 -17 1 -32 -4 -34 -11 -3 -7
-14 -13 -24 -13 -10 0 -24 -6 -31 -12 -8 -7 -11 -8 -8 -2 3 6 0 11 -8 11 -8 0
-12 -4 -9 -8 7 -12 -13 -20 -57 -24 -23 -1 -46 -8 -52 -14 -6 -6 -22 -11 -35
-11 -13 0 -21 -4 -18 -8 3 -5 -1 -9 -9 -9 -8 0 -13 5 -12 11 1 6 -3 10 -10 9
-7 -2 -10 6 -8 17 2 11 0 22 -6 25 -16 10 -10 44 10 54 10 6 33 12 50 13 17 1
31 5 31 8 0 3 9 11 21 18 12 8 18 9 15 4 -7 -12 19 -10 31 2 11 11 11 55 -1
53 -5 -1 -15 14 -22 33 -12 34 -13 35 -61 32 -26 -2 -55 -10 -64 -18 -19 -17
-65 -19 -75 -3 -10 17 -16 99 -7 100 4 0 21 3 36 5 21 4 27 1 22 -8 -3 -7 2
-3 11 10 9 12 25 22 36 22 10 0 17 4 14 8 -3 5 1 9 9 9 8 0 12 -3 10 -7 -2 -4
2 -7 10 -7 8 0 12 4 9 8 -6 10 63 32 81 26 7 -3 16 1 19 9 3 8 15 14 26 14 14
0 19 4 14 12 -5 7 -3 8 7 2 19 -12 40 -14 34 -4 -3 5 1 11 7 13 30 12 48 5 63
-22z m-5760 -262 c-4 -5 4 -5 19 1 14 5 28 5 31 1 3 -5 13 -7 24 -4 10 2 25
-3 34 -11 8 -9 21 -16 27 -16 19 0 60 -32 60 -47 0 -8 4 -12 9 -8 6 3 8 -4 6
-15 -2 -12 1 -20 10 -20 18 0 25 -23 25 -78 0 -61 -9 -92 -26 -92 -7 0 -11 -8
-9 -19 3 -19 -35 -61 -56 -61 -5 0 -7 -6 -3 -12 5 -8 1 -8 -12 2 -10 8 -16 10
-12 6 15 -18 -15 -36 -59 -36 -26 0 -42 -4 -38 -10 3 -5 -6 -3 -21 5 -15 7
-33 11 -40 8 -16 -6 -46 15 -39 26 2 4 -2 8 -10 8 -8 0 -12 -3 -10 -7 2 -4 -2
-7 -10 -7 -8 0 -13 2 -10 5 2 3 -13 17 -35 33 -34 25 -90 103 -61 85 18 -12
12 16 -6 29 -15 11 -15 17 -5 39 7 15 16 25 21 22 5 -3 7 14 5 38 -3 33 -1 45
11 50 9 3 13 10 10 16 -3 5 1 10 10 10 10 0 13 5 9 13 -6 8 -3 8 9 -1 14 -12
16 -11 12 7 -5 27 10 35 65 37 24 1 46 7 48 13 2 6 8 9 13 5 5 -3 7 -10 4 -15z
m-198 -144 c0 -8 -4 -12 -9 -9 -5 3 -6 10 -3 15 9 13 12 11 12 -6z m6104 -83
c1 -20 2 -54 2 -74 1 -21 5 -38 10 -38 4 0 7 -15 5 -32 -3 -29 -7 -33 -36 -36
-29 -3 -34 0 -43 28 -9 23 -14 28 -24 20 -10 -8 -15 -8 -20 0 -5 8 -10 8 -20
0 -9 -7 -15 -8 -20 -1 -4 7 -14 6 -29 -4 -23 -15 -101 -27 -111 -17 -16 17
-31 7 -33 -22 -3 -40 -34 -82 -58 -78 -25 5 -45 34 -33 49 7 7 6 14 -1 18 -8
5 -7 11 2 23 9 11 9 14 1 9 -16 -10 -24 21 -27 102 -2 46 0 59 9 51 6 -5 15
-7 19 -3 16 17 45 9 51 -14 5 -21 11 -24 43 -22 21 2 43 0 49 -4 6 -4 15 -3
18 3 5 8 11 8 20 0 9 -8 15 -8 20 0 3 6 11 8 16 5 5 -4 9 -2 9 3 0 6 23 15 50
22 53 13 68 24 49 36 -8 5 -9 3 -4 -6 5 -9 4 -11 -4 -6 -15 10 4 36 26 36 8 0
12 4 8 9 -3 5 8 3 25 -5 25 -13 30 -22 31 -52z m-5979 -239 c35 -15 39 -20 37
-39 0 -4 10 -12 23 -18 17 -9 23 -20 22 -44 0 -18 3 -32 8 -32 5 0 8 -16 7
-34 -2 -19 0 -38 4 -42 3 -4 30 -11 58 -15 58 -9 69 -19 69 -66 0 -51 -43 -81
-70 -48 -9 11 -16 12 -25 5 -9 -8 -15 -8 -20 0 -3 6 -12 7 -18 3 -17 -11 -57
-11 -63 -1 -3 4 -11 5 -17 1 -17 -10 -57 -12 -51 -1 3 4 -31 8 -75 8 -71 0
-82 2 -95 22 -11 15 -12 25 -5 34 5 7 6 15 1 18 -11 7 4 146 18 160 5 5 10 16
10 24 0 27 40 71 60 67 11 -2 20 0 20 6 0 15 60 10 102 -8z m5716 -47 c7 -4
10 -11 7 -16 -6 -9 21 -8 30 2 9 8 85 -13 85 -24 0 -5 8 -8 18 -7 9 1 19 0 22
-1 3 -1 18 -3 34 -5 16 -2 33 -10 37 -16 4 -7 15 -14 23 -15 9 -1 14 1 11 5
-2 4 2 8 10 8 8 0 12 -4 9 -9 -3 -4 4 -8 15 -8 18 0 21 -7 22 -40 3 -89 3 -90
-22 -90 -13 0 -18 -4 -13 -12 5 -8 0 -7 -11 2 -10 8 -16 10 -12 4 6 -11 -32
-34 -58 -34 -7 0 -15 -4 -17 -10 -1 -5 -17 -10 -35 -12 -17 -1 -30 -5 -28 -9
3 -3 -7 -11 -20 -17 -17 -8 -26 -8 -31 -1 -6 10 -51 -29 -47 -42 1 -3 -4 -6
-12 -6 -8 0 -12 3 -10 7 2 4 -2 7 -10 7 -8 0 -12 -4 -9 -8 6 -11 -56 -27 -78
-21 -13 3 -18 14 -18 39 0 44 16 73 40 73 28 0 35 18 35 92 0 57 -2 65 -14 55
-12 -9 -13 -9 -7 1 5 8 -1 12 -18 12 -17 0 -26 6 -26 16 0 9 -5 12 -12 8 -6
-4 -8 -3 -4 4 3 6 2 14 -4 17 -8 5 -8 11 0 20 8 9 8 15 0 20 -6 3 -8 10 -5 15
6 10 106 7 123 -4z m-5310 -1466 c25 0 107 -44 119 -63 5 -9 3 -9 -8 -2 -8 6
-5 1 8 -10 13 -12 23 -27 23 -34 0 -8 7 -19 16 -26 10 -6 18 -23 19 -36 1 -13
5 -31 9 -41 10 -22 4 -74 -8 -68 -5 3 -12 -5 -17 -17 -5 -13 -15 -24 -24 -24
-8 -1 -21 -2 -27 -3 -7 -1 -19 2 -26 7 -10 8 -10 13 0 24 15 18 11 82 -5 102
-10 12 -9 13 3 6 8 -5 4 3 -10 18 -14 15 -30 27 -36 27 -6 0 -17 7 -24 15 -7
8 -17 12 -24 8 -16 -10 -37 -13 -31 -4 2 4 -2 8 -10 8 -8 0 -12 -4 -9 -8 5 -8
-20 -17 -62 -23 -10 -1 -23 -12 -29 -24 -5 -12 -16 -22 -24 -22 -10 0 -11 -3
-2 -14 7 -8 8 -17 3 -20 -13 -8 -2 -68 19 -97 10 -14 15 -30 11 -35 -4 -4 2
-2 12 6 13 10 17 10 12 3 -4 -7 -2 -13 4 -13 12 0 57 -39 47 -41 -4 -1 -10 -2
-14 -3 -5 -1 -18 -10 -30 -21 -26 -22 -70 -28 -70 -9 0 11 3 11 16 1 14 -11
14 -10 2 6 -7 9 -20 17 -28 17 -8 0 -11 5 -8 10 3 6 0 10 -8 10 -19 0 -52 49
-52 76 0 11 -8 28 -17 38 -10 10 -18 27 -19 39 -1 12 -2 34 -3 50 -2 15 -1 25
2 23 7 -7 36 24 38 41 4 26 14 46 20 40 4 -3 20 7 38 23 27 26 38 31 61 30 3
-1 13 6 21 15 9 8 31 15 50 15 25 0 33 4 28 13 -6 10 -4 10 7 0 7 -7 24 -13
37 -13z m4998 -12 c-5 8 2 12 23 12 41 0 60 -33 33 -56 -11 -9 -17 -24 -15
-34 3 -9 -2 -23 -10 -31 -12 -12 -24 -43 -33 -85 -2 -12 1 -12 51 0 21 4 31
13 32 27 1 12 9 29 17 38 9 10 16 27 16 39 0 27 38 50 46 28 3 -8 13 -13 23
-11 10 2 18 -3 18 -10 0 -8 -5 -11 -11 -8 -8 5 -8 3 0 -8 5 -8 9 -20 8 -26 -1
-7 -2 -17 -3 -22 0 -5 -8 -17 -17 -26 -21 -20 -23 -90 -5 -107 12 -11 13 -10
6 2 -6 11 -5 12 4 4 19 -18 80 3 74 26 -5 19 34 99 56 117 16 12 35 8 27 -6
-3 -4 1 -8 9 -8 8 0 12 5 8 10 -3 5 4 4 16 -2 25 -14 27 -30 5 -57 -8 -10 -12
-13 -8 -5 4 9 3 12 -4 8 -5 -4 -8 -16 -5 -28 4 -12 0 -25 -7 -29 -8 -5 -15
-19 -17 -31 -2 -13 -10 -30 -18 -39 -8 -9 -15 -26 -15 -38 0 -12 -6 -22 -13
-22 -8 0 -13 -10 -13 -22 1 -30 -45 -36 -82 -12 -15 10 -36 20 -46 21 -11 2
-24 7 -30 12 -6 4 -24 11 -39 15 -15 4 -25 11 -22 16 3 6 -5 10 -20 10 -14 0
-33 9 -42 20 -12 13 -20 16 -29 9 -8 -7 -17 -4 -29 8 -10 9 -29 19 -42 21 -19
2 -24 -1 -21 -15 2 -10 9 -17 15 -16 14 3 8 -68 -6 -77 -6 -3 -13 -19 -16 -35
-6 -28 -2 -32 55 -64 33 -19 60 -41 60 -48 0 -12 12 -17 32 -15 3 1 12 -5 18
-13 7 -8 17 -15 23 -15 17 0 77 -50 77 -64 0 -8 -10 -21 -22 -30 -13 -9 -16
-14 -8 -10 13 7 13 6 0 -12 -8 -10 -19 -22 -25 -26 -13 -10 -27 1 -18 15 4 7
0 7 -10 -1 -14 -12 -16 -11 -12 8 3 16 1 19 -8 12 -16 -13 -61 4 -51 19 4 7 3
9 -3 6 -6 -4 -22 2 -36 13 -14 11 -30 20 -36 20 -6 0 -11 5 -11 10 0 6 -10 15
-22 20 -33 13 -79 46 -73 52 3 2 -2 5 -10 5 -8 0 -12 -3 -10 -6 2 -4 -12 -24
-31 -45 -19 -21 -34 -42 -34 -47 0 -5 -11 -4 -24 1 -13 5 -27 6 -32 2 -4 -4
-4 -1 0 6 4 7 2 12 -7 12 -8 0 -13 9 -13 23 2 28 15 49 27 42 5 -4 9 2 9 12 0
10 15 36 32 58 18 22 27 35 19 30 -8 -4 -1 8 15 28 16 20 32 37 36 37 4 0 14
16 22 34 8 19 29 48 47 64 30 27 32 31 19 48 -9 11 -10 15 -2 10 8 -5 12 -1
12 11 0 10 9 24 21 31 15 10 18 16 10 26 -8 10 -6 18 9 31 11 10 20 29 20 42
0 13 6 23 14 23 9 0 13 7 11 20 -2 11 2 26 10 34 8 7 11 17 7 22 -4 5 2 2 12
-6 13 -10 17 -10 12 -2z m-4726 -343 c10 -23 26 -48 35 -55 8 -7 15 -17 15
-22 0 -13 26 -38 33 -32 8 8 3 -19 -7 -34 -4 -7 -4 -11 1 -10 4 2 8 -1 8 -7 0
-5 -3 -9 -7 -8 -5 2 -8 -3 -8 -11 0 -18 -38 -28 -48 -12 -14 24 -43 34 -68 22
-13 -6 -24 -14 -24 -18 0 -5 -7 -8 -16 -8 -9 0 -12 -5 -8 -12 5 -8 0 -7 -11 2
-10 8 -16 10 -12 4 4 -7 -14 -24 -42 -42 -53 -32 -79 -66 -61 -77 8 -5 7 -12
-2 -23 -11 -13 -11 -14 2 -7 13 8 13 7 1 -8 -8 -10 -16 -15 -19 -12 -3 3 -14
-3 -25 -12 -11 -10 -17 -12 -13 -5 4 7 1 12 -8 12 -9 0 -16 9 -16 20 0 11 -5
20 -10 20 -6 0 -15 10 -21 23 -20 44 -36 67 -42 60 -4 -3 -7 1 -7 11 0 9 -4
15 -9 12 -5 -4 -8 2 -7 11 2 10 -1 21 -6 24 -6 4 -6 14 1 28 13 23 73 31 68 9
-3 -20 60 -22 79 -4 8 9 22 16 30 16 8 0 12 5 9 10 -4 6 5 10 20 10 16 0 24 4
20 11 -4 5 7 15 24 22 17 6 31 15 31 19 0 4 6 8 14 8 10 0 13 12 9 50 -4 45
-3 50 16 50 12 0 21 4 21 9 0 25 43 -6 60 -44z m245 -341 c21 -25 40 -52 41
-60 1 -8 -10 -27 -24 -41 -15 -15 -18 -20 -7 -13 18 13 18 12 -1 -10 -12 -14
-25 -35 -28 -47 -4 -11 -13 -24 -21 -27 -8 -3 -15 -14 -15 -25 0 -10 -7 -22
-16 -25 -8 -3 -13 -10 -10 -15 4 -5 1 -15 -6 -23 -7 -7 -14 -20 -16 -28 -2 -8
-13 -23 -25 -32 -12 -10 -18 -18 -13 -18 5 0 2 -8 -7 -18 -10 -10 -14 -22 -10
-26 5 -4 3 -6 -4 -4 -6 2 -12 -1 -13 -7 -2 -14 -28 -27 -39 -20 -6 3 -8 14 -6
25 2 12 0 18 -5 15 -5 -3 -11 -1 -15 5 -4 6 -10 8 -14 6 -4 -3 -8 1 -8 9 0 8
5 12 11 9 6 -3 2 2 -8 10 -11 9 -14 16 -8 16 7 0 12 7 12 15 0 9 8 19 18 23
22 9 27 32 7 32 -8 0 -15 6 -15 13 0 7 -9 20 -20 30 -12 10 -18 22 -15 28 4 5
1 8 -7 7 -7 -2 -12 2 -11 9 2 7 -3 10 -10 8 -6 -2 -36 -6 -65 -8 -51 -4 -54
-4 -77 32 -30 43 -31 51 -5 51 11 0 23 6 26 14 3 8 12 17 20 20 10 4 13 2 8
-7 -5 -9 -4 -9 6 0 10 9 17 9 26 2 9 -7 15 -5 23 10 6 10 25 23 43 26 18 4 38
11 43 15 14 12 58 16 72 7 7 -5 16 1 23 13 6 11 19 20 28 20 10 0 27 7 38 15
33 25 57 17 99 -31z m4105 37 c0 -4 18 -20 40 -35 23 -15 38 -31 35 -37 -4 -5
-1 -8 6 -7 7 2 13 -3 14 -11 0 -8 9 -15 20 -17 11 -2 25 -10 31 -18 6 -9 14
-16 18 -16 8 0 24 -13 68 -55 18 -16 35 -29 39 -28 4 2 6 -7 4 -18 -3 -16 -1
-18 9 -10 10 8 13 6 11 -12 -2 -32 -27 -67 -48 -67 -10 0 -16 -4 -13 -8 3 -5
-7 -8 -22 -6 -15 1 -27 3 -27 4 0 7 -57 5 -61 -1 -5 -8 -42 8 -54 22 -10 12
-123 4 -128 -8 -2 -7 1 -13 6 -13 6 0 34 -23 62 -51 29 -29 50 -47 47 -42 -3
5 0 10 8 10 7 0 12 -8 10 -19 -2 -10 2 -18 8 -18 8 0 13 -14 13 -34 0 -27 -3
-32 -13 -25 -9 8 -11 6 -9 -8 6 -30 -56 -31 -69 -1 -6 13 -16 22 -23 20 -7 -1
-11 3 -10 9 2 6 -6 13 -16 15 -11 1 -23 10 -28 18 -5 9 -14 16 -19 16 -19 0
-119 102 -112 114 4 6 -2 4 -12 -4 -11 -9 -16 -10 -11 -2 4 7 1 12 -8 12 -9 0
-16 5 -16 10 0 6 -7 10 -15 10 -17 0 -20 -25 -5 -35 11 -7 -17 -55 -32 -55 -5
0 -14 -5 -21 -10 -46 -39 -61 -50 -69 -50 -4 0 -8 -13 -8 -30 0 -26 3 -30 29
-30 16 0 31 6 35 15 3 9 12 12 22 8 13 -5 15 -3 9 8 -8 12 -6 12 8 1 14 -12
16 -11 12 7 -2 13 1 21 10 21 7 0 15 7 19 15 8 21 19 19 50 -10 30 -28 32 -35
11 -35 -8 0 -14 -6 -13 -12 2 -7 -2 -12 -9 -11 -7 2 -10 -6 -8 -18 4 -18 2
-19 -12 -7 -11 8 -14 9 -10 1 8 -12 -45 -68 -64 -68 -5 0 -9 -3 -9 -7 0 -5 3
-7 6 -5 3 1 12 -10 20 -25 19 -35 51 -36 90 -3 16 14 33 25 37 25 5 0 5 6 1
13 -5 7 -1 7 12 -3 10 -8 16 -10 11 -5 -8 9 20 45 36 45 18 0 57 -42 57 -61 0
-16 -34 -44 -50 -42 -3 1 -4 -3 -2 -8 1 -5 -2 -8 -7 -7 -5 2 -8 0 -7 -4 2 -10
-74 -59 -95 -61 -11 -1 -16 -8 -13 -20 3 -16 1 -17 -12 -6 -12 10 -15 10 -12
-1 2 -7 -7 -19 -19 -25 -13 -7 -20 -16 -15 -21 4 -5 -3 0 -15 10 -13 11 -23
16 -23 11 0 -4 -7 -2 -15 5 -8 7 -13 16 -10 20 2 4 -9 20 -26 36 -36 34 -57
72 -54 95 2 9 -3 16 -11 16 -7 0 -11 -3 -9 -7 2 -4 -2 -7 -9 -7 -8 0 -12 11
-11 29 2 23 0 26 -11 17 -10 -8 -12 -6 -9 10 2 12 0 19 -5 16 -5 -3 -15 2 -22
10 -7 9 -18 21 -23 28 -6 7 -10 19 -10 27 1 8 -6 24 -14 35 -9 11 -12 17 -7
13 5 -4 15 -3 23 3 7 6 13 8 13 5 0 -4 11 5 24 19 14 15 33 28 43 30 10 1 17
8 15 16 -3 10 0 10 12 0 13 -11 15 -9 11 9 -2 13 -2 20 1 17 4 -3 13 0 20 6
31 25 41 32 63 45 13 8 20 9 17 3 -5 -7 -1 -8 9 -5 8 4 21 17 28 29 24 45 79
105 91 98 16 -11 37 -13 31 -3 -2 4 8 6 23 4 153 -17 161 -17 168 0 3 9 1 22
-5 30 -6 7 -7 17 -3 21 4 5 1 5 -6 1 -10 -6 -11 -11 0 -24 10 -15 10 -15 -2
-4 -8 7 -15 18 -15 25 -1 7 -6 11 -11 10 -6 -1 -25 11 -43 27 -34 31 -33 42 8
93 14 17 51 24 51 8z m-3671 -487 c19 -9 29 -20 25 -27 -4 -7 -4 -9 1 -5 4 4
20 -1 35 -12 16 -11 33 -20 39 -20 6 0 11 -7 11 -15 0 -8 5 -16 10 -16 6 -1
16 -2 23 -3 19 -2 20 -46 2 -66 -14 -15 -21 -17 -41 -8 -13 6 -22 14 -19 17 2
4 -7 7 -20 7 -17 0 -22 -5 -20 -18 2 -10 -3 -24 -11 -33 -8 -8 -14 -18 -13
-22 1 -4 -8 -13 -20 -19 -12 -6 -23 -15 -24 -20 -1 -5 -5 -8 -9 -7 -5 2 -7 0
-6 -5 6 -19 -13 -72 -24 -70 -17 4 -11 -34 8 -48 19 -15 18 -49 -2 -68 -20
-20 -43 -20 -50 -1 -4 8 -14 15 -23 15 -10 0 -26 12 -38 28 -11 15 -30 28 -42
29 -29 2 -53 22 -44 37 4 6 -2 4 -12 -4 -11 -9 -16 -10 -11 -2 4 7 2 12 -6 12
-9 0 -10 3 -2 8 6 4 10 15 8 25 -1 9 2 15 7 11 5 -3 9 2 9 10 0 18 25 22 35 6
11 -17 40 -11 55 11 8 12 20 27 27 34 7 7 9 16 5 21 -4 5 1 3 10 -4 14 -11 16
-10 14 5 -3 21 33 85 44 78 6 -4 33 19 42 36 5 11 -34 49 -43 43 -14 -8 -22
25 -10 40 6 7 7 17 3 21 -4 5 -1 5 6 1 6 -4 12 -2 12 3 0 15 22 14 59 -5z
m3916 -103 c3 -5 2 -12 -3 -15 -5 -3 -9 1 -9 9 0 17 3 19 12 6z m-3955 -5 c0
-2 -6 -9 -14 -15 -11 -9 -16 -9 -22 0 -4 7 -3 9 4 5 6 -3 13 -2 17 4 6 10 15
14 15 6z m3028 -22 c12 0 25 2 27 7 7 10 42 0 56 -17 6 -8 18 -14 26 -14 22 0
74 -62 69 -83 -2 -11 4 -23 15 -30 14 -9 19 -23 19 -59 0 -50 -8 -80 -19 -73
-4 2 -8 -2 -8 -10 0 -8 5 -11 11 -8 16 10 -16 -30 -36 -45 -10 -7 -18 -20 -18
-29 0 -9 -3 -14 -6 -11 -3 3 -16 -5 -30 -19 -21 -20 -27 -23 -40 -12 -12 10
-15 10 -12 -1 2 -8 -16 -23 -39 -35 -24 -12 -39 -26 -35 -31 4 -4 -1 -2 -11 6
-16 11 -18 11 -15 -1 2 -8 -5 -14 -17 -14 -12 0 -19 6 -17 14 3 12 0 12 -12 2
-12 -10 -14 -9 -11 6 1 10 -9 31 -24 48 -14 16 -19 25 -11 20 9 -6 8 -3 -2 7
-10 9 -18 22 -18 28 0 7 -14 28 -31 47 -17 19 -28 41 -25 48 2 7 -4 21 -15 31
-10 9 -19 23 -19 31 0 8 -4 11 -10 8 -5 -3 -10 1 -10 10 0 9 -4 14 -8 11 -4
-2 -8 11 -8 29 0 19 2 32 4 30 2 -2 12 4 21 13 43 41 59 50 69 40 7 -7 14 -3
21 11 7 12 20 21 31 21 10 0 22 4 25 10 8 13 67 29 80 21 6 -3 20 -6 33 -7z
m-2728 -39 c7 -8 15 -13 19 -10 4 2 21 -5 39 -15 28 -17 30 -23 28 -67 -1 -26
4 -60 12 -75 7 -16 12 -45 10 -66 -2 -31 0 -37 16 -37 11 0 20 8 22 19 1 10 8
22 14 26 7 4 12 11 12 16 0 5 4 8 8 7 4 -1 6 7 3 17 -4 13 0 20 10 20 8 0 14
8 14 18 0 36 4 42 28 42 23 0 30 -10 25 -35 -1 -5 4 -5 11 2 8 8 18 9 31 2 23
-13 23 -36 -1 -49 -12 -6 -17 -17 -14 -28 2 -10 -4 -26 -16 -36 -11 -10 -17
-24 -14 -32 3 -8 0 -20 -6 -28 -6 -7 -7 -17 -3 -22 4 -4 0 -3 -9 4 -14 11 -16
9 -11 -13 3 -16 -1 -27 -11 -31 -9 -3 -14 -14 -12 -24 2 -10 -4 -25 -13 -32
-13 -11 -15 -11 -7 2 7 13 6 13 -7 2 -10 -8 -14 -21 -10 -34 3 -13 -1 -25 -10
-32 -15 -11 -18 -17 -18 -36 0 -5 -9 -10 -20 -10 -12 0 -20 7 -20 17 0 9 -3
13 -7 10 -3 -4 -13 -1 -21 6 -13 10 -14 9 -7 -3 4 -8 -3 -5 -17 8 -18 16 -24
31 -23 60 0 20 -5 48 -12 62 -9 16 -13 55 -12 105 2 71 0 80 -16 80 -11 0 -19
-9 -22 -24 -2 -14 -10 -32 -18 -41 -8 -9 -15 -24 -15 -32 0 -9 -6 -18 -13 -21
-7 -2 -13 -17 -15 -33 -1 -16 -9 -32 -17 -37 -8 -4 -15 -15 -15 -22 0 -19 -36
-19 -43 0 -4 8 -15 12 -27 10 -11 -2 -18 0 -15 6 4 5 1 9 -4 9 -6 0 -11 7 -11
15 0 8 4 15 9 15 6 0 8 9 6 20 -2 11 0 18 6 15 5 -4 9 1 9 11 0 9 8 23 18 31
9 8 11 11 4 8 -11 -6 -11 -3 0 14 7 12 16 21 21 21 4 0 6 4 2 9 -3 5 0 13 6
16 5 4 8 13 5 21 -3 7 3 18 14 24 11 6 17 16 14 25 -4 9 0 22 7 31 7 9 14 23
16 32 1 9 10 22 20 30 10 7 18 18 19 25 2 24 4 27 23 27 10 0 24 -7 31 -15z
m-859 -102 c13 -16 12 -17 -3 -4 -10 7 -18 15 -18 17 0 8 8 3 21 -13z m3241
-17 c4 -6 8 -21 8 -33 0 -13 5 -23 10 -23 6 0 10 -8 10 -18 0 -10 3 -22 7 -26
4 -3 8 -14 9 -22 1 -9 6 -23 10 -32 4 -9 8 -25 8 -35 1 -10 7 -21 14 -26 8 -5
12 -17 10 -29 -2 -11 8 -32 22 -48 14 -15 19 -24 11 -19 -10 6 -12 4 -5 -6 12
-20 12 -77 0 -75 -6 1 -17 5 -24 10 -9 5 -15 1 -19 -13 -3 -14 -13 -21 -29
-21 -13 0 -24 3 -24 8 0 4 -13 13 -30 20 -16 8 -28 19 -27 25 1 7 -4 11 -12 9
-7 -1 -19 5 -27 15 -7 10 -14 14 -14 9 0 -5 -7 -3 -15 4 -8 7 -12 16 -9 21 3
5 0 8 -8 7 -7 -2 -12 3 -10 10 1 8 -2 11 -7 8 -5 -4 -12 -2 -16 4 -4 6 -10 8
-15 5 -5 -3 -7 3 -5 14 3 16 -1 19 -23 15 -32 -6 -54 -24 -29 -24 9 0 18 -6
18 -12 3 -29 5 -34 23 -61 10 -15 16 -36 13 -48 -3 -12 0 -22 8 -25 16 -6 27
-46 19 -68 -7 -19 -65 -39 -88 -30 -9 3 -19 18 -23 33 -3 14 -10 29 -15 32 -5
3 -10 17 -12 30 -1 13 -10 38 -19 56 -9 18 -17 41 -17 52 0 10 -5 21 -11 23
-5 2 -11 10 -12 18 -2 8 -7 21 -11 29 -6 9 -5 12 1 8 5 -3 10 0 10 8 0 8 -4
12 -9 9 -12 -7 -24 31 -23 74 0 31 4 37 21 37 11 0 28 8 38 18 21 21 74 23 82
2 3 -8 14 -17 25 -20 10 -4 19 -13 19 -21 0 -8 4 -13 9 -9 5 3 16 -2 24 -10 9
-8 19 -15 24 -15 5 0 23 -13 41 -29 22 -21 32 -25 33 -15 1 8 2 20 3 27 1 6
-5 18 -12 26 -8 8 -12 27 -10 42 3 21 0 29 -15 33 -14 3 -18 12 -15 38 3 28 8
35 38 44 36 12 60 8 72 -10z m1048 -11 c0 -1 -12 -12 -27 -26 -20 -17 -23 -18
-10 -3 9 11 15 23 12 26 -3 2 2 5 10 5 8 0 15 -1 15 -2z m-2996 -51 c9 -3 13
-11 9 -18 -4 -8 -3 -8 6 0 16 15 77 2 73 -16 -3 -11 0 -11 14 1 12 9 15 9 10
2 -4 -8 -1 -13 9 -13 9 0 14 4 11 9 -3 5 17 -2 45 -16 28 -14 53 -32 56 -39 3
-8 11 -14 19 -14 13 0 16 -7 13 -27 0 -3 6 -10 15 -15 9 -5 16 -17 16 -26 0
-10 6 -24 13 -31 6 -7 8 -12 2 -11 -24 5 -27 -1 -11 -19 13 -14 14 -21 5 -27
-8 -5 -10 -3 -4 6 6 9 4 11 -4 6 -9 -6 -8 -13 6 -29 10 -11 12 -17 6 -13 -9 5
-13 0 -13 -17 0 -13 -7 -38 -16 -55 -17 -34 -87 -95 -98 -85 -14 14 -37 10
-46 -8 -12 -21 -44 -24 -85 -9 -17 6 -24 14 -19 22 6 10 5 10 -8 1 -8 -7 -18
-10 -22 -6 -4 4 -24 6 -45 4 -24 -1 -42 3 -50 13 -8 9 -26 16 -42 16 -25 0
-29 4 -29 28 0 15 5 33 12 40 14 14 20 45 8 37 -4 -3 -3 11 3 30 6 19 16 35
23 35 8 0 11 9 8 24 -2 14 1 37 8 53 6 15 13 39 15 53 2 14 10 38 18 55 7 16
15 38 19 48 6 18 23 21 50 11z m-873 -61 c13 -16 12 -17 -3 -4 -17 13 -22 21
-14 21 2 0 10 -8 17 -17z m2384 -44 c0 -21 -3 -40 -6 -44 -4 -3 -27 -7 -52 -8
-25 -1 -49 -6 -53 -10 -4 -4 -14 -7 -23 -7 -27 0 -43 -16 -46 -45 -2 -15 -1
-24 2 -22 3 3 16 2 29 -3 17 -7 28 -5 40 8 12 12 34 17 73 17 l56 0 0 -40 c0
-36 -2 -40 -24 -37 -17 3 -21 0 -16 -10 6 -10 5 -11 -5 -1 -11 10 -17 10 -30
-2 -9 -8 -36 -16 -58 -18 -35 -2 -42 -6 -42 -22 0 -12 5 -26 11 -32 8 -8 7
-13 -2 -18 -8 -6 -10 -4 -4 5 6 9 4 11 -4 5 -21 -12 1 -23 61 -27 39 -3 55 -1
51 6 -4 6 0 5 9 -2 13 -10 17 -10 22 3 9 25 71 16 71 -10 0 -11 7 -25 15 -32
13 -10 12 -13 -5 -19 -11 -4 -23 -12 -27 -17 -7 -11 -105 -27 -114 -18 -8 9
-54 9 -48 0 2 -4 -5 -13 -16 -19 -23 -13 -108 -11 -117 3 -3 5 -7 35 -8 68 -2
32 -6 63 -9 68 -4 5 -1 13 5 17 9 5 7 11 -5 20 -17 12 -42 89 -26 79 7 -4 6
24 0 33 -2 1 -3 5 -5 10 -1 4 -7 20 -13 35 -29 70 -8 94 86 99 23 1 42 5 42 9
0 9 45 15 125 14 l61 0 -1 -36z m-982 -15 c5 -9 14 -11 31 -4 13 5 27 6 30 3
3 -4 25 -6 48 -5 68 3 78 -4 75 -48 -1 -21 -5 -36 -9 -33 -5 2 -8 -1 -8 -6 0
-6 -7 -11 -15 -11 -8 0 -15 3 -15 8 0 4 -17 6 -37 6 -21 -1 -56 -2 -79 -3 -40
-1 -41 -2 -41 -36 0 -20 4 -32 9 -27 4 4 34 5 66 1 31 -4 65 -8 76 -8 13 -1
17 -6 13 -21 -3 -11 0 -23 5 -27 6 -3 8 -1 4 5 -3 6 -3 13 2 16 4 2 8 -6 8
-19 0 -13 -4 -21 -8 -19 -4 3 -8 -4 -8 -15 0 -15 -6 -21 -22 -21 -35 0 -68 11
-63 20 6 10 -15 7 -34 -4 -10 -6 -12 -5 -7 2 5 9 0 9 -18 2 -14 -5 -26 -7 -26
-5 0 3 -9 -3 -20 -12 -19 -16 -19 -18 -2 -37 13 -16 13 -18 1 -8 -13 9 -16 9
-16 -3 0 -9 14 -17 36 -21 20 -4 42 -11 50 -17 15 -13 43 -19 36 -8 -8 14 77
4 86 -10 9 -13 5 -67 -7 -78 -6 -6 -119 -3 -157 5 -15 3 -25 9 -23 13 3 4 -7
8 -20 9 -18 1 -23 -2 -18 -11 6 -9 4 -9 -8 1 -10 8 -19 9 -22 3 -4 -6 -16 -4
-33 4 -15 8 -29 12 -33 10 -3 -2 -6 12 -6 30 0 20 4 31 11 27 5 -3 4 1 -2 10
-7 8 -11 17 -8 20 3 3 9 38 14 78 5 40 13 76 18 79 4 3 9 42 10 86 3 96 14
109 83 99 25 -4 49 -13 53 -20z m545 -25 c9 -10 22 -19 28 -19 7 0 22 -12 33
-26 16 -21 20 -37 17 -84 -4 -62 -12 -84 -27 -75 -5 4 -9 -1 -9 -9 0 -9 -7
-16 -15 -16 -8 0 -19 -9 -25 -20 -7 -13 -21 -20 -41 -20 -17 0 -28 -4 -25 -8
3 -5 -7 -8 -22 -6 -15 1 -27 3 -27 4 0 1 -8 3 -18 5 -9 2 -15 -1 -11 -6 3 -5
1 -9 -5 -9 -5 0 -11 -28 -13 -62 l-3 -63 -52 -3 c-43 -3 -54 0 -62 17 -8 14
-8 22 0 27 7 4 7 9 1 13 -19 12 -23 49 -7 64 11 12 12 16 2 20 -8 2 -13 42
-15 137 -3 119 -2 136 14 147 12 9 56 13 141 12 110 0 126 -2 141 -20z"/>
<path d="M3893 6259 c-1 -12 -10 -31 -20 -42 -10 -11 -13 -18 -7 -14 6 3 20
-2 30 -11 22 -21 50 -33 57 -26 3 3 -1 17 -9 32 -8 15 -14 34 -14 43 0 15 -18
39 -30 39 -3 0 -6 -10 -7 -21z"/>
<path d="M4328 6232 c-19 -20 -24 -32 -18 -47 4 -11 6 -27 5 -36 -2 -12 4 -15
24 -13 14 1 27 3 29 4 1 1 6 3 10 4 16 2 41 34 34 42 -4 5 1 3 10 -4 14 -11
16 -11 14 2 -1 9 -20 29 -43 46 l-40 29 -25 -27z"/>
<path d="M4936 5929 c-15 -22 -31 -37 -36 -34 -4 3 -7 -3 -5 -12 3 -23 -14
-45 -29 -36 -7 4 -6 1 1 -9 11 -12 9 -18 -9 -34 -14 -11 -18 -13 -10 -3 9 12
9 16 -1 16 -8 0 -13 -13 -13 -33 0 -18 3 -31 7 -29 3 3 14 -4 23 -14 11 -12
30 -18 54 -18 21 0 44 -3 50 -7 7 -4 11 -3 10 2 -4 12 61 84 70 78 4 -2 6 26
6 62 -2 52 -5 68 -17 70 -9 2 -19 11 -22 20 -3 10 -16 19 -29 20 -18 1 -30 -9
-50 -39z"/>
<path d="M3200 5780 c-161 -16 -253 -32 -397 -71 -40 -10 -81 -19 -91 -19 -10
0 -22 -4 -28 -8 -5 -5 -56 -26 -114 -47 -58 -21 -154 -62 -214 -92 -59 -29
-112 -53 -116 -53 -10 0 -248 -158 -269 -178 -8 -8 -30 -24 -50 -36 -36 -23
-152 -128 -246 -221 -132 -133 -254 -296 -394 -525 -5 -8 -32 -66 -61 -128
-94 -204 -145 -364 -201 -632 -27 -130 -38 -507 -20 -678 26 -252 105 -532
216 -767 26 -55 51 -109 56 -120 5 -11 18 -33 29 -50 11 -16 28 -46 39 -66 91
-166 327 -440 517 -599 192 -162 479 -330 699 -411 28 -10 70 -25 93 -34 66
-24 214 -60 337 -84 295 -55 643 -50 945 14 41 9 95 20 120 25 25 5 72 19 105
33 33 13 73 27 89 31 107 27 486 224 586 305 24 20 61 47 82 61 48 32 230 199
288 263 132 146 150 167 150 175 0 4 10 18 23 32 38 43 125 179 189 295 75
136 183 396 199 480 4 22 15 65 24 95 54 188 80 485 65 735 -11 190 -18 239
-57 400 -13 55 -28 118 -33 140 -5 22 -16 54 -24 70 -9 17 -16 35 -16 42 0 6
-20 60 -44 120 -48 118 -115 249 -184 358 -24 39 -52 83 -61 99 -15 27 -78
107 -159 205 -160 191 -424 409 -644 531 -279 155 -572 254 -888 300 -98 15
-432 21 -540 10z m-1074 -743 c4 -4 13 -2 20 4 15 12 54 3 54 -12 0 -6 4 -8 9
-4 6 3 8 -3 6 -14 -2 -11 2 -22 9 -24 13 -5 32 -71 27 -91 -1 -5 5 -4 13 3 12
10 19 8 35 -8 12 -12 34 -21 50 -21 28 0 57 -21 45 -33 -4 -3 6 -4 21 -1 30 5
59 -12 48 -30 -4 -6 1 -5 10 3 14 11 21 11 42 -3 14 -9 23 -21 20 -26 -6 -9
21 -8 30 2 10 9 98 -32 115 -53 10 -12 19 -16 25 -10 6 5 20 5 35 -2 14 -5 31
-11 38 -13 24 -5 63 -35 57 -44 -3 -5 4 -7 16 -5 29 6 70 -5 63 -16 -3 -5 10
-9 29 -9 33 0 64 -20 51 -33 -3 -3 4 -3 15 0 14 4 27 -1 37 -13 9 -11 12 -13
8 -5 -5 10 -3 12 7 5 8 -4 23 -10 33 -11 11 -2 26 -9 34 -15 8 -7 23 -13 35
-15 11 -2 25 -7 31 -12 6 -5 26 -12 44 -16 18 -3 37 -16 43 -27 7 -14 14 -17
21 -10 12 12 61 -6 53 -19 -6 -9 16 -6 34 5 9 6 12 5 7 -2 -3 -6 1 -9 10 -8 8
1 19 8 24 16 5 7 24 14 44 14 22 1 36 6 36 14 0 6 12 12 26 12 17 0 23 4 18
13 -5 8 -2 8 9 -2 15 -12 17 -11 17 2 0 10 13 18 35 23 19 3 38 10 41 15 3 5
14 9 25 9 14 0 18 4 13 13 -6 9 -4 9 8 -1 11 -9 18 -10 23 -2 10 15 86 50 111
50 12 0 27 7 34 15 7 8 22 15 33 15 11 0 28 7 37 15 9 8 30 15 47 17 17 1 30
5 27 9 -2 4 10 12 26 19 24 10 33 10 48 -1 9 -7 14 -9 10 -5 -12 14 12 36 38
36 13 0 24 5 24 10 0 6 9 10 21 10 11 0 18 4 15 8 -3 5 1 9 9 9 8 0 12 -3 10
-7 -2 -4 2 -7 10 -7 8 0 12 4 9 8 -7 12 36 31 57 26 10 -3 17 -1 13 4 -3 5 8
14 23 20 15 6 41 18 56 26 16 8 37 13 48 10 12 -3 22 0 25 8 8 21 59 36 74 22
10 -9 11 -9 6 1 -4 7 -1 12 7 12 7 0 14 7 14 15 0 8 -4 12 -8 9 -4 -2 -11 0
-14 6 -4 6 -1 9 7 8 9 -2 12 6 11 26 -5 66 95 100 157 54 21 -15 35 -18 64
-13 20 4 39 11 42 16 3 5 16 9 29 9 28 0 55 -34 55 -68 0 -13 7 -30 15 -38 19
-20 19 -63 0 -84 -22 -24 -27 -60 -10 -67 9 -3 15 -18 15 -34 0 -19 5 -29 14
-29 8 0 18 -10 21 -22 6 -16 1 -26 -16 -39 -13 -10 -30 -19 -37 -19 -7 0 -11
-4 -8 -8 3 -5 -1 -9 -9 -9 -8 0 -12 3 -10 7 2 4 -2 7 -10 7 -8 0 -12 -4 -9 -8
5 -9 -35 -33 -43 -25 -3 3 -37 -11 -75 -31 -60 -32 -72 -35 -90 -24 -11 7 -17
8 -14 2 5 -8 -68 -48 -149 -82 -11 -4 -41 -17 -67 -27 -25 -11 -49 -17 -53
-14 -11 11 -34 10 -32 -1 1 -7 -7 -12 -18 -12 -11 0 -28 -10 -39 -23 -14 -18
-26 -22 -52 -19 -19 3 -31 1 -29 -4 7 -10 -27 -29 -50 -29 -9 0 -23 -7 -31
-15 -21 -20 -35 -19 -41 5 -6 24 -23 17 -23 -10 0 -22 -26 -39 -52 -35 -10 2
-18 -2 -18 -8 0 -7 -9 -18 -20 -25 -23 -14 -26 -29 -6 -29 24 0 126 -45 126
-56 0 -6 3 -8 6 -4 3 3 30 -4 60 -15 70 -27 82 -22 74 34 -5 36 -1 57 18 87 1
3 9 -4 18 -15 8 -10 12 -12 8 -4 -7 13 -6 13 12 0 10 -8 25 -22 32 -30 8 -8
11 -10 8 -4 -3 6 1 11 9 11 8 0 12 -4 9 -8 -2 -4 5 -13 17 -19 15 -8 20 -19
16 -35 -2 -13 0 -23 6 -22 16 3 28 -55 15 -71 -18 -21 -20 -46 -3 -32 10 9 18
7 33 -8 15 -15 23 -17 32 -9 10 9 11 9 6 0 -5 -9 1 -13 18 -13 14 0 28 -4 31
-10 12 -19 33 -10 44 20 5 17 14 30 20 30 13 0 8 18 -16 65 -21 39 -56 78
-118 130 -16 14 -25 25 -20 24 23 -3 27 2 14 18 -12 15 -12 16 1 8 13 -8 13
-7 1 9 -12 15 -12 19 2 33 12 12 19 13 29 5 21 -17 24 -18 41 -3 15 11 26 3
95 -68 76 -78 81 -81 125 -81 51 0 101 -15 93 -28 -3 -5 1 -9 9 -9 8 0 12 4 8
9 -10 18 52 -21 87 -53 26 -24 35 -41 37 -68 1 -20 5 -46 8 -58 7 -23 -24 -63
-49 -63 -19 0 -76 48 -76 64 0 15 -79 89 -98 92 -6 1 -9 -3 -6 -8 5 -7 2 -8
-7 -2 -18 11 -39 14 -38 6 3 -22 -3 -32 -19 -32 -15 0 -17 -7 -14 -41 3 -22
-1 -46 -7 -52 -17 -17 -13 -26 8 -22 11 2 34 -10 54 -28 20 -18 41 -33 48 -35
7 -2 19 -11 27 -20 9 -11 11 -12 6 -2 -7 13 -5 13 8 2 9 -7 15 -22 13 -34 -3
-15 -1 -17 8 -9 20 16 57 -12 160 -118 34 -35 70 -71 80 -79 9 -9 17 -22 17
-29 0 -7 5 -13 10 -13 6 0 10 -8 8 -17 -2 -10 3 -18 10 -18 15 0 33 -26 26
-37 -3 -5 8 -21 25 -37 27 -25 36 -47 32 -73 0 -5 3 -8 8 -8 13 0 61 -96 61
-120 0 -10 5 -22 10 -25 6 -4 9 -23 8 -43 -2 -27 1 -37 11 -37 16 0 34 -50 27
-77 -2 -9 1 -19 7 -21 6 -2 12 -23 14 -48 2 -24 8 -45 13 -47 21 -7 50 -95 46
-137 -3 -33 1 -47 15 -59 32 -27 22 -201 -11 -181 -4 3 -6 -8 -4 -25 5 -31
-35 -115 -51 -108 -17 7 -13 -37 6 -61 15 -18 20 -38 18 -71 -2 -25 0 -50 2
-56 3 -5 4 -15 3 -21 -1 -7 -2 -26 -3 -42 -1 -33 -54 -91 -83 -91 -11 0 -17
-4 -13 -9 10 -17 -66 -4 -86 15 -10 9 -19 26 -19 37 0 11 -7 28 -16 38 -15 16
-22 89 -13 134 3 15 -2 20 -21 20 -14 1 -30 -2 -36 -7 -6 -4 -27 1 -47 11 -20
10 -47 21 -60 25 -27 6 -103 73 -100 86 2 6 -2 10 -8 10 -16 0 -65 64 -85 110
-3 8 -13 29 -21 46 -9 17 -14 37 -11 45 3 8 -2 19 -11 25 -12 9 -13 15 -3 26
9 12 7 23 -8 53 -16 31 -17 42 -8 54 7 9 8 13 4 9 -5 -5 -15 1 -23 12 -8 12
-25 20 -41 20 -34 0 -76 37 -126 113 -21 32 -51 64 -67 73 -16 8 -36 25 -45
39 -8 13 -21 22 -28 19 -21 -8 -68 14 -60 28 5 10 4 10 -5 2 -16 -15 -122 0
-133 19 -4 9 -16 13 -27 10 -25 -6 -64 15 -54 30 5 8 2 8 -9 -1 -13 -11 -22
-7 -53 23 -21 19 -41 35 -46 35 -4 0 -17 16 -29 35 -12 19 -26 35 -31 35 -5 0
-13 8 -16 18 -4 9 -15 29 -26 44 -11 15 -17 33 -14 41 3 9 -1 18 -9 21 -10 4
-14 16 -11 38 3 25 -2 38 -19 55 -14 12 -22 30 -19 41 2 11 -3 23 -11 26 -8 3
-14 14 -14 24 0 22 -23 45 -34 34 -4 -4 -6 -2 -4 3 1 6 -12 25 -30 43 -20 20
-30 37 -26 45 5 7 1 7 -10 -2 -9 -8 -16 -10 -14 -5 4 12 -49 63 -58 55 -4 -3
-4 -1 0 6 3 6 -3 20 -14 31 -12 11 -18 26 -15 35 4 10 -1 17 -13 21 -11 4 -22
16 -25 27 -3 12 -10 18 -17 14 -15 -10 -62 3 -55 15 3 6 -2 10 -13 10 -25 0
-85 30 -95 47 -6 10 -14 6 -33 -17 -14 -16 -35 -30 -45 -30 -14 0 -18 -4 -13
-12 5 -9 2 -9 -9 1 -15 11 -17 11 -17 -2 0 -9 -12 -18 -27 -22 -40 -9 -70 -37
-78 -73 -4 -21 -18 -38 -41 -52 -19 -12 -34 -25 -34 -28 0 -4 -9 -13 -21 -20
-17 -11 -20 -11 -13 0 4 7 -2 4 -14 -6 -12 -11 -22 -27 -22 -37 0 -10 -8 -26
-17 -36 -36 -36 -68 -76 -56 -69 9 5 11 2 7 -9 -4 -8 -14 -20 -24 -25 -12 -6
-16 -17 -12 -35 2 -14 -2 -33 -10 -43 -7 -9 -15 -30 -17 -47 -3 -32 -19 -58
-30 -50 -4 2 -8 -2 -8 -10 0 -8 4 -12 9 -9 4 3 -2 -12 -14 -33 -51 -87 -188
-188 -246 -181 -17 2 -26 -2 -25 -9 3 -14 -73 -27 -118 -21 -21 3 -33 0 -39
-12 -5 -10 -20 -18 -32 -18 -28 0 -141 -100 -131 -116 4 -6 -1 -5 -10 3 -15
12 -17 12 -11 -2 3 -10 -4 -27 -20 -43 -14 -15 -23 -31 -21 -35 3 -4 -3 -13
-13 -20 -15 -13 -16 -12 -4 3 9 11 10 18 2 23 -6 4 -9 3 -8 -2 1 -4 -4 -18
-11 -31 -10 -19 -20 -23 -46 -21 -42 4 -49 -3 -51 -46 0 -19 -7 -42 -15 -51
-8 -10 -14 -39 -14 -66 0 -30 -5 -52 -13 -57 -8 -5 -13 -11 -13 -15 4 -26 -2
-39 -18 -43 -13 -3 -18 -12 -16 -24 5 -27 -80 -135 -130 -165 -84 -50 -126
-66 -170 -62 -24 1 -41 0 -39 -4 2 -3 -2 -8 -8 -11 -10 -3 -10 -8 1 -21 8 -9
10 -16 5 -14 -5 2 -9 -1 -9 -7 0 -5 3 -9 7 -8 9 3 4 -25 -7 -34 -4 -4 -5 -2 0
6 6 10 4 12 -4 7 -9 -6 -8 -13 6 -28 13 -15 14 -19 3 -16 -11 2 -14 -5 -12
-24 2 -15 -3 -30 -12 -35 -8 -4 -14 -12 -14 -18 0 -5 -9 -15 -21 -21 -11 -6
-18 -14 -14 -17 10 -11 -33 -8 -64 4 -34 13 -63 42 -63 64 0 9 -4 14 -8 11 -5
-3 -8 7 -7 22 1 15 -3 30 -8 33 -6 4 -6 13 -1 20 5 8 9 37 9 64 2 56 12 95 25
95 5 0 -4 20 -20 44 -17 24 -30 51 -30 61 0 9 -7 23 -15 31 -8 9 -16 26 -16
40 -5 85 -5 170 0 179 3 5 4 22 3 36 -2 15 4 34 13 43 9 9 14 23 11 31 -3 9 3
24 13 34 10 10 17 25 15 34 -1 9 4 17 12 17 9 0 14 10 14 28 0 45 12 106 24
122 7 8 13 31 15 50 1 19 11 42 21 50 11 9 16 24 14 39 -2 13 1 30 8 38 7 8
14 24 15 36 2 12 10 28 18 37 8 9 15 21 15 27 0 6 7 16 15 23 9 7 13 15 11 18
-8 7 19 55 43 76 12 11 21 24 21 31 0 7 12 25 27 41 15 16 26 33 25 38 -2 5 4
4 12 -3 13 -11 15 -9 11 9 -4 18 -2 20 11 9 12 -10 13 -9 8 4 -4 11 12 35 50
73 31 31 56 54 56 51 0 -4 9 1 19 10 11 9 17 21 14 26 -3 6 -1 7 5 3 7 -4 12
-3 12 3 0 5 8 12 18 15 10 4 34 20 52 36 19 17 40 30 47 30 7 0 13 5 13 10 0
6 9 10 20 10 10 0 24 9 30 20 6 11 16 20 23 20 8 0 13 14 12 39 0 21 -3 37 -6
35 -9 -5 -27 38 -24 57 2 10 -5 15 -21 15 -12 0 -21 -3 -19 -6 2 -4 -2 -7 -10
-7 -8 0 -12 4 -10 8 3 4 -2 6 -10 5 -19 -3 -109 -94 -111 -113 -4 -22 -25 -43
-44 -43 -26 0 -59 34 -66 67 -6 31 11 78 24 69 4 -2 8 7 7 22 0 19 10 33 40
53 22 15 51 29 65 31 14 2 31 9 38 16 7 6 33 12 57 12 55 0 103 21 119 51 6
13 18 24 26 24 8 1 14 7 12 15 -3 11 0 11 12 1 12 -10 14 -9 12 6 -3 19 16 43
34 43 6 0 8 5 4 13 -5 7 0 6 11 -3 11 -9 16 -10 11 -2 -4 7 -1 12 9 12 9 0 14
-4 11 -8 -3 -5 1 -9 9 -9 8 0 12 3 10 7 -2 4 2 7 10 7 8 0 13 -2 11 -4 -2 -3
4 -13 15 -24 11 -11 16 -25 12 -36 -8 -22 -45 -63 -56 -63 -11 0 -67 -56 -67
-67 0 -5 -5 -14 -11 -20 -13 -13 -18 -123 -6 -123 5 0 15 -7 24 -15 14 -14 16
-14 27 0 6 8 23 16 38 17 15 1 25 5 22 9 -2 4 10 12 26 18 23 8 30 16 31 38 2
66 7 86 23 95 9 5 16 16 16 23 0 8 7 15 16 15 9 0 12 5 8 13 -5 7 0 6 11 -3
10 -8 16 -10 12 -3 -8 13 42 53 67 53 12 0 16 -10 16 -35 0 -26 -4 -35 -16
-35 -13 0 -14 -3 -5 -14 8 -10 9 -16 1 -21 -6 -4 -7 -12 -1 -24 7 -13 19 -16
45 -13 20 2 33 8 31 13 -3 5 7 11 22 14 15 4 40 13 55 21 14 8 35 14 46 14 11
0 25 7 32 15 8 10 21 13 33 9 15 -5 17 -3 11 7 -6 11 -5 12 8 2 8 -7 18 -10
21 -6 10 9 8 35 -1 29 -5 -3 -19 4 -32 16 -13 12 -33 22 -45 23 -12 0 -30 9
-40 19 -10 10 -26 15 -37 13 -11 -3 -22 1 -25 9 -3 8 -18 14 -34 14 -16 0 -32
6 -35 13 -2 7 -19 14 -37 15 -17 1 -37 8 -42 16 -6 7 -21 17 -35 21 -14 4 -30
15 -36 23 -7 10 -13 12 -18 4 -7 -12 -31 -6 -55 12 -7 6 -25 12 -40 13 -14 2
-35 8 -46 13 -11 5 -32 14 -47 20 -16 5 -28 14 -28 19 0 5 -9 13 -20 16 -25 8
-27 25 -2 19 10 -3 28 6 45 24 24 25 26 31 13 41 -12 10 -17 7 -28 -16 -7 -15
-19 -29 -26 -29 -6 -1 -14 -3 -17 -4 -3 -1 -14 -3 -24 -4 -11 0 -23 -4 -27 -8
-4 -4 -14 -2 -22 5 -13 10 -14 9 -7 -3 4 -8 -5 -3 -21 11 -16 15 -35 24 -41
22 -16 -6 -45 22 -35 33 4 5 -1 2 -10 -5 -15 -11 -24 -11 -48 -1 -18 7 -27 17
-23 24 4 6 -2 4 -12 -4 -11 -9 -16 -10 -11 -2 5 8 0 12 -17 12 -14 0 -30 7
-37 15 -7 8 -9 15 -5 15 4 0 2 6 -4 14 -8 10 -9 16 -1 21 6 3 8 10 5 15 -3 4
2 13 10 20 8 7 15 22 15 33 0 11 7 28 16 38 14 15 13 18 -10 37 -25 19 -36 62
-16 62 6 0 10 13 10 30 0 17 7 33 18 39 9 5 17 20 17 33 0 28 38 37 63 15 26
-23 65 -24 101 0 33 20 54 24 67 10z m2162 -2137 c84 -15 135 -30 196 -59 93
-45 126 -74 176 -151 32 -50 35 -60 38 -150 4 -87 2 -101 -21 -146 -28 -54
-112 -138 -169 -169 -52 -27 -49 -49 11 -79 64 -33 150 -113 179 -166 26 -50
52 -155 52 -214 0 -90 -50 -197 -129 -275 -132 -132 -362 -195 -626 -171 -66
6 -137 17 -158 25 -20 8 -45 15 -55 15 -36 0 -166 73 -211 118 -117 117 -152
290 -88 432 29 65 74 110 165 166 37 22 67 47 67 55 0 8 -20 25 -45 38 -49 26
-109 93 -140 157 -11 23 -26 77 -32 121 -11 74 -10 85 12 153 47 147 203 263
398 297 48 8 89 17 91 19 12 11 190 1 289 -16z m-892 -44 c3 -13 4 -86 2 -162
l-3 -139 -47 -77 c-27 -42 -48 -79 -48 -81 0 -12 -112 -206 -125 -217 -8 -7
-15 -19 -15 -26 0 -8 -11 -31 -24 -52 -13 -20 -35 -60 -50 -87 -14 -28 -30
-57 -36 -65 -14 -22 -115 -203 -123 -220 -4 -8 -18 -33 -30 -55 -13 -22 -41
-71 -61 -109 -71 -129 -112 -191 -137 -203 -34 -18 -379 -18 -402 0 -20 15
-24 6 93 205 33 56 60 107 60 112 0 5 6 15 13 22 14 15 77 117 77 125 0 2 29
53 64 111 36 59 70 121 77 137 7 17 21 39 30 50 9 11 50 79 89 150 40 72 79
137 86 146 8 8 14 19 14 22 0 4 14 29 31 57 17 28 28 57 25 65 -5 13 -57 15
-369 15 -307 0 -366 2 -377 15 -13 15 -17 226 -5 264 l6 21 589 0 590 0 6 -24z"/>
<path d="M2066 4775 c-11 -8 -17 -18 -13 -21 10 -11 37 4 37 21 0 18 0 18 -24
0z"/>
<path d="M2280 4669 c0 -5 5 -7 10 -4 6 3 10 8 10 11 0 2 -4 4 -10 4 -5 0 -10
-5 -10 -11z"/>
<path d="M2433 4625 c0 -8 4 -12 9 -9 5 3 6 10 3 15 -9 13 -12 11 -12 -6z"/>
<path d="M4256 4601 c-3 -5 1 -14 8 -20 12 -10 13 -8 9 8 -6 23 -9 25 -17 12z"/>
<path d="M4520 4598 c0 -4 5 -8 11 -8 5 0 7 -4 4 -10 -9 -14 8 -12 30 4 17 12
16 14 -13 18 -18 2 -32 1 -32 -4z"/>
<path d="M4440 4554 c0 -8 5 -12 10 -9 6 4 8 11 5 16 -9 14 -15 11 -15 -7z"/>
<path d="M2660 4531 c0 -6 4 -12 8 -15 5 -3 9 1 9 9 0 8 -4 15 -9 15 -4 0 -8
-4 -8 -9z"/>
<path d="M2727 4513 c-13 -12 -7 -32 7 -27 19 7 29 34 12 34 -7 0 -16 -3 -19
-7z"/>
<path d="M4020 4511 c0 -4 8 -15 18 -24 17 -15 18 -15 18 6 0 15 -6 24 -18 24
-10 1 -18 -2 -18 -6z"/>
<path d="M2473 4465 c0 -8 6 -15 14 -15 7 0 13 7 13 15 0 8 -6 15 -13 15 -8 0
-14 -7 -14 -15z"/>
<path d="M2873 4445 c0 -8 4 -15 9 -15 4 0 8 4 8 9 0 6 -4 12 -8 15 -5 3 -9
-1 -9 -9z"/>
<path d="M3880 4439 c0 -11 4 -18 10 -14 5 3 7 12 3 20 -7 21 -13 19 -13 -6z"/>
<path d="M2933 4405 c0 -11 4 -12 14 -4 7 6 13 13 13 15 0 2 -6 4 -13 4 -8 0
-14 -7 -14 -15z"/>
<path d="M4000 4384 c0 -15 6 -16 35 -5 17 7 17 8 -8 13 -19 4 -27 1 -27 -8z"/>
<path d="M2748 4376 c-23 -17 -23 -26 -1 -26 9 0 13 3 10 7 -4 3 -2 12 4 20
14 16 9 16 -13 -1z"/>
<path d="M3021 4374 c0 -11 3 -14 6 -6 3 7 2 16 -1 19 -3 4 -6 -2 -5 -13z"/>
<path d="M2824 4366 c-4 -10 -2 -22 4 -28 8 -8 13 -7 18 6 4 10 2 22 -4 28 -8
8 -13 7 -18 -6z"/>
<path d="M3934 4365 c3 -21 16 -31 16 -12 0 9 -4 18 -9 21 -5 4 -8 -1 -7 -9z"/>
<path d="M3080 4351 c0 -5 9 -7 20 -4 11 3 20 7 20 9 0 2 -9 4 -20 4 -11 0
-20 -4 -20 -9z"/>
<path d="M2906 4331 c-4 -7 -5 -15 -2 -18 9 -9 19 4 14 18 -4 11 -6 11 -12 0z"/>
<path d="M3159 4331 c-5 -37 -2 -46 11 -46 18 0 21 46 3 53 -7 2 -14 -1 -14
-7z"/>
<path d="M3851 4324 c0 -11 3 -14 6 -6 3 7 2 16 -1 19 -3 4 -6 -2 -5 -13z"/>
<path d="M3233 4287 c0 -8 6 -14 12 -14 6 0 12 6 12 14 0 7 -6 13 -12 13 -6 0
-12 -6 -12 -13z"/>
<path d="M3310 4260 c0 -5 5 -10 10 -10 6 0 10 5 10 10 0 6 -4 10 -10 10 -5 0
-10 -4 -10 -10z"/>
<path d="M3139 4249 c0 -2 -2 -11 -4 -20 -1 -9 3 -16 10 -16 7 0 12 6 11 13
-2 13 -15 31 -17 23z"/>
<path d="M3405 4180 c-16 -7 -17 -9 -3 -9 9 -1 20 4 23 9 7 11 7 11 -20 0z"/>
<path d="M3898 4053 c7 -3 16 -2 19 1 4 3 -2 6 -13 5 -11 0 -14 -3 -6 -6z"/>
<path d="M2375 3920 c-3 -5 1 -10 10 -10 9 0 13 5 10 10 -3 6 -8 10 -10 10 -2
0 -7 -4 -10 -10z"/>
<path d="M2812 3751 c2 -23 -5 -31 -27 -31 -14 0 -25 -4 -25 -9 0 -9 -40 -27
-49 -22 -2 2 -8 -4 -13 -13 -5 -9 -20 -16 -33 -16 -14 0 -25 -6 -25 -13 0 -16
-51 -46 -83 -49 -14 -1 -24 -5 -21 -9 2 -4 -10 -21 -26 -38 -34 -33 -32 -49
11 -86 13 -12 19 -14 14 -5 -6 12 -5 13 6 3 7 -7 19 -13 27 -13 8 0 10 5 6 13
-6 9 -4 9 7 1 8 -7 31 -13 51 -16 32 -3 35 -2 25 12 -6 8 -2 7 10 -4 13 -10
20 -22 18 -26 -6 -9 8 -8 43 4 15 5 22 15 22 34 0 15 9 52 20 82 11 30 20 56
20 58 0 2 4 1 9 -2 5 -4 8 5 6 19 -1 17 5 31 17 40 26 18 53 68 39 73 -6 2 -9
7 -7 11 3 4 -6 7 -19 7 -13 0 -23 -2 -23 -5z"/>
<path d="M3928 3742 c-16 -3 -16 -7 5 -46 13 -24 30 -51 39 -60 10 -9 14 -24
11 -37 -4 -13 -2 -20 4 -16 5 3 10 0 10 -8 0 -8 -4 -12 -8 -9 -4 2 -11 -1 -15
-7 -4 -7 -3 -9 3 -6 14 9 37 -19 30 -37 -3 -8 -3 -17 1 -21 4 -4 7 -10 7 -14
0 -3 10 -17 22 -30 12 -13 20 -29 17 -35 -3 -6 3 0 14 13 17 22 26 24 94 22
63 -1 77 1 92 18 10 11 23 18 27 15 5 -3 9 11 9 31 0 20 -4 34 -8 31 -5 -3
-22 7 -39 22 -16 15 -47 36 -68 47 -21 11 -40 27 -43 37 -2 10 -11 15 -23 13
-11 -2 -28 6 -39 17 -11 12 -23 19 -26 15 -6 -5 -83 30 -94 43 -3 3 -13 4 -22
2z"/>
<path d="M4460 3731 c0 -6 4 -12 8 -15 5 -3 9 1 9 9 0 8 -4 15 -9 15 -4 0 -8
-4 -8 -9z"/>
<path d="M4380 3630 c-8 -26 -7 -41 2 -32 6 6 8 16 5 24 -3 7 -6 11 -7 8z"/>
<path d="M2341 3594 c0 -11 3 -14 6 -6 3 7 2 16 -1 19 -3 4 -6 -2 -5 -13z"/>
<path d="M4435 3590 c-3 -5 -1 -10 4 -10 6 0 11 5 11 10 0 6 -2 10 -4 10 -3 0
-8 -4 -11 -10z"/>
<path d="M2287 3573 c-13 -12 -7 -23 11 -22 10 0 12 3 4 6 -6 2 -10 9 -6 14 6
10 0 12 -9 2z"/>
<path d="M2220 3531 c0 -11 4 -21 9 -21 18 0 21 18 6 30 -13 10 -15 9 -15 -9z"/>
<path d="M4522 3533 c2 -10 11 -19 21 -21 24 -5 21 15 -4 28 -18 10 -20 9 -17
-7z"/>
<path d="M2323 3369 c-13 -5 -23 -14 -23 -22 0 -7 -13 -26 -30 -42 -16 -16
-30 -33 -30 -38 0 -6 -11 -25 -25 -43 -14 -18 -25 -39 -25 -48 0 -8 -7 -19
-16 -24 -20 -11 -15 -54 7 -57 9 -2 16 3 16 11 0 11 -4 11 -16 2 -9 -7 -2 2
14 20 17 17 35 32 42 32 6 0 13 5 15 11 2 5 10 11 18 12 8 2 26 10 40 19 58
38 145 54 180 34 8 -5 12 -6 8 -1 -12 13 12 35 37 35 12 0 30 9 39 19 10 11
26 18 37 16 10 -2 19 1 19 6 0 6 8 18 17 27 16 16 15 17 -1 20 -9 2 -32 -4
-51 -12 -36 -17 -164 -16 -188 1 -28 21 -63 30 -84 22z"/>
<path d="M4075 3370 c4 -6 11 -8 16 -4 5 3 8 0 7 -7 -2 -7 23 -26 55 -41 31
-16 57 -33 57 -38 0 -6 12 -10 28 -10 16 0 32 -8 40 -20 10 -17 15 -18 31 -8
14 9 29 8 65 -2 25 -7 43 -16 41 -20 -3 -5 3 -6 13 -3 11 2 25 -1 33 -9 8 -7
28 -18 44 -24 17 -6 29 -16 27 -22 -1 -7 7 -12 17 -12 10 0 21 -7 25 -15 9
-24 26 -17 26 10 0 14 -4 25 -9 25 -9 0 -34 54 -35 77 -1 6 -5 15 -10 20 -5 5
-6 2 -1 -7 14 -25 -2 -7 -30 34 -14 21 -24 45 -21 52 3 8 0 13 -7 11 -7 -1
-11 3 -10 10 2 7 -9 10 -30 8 -53 -7 -64 -10 -82 -25 -25 -20 -193 -20 -205 0
-5 8 -6 19 -2 25 3 5 -3 3 -13 -5 -11 -9 -16 -10 -11 -2 5 9 -3 12 -29 12 -22
0 -34 -4 -30 -10z"/>
<path d="M5020 3150 c0 -5 0 -13 0 -17 0 -5 6 -8 13 -8 6 -1 11 -6 10 -13 -2
-7 4 -9 14 -5 15 6 15 7 -1 18 -9 7 -16 17 -16 24 0 6 -4 11 -10 11 -5 0 -10
-4 -10 -10z"/>
<path d="M4618 3113 c7 -3 16 -2 19 1 4 3 -2 6 -13 5 -11 0 -14 -3 -6 -6z"/>
<path d="M5147 3073 c-10 -9 -9 -23 1 -23 5 0 9 7 9 15 0 17 -1 18 -10 8z"/>
<path d="M1622 3056 c1 -10 8 -17 13 -17 15 1 12 24 -3 29 -9 3 -13 -2 -10
-12z"/>
<path d="M2138 3053 c7 -3 16 -2 19 1 4 3 -2 6 -13 5 -11 0 -14 -3 -6 -6z"/>
<path d="M4815 2996 c0 -36 3 -67 6 -70 3 -4 14 3 25 15 10 11 14 20 9 19 -24
-5 -27 1 -9 21 10 11 14 20 9 19 -24 -5 -27 1 -9 21 14 15 15 20 4 17 -8 -2
-14 3 -12 10 1 6 -4 12 -11 12 -9 0 -13 -18 -12 -64z"/>
<path d="M1573 3034 c-3 -8 -2 -19 4 -25 5 -5 9 1 11 16 2 28 -6 33 -15 9z"/>
<path d="M4635 3020 c-3 -5 -1 -10 4 -10 6 0 11 5 11 10 0 6 -2 10 -4 10 -3 0
-8 -4 -11 -10z"/>
<path d="M5188 3023 c7 -3 16 -2 19 1 4 3 -2 6 -13 5 -11 0 -14 -3 -6 -6z"/>
<path d="M1513 3005 c0 -8 4 -15 9 -15 4 0 8 4 8 9 0 6 -4 12 -8 15 -5 3 -9
-1 -9 -9z"/>
<path d="M1980 2790 c0 -5 5 -10 10 -10 6 0 10 5 10 10 0 6 -4 10 -10 10 -5 0
-10 -4 -10 -10z"/>
<path d="M5216 2362 c-3 -6 -1 -14 5 -17 15 -10 25 3 12 16 -7 7 -13 7 -17 1z"/>
<path d="M1494 2273 c3 -4 -1 -14 -9 -24 -22 -23 -10 -69 16 -64 30 6 39 15
39 38 0 29 -14 50 -35 53 -9 1 -14 0 -11 -3z"/>
<path d="M5255 2272 c3 -3 -2 -13 -10 -23 -11 -11 -14 -25 -9 -43 3 -15 9 -25
12 -22 3 3 10 2 16 -3 7 -6 18 -1 31 14 28 33 28 44 0 57 -13 6 -22 14 -20 18
2 4 -2 7 -10 7 -8 0 -13 -3 -10 -5z"/>
<path d="M4007 2629 c-21 -5 -47 -14 -57 -19 -49 -26 -68 -131 -33 -179 33
-44 195 -123 280 -137 38 -6 42 -4 68 31 19 24 33 60 42 108 13 68 12 73 -9
116 -32 63 -87 90 -183 90 -38 -1 -87 -5 -108 -10z"/>
<path d="M3954 2017 c-39 -22 -80 -82 -96 -138 -32 -113 16 -213 127 -265 105
-50 262 -23 328 55 23 28 27 42 27 96 0 58 -3 68 -32 100 -34 39 -77 64 -172
100 -34 13 -84 32 -111 43 -41 16 -55 18 -71 9z"/>
<path d="M1493 5598 c-2 -5 -1 -8 4 -7 20 4 24 -2 12 -18 -10 -11 -10 -14 -1
-9 6 4 12 4 12 -1 0 -4 9 -19 19 -32 l19 -24 14 27 c14 26 13 30 -8 52 -23 22
-60 28 -71 12z"/>
<path d="M5312 5598 c-7 -7 -18 -13 -25 -13 -7 0 -12 -12 -13 -27 -1 -22 2
-26 12 -17 10 8 12 6 9 -9 -2 -14 2 -19 21 -18 13 1 29 8 36 15 11 10 10 12
-1 9 -9 -2 -15 7 -16 24 -1 15 2 25 7 22 4 -3 5 -10 2 -16 -4 -7 -2 -8 4 -4 9
5 9 13 2 27 -12 22 -21 24 -38 7z"/>
<path d="M5816 5189 c2 -4 -3 -12 -11 -19 -8 -7 -15 -17 -15 -22 0 -18 29 -38
54 -38 21 0 26 5 27 28 0 15 2 34 4 42 2 12 -6 16 -30 16 -19 0 -32 -3 -29 -7z"/>
<path d="M5696 5095 c-3 -9 -14 -15 -23 -13 -11 2 -17 -2 -15 -11 2 -11 0 -12
-10 -3 -11 9 -14 4 -14 -23 0 -24 3 -31 12 -24 11 9 30 -5 34 -26 1 -5 6 -9
10 -8 5 2 7 -7 5 -19 l-4 -21 20 21 c11 12 25 22 32 22 8 0 13 16 13 44 0 38
-3 43 -15 33 -10 -8 -12 -8 -8 -1 4 6 -2 19 -12 28 -17 15 -19 15 -25 1z"/>
<path d="M5653 5005 c0 -8 4 -12 9 -9 5 3 6 10 3 15 -9 13 -12 11 -12 -6z"/>
<path d="M5971 4749 c-15 -6 -21 -14 -17 -25 3 -9 6 -20 6 -25 0 -20 47 -8 59
15 22 40 2 55 -48 35z"/>
<path d="M488 4116 c-24 -34 -23 -91 2 -116 11 -11 23 -20 27 -20 3 0 15 -8
26 -17 15 -13 18 -14 12 -3 -8 13 -6 13 7 2 22 -18 155 -14 155 4 0 7 -5 10
-11 7 -13 -8 14 28 29 39 6 4 6 8 1 8 -5 0 -4 6 2 13 8 10 3 21 -19 45 -17 18
-36 32 -44 32 -7 0 -15 5 -17 11 -2 7 -35 13 -78 16 -71 4 -76 3 -92 -21z"/>
<path d="M434 3693 c3 -3 -4 -17 -14 -31 -11 -13 -20 -33 -20 -44 0 -11 -4
-17 -9 -13 -15 9 -22 -12 -8 -22 19 -15 109 -15 119 -1 21 34 -16 108 -58 114
-9 1 -13 0 -10 -3z"/>
<path d="M6293 3593 c-7 -19 1 -48 15 -49 6 -1 13 -2 15 -4 8 -6 36 -7 32 0
-3 4 2 13 10 20 18 15 20 40 3 41 -7 0 -26 2 -42 3 -15 1 -30 -4 -33 -11z"/>
<path d="M1267 1466 c-3 -8 -16 -16 -29 -18 -26 -3 -30 -25 -8 -50 27 -33 44
-21 71 49 5 15 7 24 3 20 -4 -4 -13 -2 -19 3 -9 7 -14 6 -18 -4z"/>
<path d="M4799 896 c-2 -3 -18 -7 -34 -9 -18 -3 -29 -10 -27 -17 2 -10 0 -11
-10 -2 -11 9 -13 3 -10 -30 3 -29 10 -42 23 -45 10 -3 17 -9 14 -13 -3 -4 2
-10 10 -14 8 -3 15 -14 15 -25 0 -10 6 -21 14 -24 8 -3 20 -18 28 -34 10 -21
21 -29 47 -31 21 -2 31 0 26 7 -3 6 1 11 10 11 10 0 13 5 9 13 -6 9 -5 9 7 0
12 -9 14 -5 16 24 1 20 6 39 10 42 11 8 10 21 -5 48 -7 12 -11 26 -10 30 6 19
-58 67 -92 70 -20 2 -38 2 -41 -1z"/>
<path d="M2593 619 c-2 -23 -8 -49 -15 -57 -7 -8 -13 -22 -14 -31 -3 -45 -5
-51 -20 -51 -13 0 -14 -3 -5 -14 9 -10 9 -16 1 -21 -8 -5 -8 -11 1 -21 8 -9
32 -14 73 -14 58 0 64 2 96 35 18 19 36 33 39 30 4 -2 6 26 6 61 0 35 -3 64
-7 64 -4 0 -19 10 -34 23 -27 24 -55 34 -94 36 -22 1 -25 -3 -27 -40z m154
-74 c0 -8 -4 -12 -9 -9 -5 3 -6 10 -3 15 9 13 12 11 12 -6z"/>
<path d="M2923 275 c0 -8 4 -12 9 -9 5 3 6 10 3 15 -9 13 -12 11 -12 -6z"/>
<path d="M3491 557 c-6 -6 -11 -34 -11 -63 l0 -52 42 -4 c40 -4 42 -2 56 34 8
21 18 35 23 33 4 -3 11 0 15 6 4 8 3 9 -4 5 -7 -4 -23 4 -36 17 -27 28 -70 39
-85 24z"/>
</g>
</svg>
