<?xml version="1.0" encoding="UTF-8" standalone="no"?>
<!-- Created with Inkscape (http://www.inkscape.org/) -->
<svg xmlns:dc="http://purl.org/dc/elements/1.1/" xmlns:cc="http://creativecommons.org/ns#" xmlns:rdf="http://www.w3.org/1999/02/22-rdf-syntax-ns#" xmlns:svg="http://www.w3.org/2000/svg" xmlns="http://www.w3.org/2000/svg" xmlns:sodipodi="http://sodipodi.sourceforge.net/DTD/sodipodi-0.dtd" xmlns:inkscape="http://www.inkscape.org/namespaces/inkscape" width="30mm" height="30mm" viewBox="0 0 30 30" version="1.1" id="svg8" inkscape:version="0.92.4 5da689c313, 2019-01-14" sodipodi:docname="mapa.svg">
  <defs id="defs2"/>
  <sodipodi:namedview id="base" pagecolor="#ffffff" bordercolor="#666666" borderopacity="1.0" inkscape:pageopacity="0.0" inkscape:pageshadow="2" inkscape:zoom="1.979899" inkscape:cx="-78.398396" inkscape:cy="5.3698756" inkscape:document-units="mm" inkscape:current-layer="layer1" showgrid="false" inkscape:window-width="1920" inkscape:window-height="1004" inkscape:window-x="-2" inkscape:window-y="53" inkscape:window-maximized="1"/>
  <metadata id="metadata5">
    <rdf:RDF>
      <cc:Work rdf:about="">
        <dc:format>image/svg+xml</dc:format>
        <dc:type rdf:resource="http://purl.org/dc/dcmitype/StillImage"/>
        <dc:title/>
      </cc:Work>
    </rdf:RDF>
  </metadata>
  <g inkscape:label="Camada 1" inkscape:groupmode="layer" id="layer1" transform="translate(0,-267)">
    <path style="fill:#87c9d5;fill-opacity:1;stroke:none;stroke-width:0.05323712px;stroke-linecap:butt;stroke-linejoin:miter;stroke-opacity:1" d="m 9.2222674,278.97147 -1.7746617,2.86366 2.7829923,3.06533 2.083882,-0.0134 0.443666,-0.25545 0.846997,-2.95777 z" id="path833" inkscape:connector-curvature="0"/>
    <path style="fill:#6da1ac;fill-opacity:1;stroke:none;stroke-width:0.05323712px;stroke-linecap:butt;stroke-linejoin:miter;stroke-opacity:1" d="m 12.758146,284.63157 4.638319,-2.5141 -2.971213,-0.75289 -0.820109,0.30922 z" id="path835" inkscape:connector-curvature="0"/>
    <path style="fill:#6da1ac;fill-opacity:1;stroke:none;stroke-width:0.05323712px;stroke-linecap:butt;stroke-linejoin:miter;stroke-opacity:1" d="m 17.386244,281.35302 0.865103,0.34224 1.573347,-0.85085 -0.04278,-1.22635 -1.858545,0.63694 z" id="path843" inkscape:connector-curvature="0"/>
    <path style="fill:#6da1ac;fill-opacity:1;stroke:none;stroke-width:0.05323712px;stroke-linecap:butt;stroke-linejoin:miter;stroke-opacity:1" d="m 19.853214,281.60019 0.02377,0.67497 -0.74627,-0.2947 z" id="path845" inkscape:connector-curvature="0"/>
    <path style="fill:#6da1ac;fill-opacity:1;stroke:none;stroke-width:0.05323712px;stroke-linecap:butt;stroke-linejoin:miter;stroke-opacity:1" d="m 19.867473,283.01193 -1.549579,-0.56565 -1.682674,0.87937 -4.156046,2.27056 -0.386527,1.31755 5.036918,0.49023 2.851989,-1.75397 z" id="path847" inkscape:connector-curvature="0"/>
    <path style="fill:#e22a2a;fill-opacity:1;stroke:none;stroke-width:0.05323712px;stroke-linecap:butt;stroke-linejoin:miter;stroke-opacity:1" d="m 15.942992,269.38048 c -2.992552,0.0593 -5.038623,2.54268 -4.878862,5.22152 0.364901,3.49678 2.966571,3.26905 4.880347,11.21265 -0.01336,-2.83318 0.01009,-5.66546 -0.0032,-8.49864 -1.574292,-0.0293 -2.872665,-1.31414 -2.873883,-2.8887 7.04e-4,-1.57492 1.301786,-2.86061 2.876439,-2.88992 z" id="path826" inkscape:connector-curvature="0" sodipodi:nodetypes="ccccccc"/>
    <path id="path831" d="m 15.942992,269.38048 c 2.992552,0.0593 5.041594,2.54268 4.881832,5.22152 -0.3649,3.49678 -2.966571,3.26905 -4.880347,11.21265 0.01336,-2.83318 -0.01651,-5.66546 -0.0032,-8.49864 1.574292,-0.0293 2.879084,-1.31414 2.880302,-2.8887 -8.05e-4,-1.57492 -1.303092,-2.86061 -2.877746,-2.88992 z" style="fill:#eb6b6a;fill-opacity:1;stroke:#eb6b6a;stroke-width:0.05323712px;stroke-linecap:butt;stroke-linejoin:miter;stroke-opacity:1" inkscape:connector-curvature="0" sodipodi:nodetypes="ccccccc"/>
    <path style="fill:#6da1ac;fill-opacity:1;stroke:none;stroke-width:0.05323712px;stroke-linecap:butt;stroke-linejoin:miter;stroke-opacity:1" d="m 16.117108,287.9934 -4.220943,-0.4278 -1.026716,3.63153 z" id="path853" inkscape:connector-curvature="0"/>
    <path style="fill:#6da1ac;fill-opacity:1;stroke:none;stroke-width:0.05323712px;stroke-linecap:butt;stroke-linejoin:miter;stroke-opacity:1" d="m 9.9568129,294.35333 10.1957551,-2.95923 -0.100833,-3.01826 -2.74938,-0.28906 -6.558869,3.99209 -0.140223,-0.002 z" id="path855" inkscape:connector-curvature="0"/>
    <path style="fill:#87c9d5;fill-opacity:1;stroke:none;stroke-width:0.05323712px;stroke-linecap:butt;stroke-linejoin:miter;stroke-opacity:1" d="m 9.2424339,284.86685 -2.1981603,-2.42 -1.4923286,2.42672 z" id="path857" inkscape:connector-curvature="0"/>
    <path style="fill:#87c9d5;fill-opacity:1;stroke:none;stroke-width:0.05323712px;stroke-linecap:butt;stroke-linejoin:miter;stroke-opacity:1" d="m 5.0881128,285.5794 4.8130966,0.0134 1.7881066,1.96288 0.206849,0.01 -1.026716,3.63154 -0.296019,0.17008 -3.8854329,0.0202 -3.2871567,-3.03171 z" id="path859" inkscape:connector-curvature="0"/>
    <path style="fill:#87c9d5;fill-opacity:1;stroke:none;stroke-width:0.05323712px;stroke-linecap:butt;stroke-linejoin:miter;stroke-opacity:1" d="m 12.092647,286.91376 0.386527,-1.31755 -1.596523,-0.0101 z" id="path861" inkscape:connector-curvature="0"/>
    <path style="fill:#cccccc;fill-opacity:1;stroke:none;stroke-width:0.05323712px;stroke-linecap:butt;stroke-linejoin:miter;stroke-opacity:1" d="m 4.0663381,285.98273 -1.5326618,2.52755 6.5003695,5.98948 -8.88675116,-2.74266 z" id="path863" inkscape:connector-curvature="0"/>
    <path style="fill:#cdcdcd;fill-opacity:1;stroke:none;stroke-width:0.05323712px;stroke-linecap:butt;stroke-linejoin:miter;stroke-opacity:1" d="m 20.176439,292.13829 -8.660539,2.48123 8.689059,-0.62744 8.451393,0.4278 z" id="path865" inkscape:connector-curvature="0"/>
    <path style="fill:#87c9d5;fill-opacity:1;stroke:none;stroke-width:0.05323712px;stroke-linecap:butt;stroke-linejoin:miter;stroke-opacity:1" d="m 29.852705,294.00904 -0.725998,-2.23177 -9.074972,-3.40143 0.100833,3.01826 z" id="path867" inkscape:connector-curvature="0"/>
    <path style="fill:#87c9d5;fill-opacity:1;stroke:none;stroke-width:0.05323712px;stroke-linecap:butt;stroke-linejoin:miter;stroke-opacity:1" d="m 28.851098,290.93306 -1.532662,-4.83999 -6.994644,0.21766 -0.346993,0.17112 0.04753,1.20259 0.190132,0.01 z" id="path869" inkscape:connector-curvature="0"/>
    <path style="fill:#87c9d5;fill-opacity:1;stroke:none;stroke-width:0.05323712px;stroke-linecap:butt;stroke-linejoin:miter;stroke-opacity:1" d="m 27.110048,285.37101 -0.168056,-0.53778 -7.074519,-1.8213 0.114081,2.63809 z" id="path871" inkscape:connector-curvature="0"/>
    <path style="fill:#87c9d5;fill-opacity:1;stroke:none;stroke-width:0.05323712px;stroke-linecap:butt;stroke-linejoin:miter;stroke-opacity:1" d="m 26.68848,284.03864 -0.988689,-3.21324 -1.948859,-0.38977 -3.897718,1.16456 0.02377,0.67497 z" id="path873" inkscape:connector-curvature="0"/>
    <path style="fill:#87c9d5;fill-opacity:1;stroke:none;stroke-width:0.05323712px;stroke-linecap:butt;stroke-linejoin:miter;stroke-opacity:1" d="m 19.824694,280.84441 2.414683,-0.7225 -2.457463,-0.50385 z" id="path875" inkscape:connector-curvature="0"/>
    <path style="fill:#6da1ac;fill-opacity:1;stroke:none;stroke-width:0.05323712px;stroke-linecap:butt;stroke-linejoin:miter;stroke-opacity:1" d="m 20.024334,287.68444 -0.04753,-1.20259 -1.654153,1.0077 z" id="path877" inkscape:connector-curvature="0"/>
  </g>
</svg>