<?xml version="1.0" standalone="no"?>
<!DOCTYPE svg PUBLIC "-//W3C//DTD SVG 20010904//EN"
 "http://www.w3.org/TR/2001/REC-SVG-20010904/DTD/svg10.dtd">
<svg version="1.0" xmlns="http://www.w3.org/2000/svg"
 width="200.000000pt" height="249.000000pt" viewBox="0 0 200.000000 249.000000"
 preserveAspectRatio="xMidYMid meet">

<g transform="translate(0.000000,249.000000) scale(0.100000,-0.100000)"
fill="#000000" stroke="none">
<path d="M496 2474 c-3 -9 -6 -32 -6 -51 l0 -35 76 4 c41 2 71 2 65 0 -6 -2
-11 -17 -11 -33 0 -25 4 -29 28 -29 53 0 172 85 156 112 -3 4 -2 8 2 8 10 0
44 -41 44 -54 0 -6 -7 0 -16 12 l-15 22 -24 -28 c-32 -39 -119 -84 -153 -80
-21 2 -28 9 -30 31 l-3 27 -87 0 c-88 -1 -149 -16 -181 -44 -34 -31 -61 -305
-42 -422 15 -89 33 -117 156 -249 154 -164 155 -166 155 -299 0 -61 4 -117 9
-124 8 -13 140 -53 522 -160 l177 -49 -1 151 c0 91 4 162 11 179 l12 27 -68 0
c-37 0 -74 5 -82 10 -10 7 5 10 53 10 105 0 135 21 181 130 31 72 86 352 86
437 0 56 -26 137 -41 127 -5 -3 -4 7 1 21 40 104 -25 205 -132 205 -54 0 -58
-5 -78 -88 -7 -29 -14 -51 -17 -49 -2 3 5 44 17 91 19 78 19 89 5 115 -34 66
-130 99 -193 67 -17 -9 -34 -25 -37 -37 -7 -20 -8 -19 -27 12 -11 19 -26 37
-32 41 -13 9 -168 10 -190 2 -19 -7 -21 -40 -3 -47 7 -3 5 -6 -5 -6 -11 -1
-18 6 -18 17 0 36 -20 42 -141 42 -97 0 -118 -3 -123 -16z m239 -53 c-11 -5
-36 -11 -55 -14 -35 -6 -34 -6 5 8 43 14 84 19 50 6z m292 -53 c-3 -8 -6 -5
-6 6 -1 11 2 17 5 13 3 -3 4 -12 1 -19z m-170 -10 c-3 -8 -6 -5 -6 6 -1 11 2
17 5 13 3 -3 4 -12 1 -19z m157 -77 c-4 -34 -9 -60 -11 -57 -3 3 -2 32 2 66 4
34 9 59 12 57 2 -3 1 -33 -3 -66z m-178 11 c-34 -66 -127 -130 -211 -146 -16
-4 -7 2 21 13 106 39 163 85 186 149 7 18 14 29 16 23 2 -5 -4 -23 -12 -39z
m161 -129 c-3 -10 -5 -2 -5 17 0 19 2 27 5 18 2 -10 2 -26 0 -35z m-482 -31
c22 -7 54 -14 70 -16 17 -2 2 -2 -32 0 -64 3 -106 22 -118 52 -5 13 -1 12 17
-4 13 -11 41 -26 63 -32z m719 9 c-4 -17 -9 -30 -11 -27 -3 2 -2 19 2 36 9 41
17 33 9 -9z m-491 -62 c-5 -5 -7 7 -4 29 5 34 6 35 9 8 2 -16 0 -32 -5 -37z
m244 14 c-3 -10 -5 -2 -5 17 0 19 2 27 5 18 2 -10 2 -26 0 -35z m227 -27 c-3
-15 -8 -25 -11 -23 -2 3 -1 17 3 31 3 15 8 25 11 23 2 -3 1 -17 -3 -31z m-613
-5 c-18 -18 -33 -21 -96 -21 -41 0 -75 3 -75 8 0 4 26 6 57 4 41 -2 68 2 93
16 43 22 48 20 21 -7z m163 -17 c3 -8 2 -12 -4 -9 -6 3 -10 10 -10 16 0 14 7
11 14 -7z m213 -6 c-3 -8 -6 -5 -6 6 -1 11 2 17 5 13 3 -3 4 -12 1 -19z m-377
-13 c-7 -8 -20 -15 -29 -14 -11 0 -9 3 7 9 12 5 22 15 22 21 0 7 3 9 6 6 4 -4
1 -13 -6 -22z m150 -35 c33 -17 60 -33 60 -35 0 -3 -27 8 -60 25 -84 43 -109
40 -181 -20 -66 -55 -93 -68 -41 -19 17 16 32 37 32 45 0 7 5 14 10 14 6 0 10
-5 10 -12 0 -7 10 -2 22 10 31 31 76 28 148 -8z m-207 13 c-7 -2 -19 -2 -25 0
-7 3 -2 5 12 5 14 0 19 -2 13 -5z m5 -19 c2 -1 -23 -2 -55 -2 -39 1 -51 3 -38
9 17 6 83 2 93 -7z m862 3 c0 -2 -10 -12 -22 -23 l-23 -19 19 23 c18 21 26 27
26 19z m-240 -23 c-12 -13 -8 -15 33 -13 26 2 50 0 53 -4 4 -4 -22 -7 -59 -7
-108 0 -147 -30 -97 -75 11 -10 20 -23 20 -29 0 -6 -11 0 -23 14 -24 28 -67
60 -79 60 -5 0 -2 -11 7 -24 9 -13 13 -31 9 -41 -5 -11 -3 -16 3 -12 10 6 37
-63 48 -123 3 -20 -9 0 -29 50 -39 96 -73 131 -142 150 -25 7 -42 15 -40 17
10 10 82 -20 119 -49 39 -31 47 -27 21 10 -22 31 -9 40 27 20 27 -16 29 -16
29 1 0 10 12 23 28 30 15 7 38 19 52 26 33 18 35 18 20 -1z m190 -28 c0 -10
-7 -12 -22 -8 -21 5 -21 6 -2 13 10 4 20 8 22 8 1 1 2 -5 2 -13z"/>
<path d="M610 1183 c0 -5 136 -59 303 -120 166 -62 326 -122 356 -133 l54 -21
-6 41 c-3 23 -8 44 -10 47 -7 6 -667 193 -684 193 -7 0 -13 -3 -13 -7z"/>
<path d="M600 1040 c0 -10 -9 -20 -19 -23 -27 -7 -26 -64 1 -72 10 -4 18 -12
18 -18 0 -7 100 -48 223 -91 122 -44 293 -107 380 -142 130 -51 157 -59 158
-46 1 10 3 32 5 51 7 58 -27 79 -206 123 -139 35 -466 146 -456 155 2 2 77
-15 166 -37 89 -22 164 -39 166 -37 2 2 -24 13 -59 24 -34 12 -133 46 -219 76
-138 49 -158 53 -158 37z"/>
<path d="M565 859 c-5 -14 -2 -25 6 -30 10 -6 11 -9 2 -9 -22 0 -14 -37 10
-45 19 -6 19 -8 5 -12 -19 -5 -24 -38 -8 -48 24 -15 9 -35 -26 -35 -34 0 -35
-1 -32 -32 3 -31 3 -31 208 -104 113 -41 294 -106 402 -145 108 -39 202 -68
208 -64 6 4 20 -1 30 -10 18 -16 19 -15 29 22 24 90 24 87 -8 106 -16 9 -36
14 -45 11 -11 -4 -16 0 -16 13 0 17 -33 30 -227 88 -126 38 -268 87 -318 108
-49 22 -110 48 -134 58 -24 11 -41 22 -38 25 5 5 100 -23 572 -168 108 -33
185 -42 185 -22 0 15 -27 44 -42 44 -6 0 -105 34 -222 76 -116 42 -276 99
-356 126 -80 28 -146 54 -148 59 -7 17 -31 9 -37 -12z"/>
<path d="M571 559 c-6 -18 -5 -25 5 -27 19 -5 18 -22 -1 -22 -8 0 -15 -9 -15
-21 0 -11 4 -17 10 -14 6 3 7 -1 4 -9 -4 -10 -1 -16 7 -16 10 0 10 -3 3 -8
-16 -10 -28 -52 -15 -52 20 0 12 -38 -9 -45 -29 -9 -28 -61 1 -70 22 -7 22
-10 16 -141 l-7 -134 405 0 405 0 0 35 c0 28 -4 35 -20 35 -25 0 -26 12 0 27
13 9 19 22 17 43 -2 27 -9 34 -29 31 -13 -2 -9 11 6 23 7 6 16 25 19 43 5 27
3 33 -16 38 -125 38 -389 137 -587 220 -47 20 -103 43 -125 52 -22 9 -46 20
-52 26 -9 7 -15 2 -22 -14z"/>
</g>
</svg>
